<svg height="100%" stroke-miterlimit="10" style="fill-rule:nonzero;clip-rule:evenodd;stroke-linecap:round;stroke-linejoin:round;" version="1.1" viewBox="0 0 1024 1024" width="100%" xml:space="preserve" xmlns="http://www.w3.org/2000/svg" xmlns:xlink="http://www.w3.org/1999/xlink">
<defs/>
<g id="Слой-1">
<path d="M0 512C0 229.23 229.23 0 512 0C794.77 0 1024 229.23 1024 512C1024 794.77 794.77 1024 512 1024C229.23 1024 0 794.77 0 512Z" fill="#ffb100" fill-rule="nonzero" opacity="1" stroke="none"/>
<g fill="#ffffff" opacity="1" stroke="none">
<path d="M183.537 338.342L547.606 338.342L547.606 434.052L425.457 434.052L425.457 725.942L305.686 725.942L305.686 434.052L183.537 434.052L183.537 338.342Z"/>
<path d="M542.336 338.342L838.456 338.342L838.456 421.626L662.634 421.626L662.634 489.311L812.81 489.311L812.81 567.571L662.634 567.571L662.634 725.942L542.336 725.942L542.336 338.342Z"/>
</g>
</g>
</svg>
