<!-- icon666.com - MILLIONS vector ICONS FREE -->
<svg id="Capa_1" enable-background="new 0 0 610.049 610.049" viewBox="0 0 610.049 610.049"
     xmlns="http://www.w3.org/2000/svg" xmlns:xlink="http://www.w3.org/1999/xlink">
    <linearGradient id="Contour_1_" gradientTransform="matrix(2.522 0 0 -2.522 3.152 1677.175)"
                    gradientUnits="userSpaceOnUse" x1="70.115" x2="189.444" y1="485.499" y2="604.829">
        <stop offset="0" stop-color="#ffb56b"></stop>
        <stop offset="1" stop-color="#bd5e00"></stop>
    </linearGradient>
    <linearGradient id="lg1">
        <stop offset="0" stop-color="#3d1f00"></stop>
        <stop offset="1" stop-color="#693400"></stop>
    </linearGradient>
    <linearGradient id="Contour-2_1_" gradientTransform="matrix(2.522 0 0 -2.522 3.152 1677.175)"
                    gradientUnits="userSpaceOnUse" x1="27.937" x2="32.975" xlink:href="#lg1" y1="466.804"
                    y2="471.842"></linearGradient>
    <linearGradient id="Contour-3_1_" gradientTransform="matrix(2.522 0 0 -2.522 3.152 1677.175)"
                    gradientUnits="userSpaceOnUse" x1="78.29" x2="83.34" xlink:href="#lg1" y1="658.885"
                    y2="663.923"></linearGradient>
    <linearGradient id="Contour-4_1_" gradientTransform="matrix(2.522 0 0 -2.522 3.152 1677.175)"
                    gradientUnits="userSpaceOnUse" x1="234.485" x2="239.524" xlink:href="#lg1" y1="517.47"
                    y2="522.508"></linearGradient>
    <linearGradient id="Contour-5_1_" gradientTransform="matrix(2.522 0 0 -2.522 3.152 1677.175)"
                    gradientUnits="userSpaceOnUse" x1="-.535" x2="1.799" xlink:href="#lg1" y1="574.967"
                    y2="577.302"></linearGradient>
    <linearGradient id="Contour-6_1_" gradientTransform="matrix(2.522 0 0 -2.522 3.152 1677.175)"
                    gradientUnits="userSpaceOnUse" x1="2.072" x2="4.347" xlink:href="#lg1" y1="577.505"
                    y2="579.792"></linearGradient>
    <linearGradient id="Contour-7_1_" gradientTransform="matrix(2.522 0 0 -2.522 3.152 1677.175)"
                    gradientUnits="userSpaceOnUse" x1="4.655" x2="6.93" xlink:href="#lg1" y1="575.018"
                    y2="577.305"></linearGradient>
    <linearGradient id="Contour-8_1_" gradientTransform="matrix(2.522 0 0 -2.522 3.152 1677.175)"
                    gradientUnits="userSpaceOnUse" x1="2.068" x2="4.343" xlink:href="#lg1" y1="572.471"
                    y2="574.746"></linearGradient>
    <linearGradient id="Contour-9_1_" gradientTransform="matrix(2.522 0 0 -2.522 3.152 1677.175)"
                    gradientUnits="userSpaceOnUse" x1="208.762" x2="211.097" xlink:href="#lg1" y1="620.67"
                    y2="622.994"></linearGradient>
    <linearGradient id="Contour-10_1_" gradientTransform="matrix(2.522 0 0 -2.522 3.152 1677.175)"
                    gradientUnits="userSpaceOnUse" x1="211.361" x2="213.636" xlink:href="#lg1" y1="623.217"
                    y2="625.492"></linearGradient>
    <linearGradient id="Contour-11_1_" gradientTransform="matrix(2.522 0 0 -2.522 3.152 1677.175)"
                    gradientUnits="userSpaceOnUse" x1="213.928" x2="216.203" xlink:href="#lg1" y1="620.745"
                    y2="623.02"></linearGradient>
    <linearGradient id="Contour-12_1_" gradientTransform="matrix(2.522 0 0 -2.522 3.152 1677.175)"
                    gradientUnits="userSpaceOnUse" x1="211.366" x2="213.641" xlink:href="#lg1" y1="618.163"
                    y2="620.45"></linearGradient>
    <linearGradient id="Contour-13_1_" gradientTransform="matrix(2.522 0 0 -2.522 3.152 1677.175)"
                    gradientUnits="userSpaceOnUse" x1="143.217" x2="145.539" xlink:href="#lg1" y1="426.344"
                    y2="428.667"></linearGradient>
    <linearGradient id="Contour-14_1_" gradientTransform="matrix(2.522 0 0 -2.522 3.152 1677.175)"
                    gradientUnits="userSpaceOnUse" x1="145.783" x2="148.07" xlink:href="#lg1" y1="428.911"
                    y2="431.186"></linearGradient>
    <linearGradient id="Contour-15_1_" gradientTransform="matrix(2.522 0 0 -2.522 3.152 1677.175)"
                    gradientUnits="userSpaceOnUse" x1="148.398" x2="150.684" xlink:href="#lg1" y1="426.392"
                    y2="428.679"></linearGradient>
    <linearGradient id="Contour-16_1_" gradientTransform="matrix(2.522 0 0 -2.522 3.152 1677.175)"
                    gradientUnits="userSpaceOnUse" x1="145.831" x2="148.118" xlink:href="#lg1" y1="423.813"
                    y2="426.1"></linearGradient>
    <linearGradient id="lg2">
        <stop offset="0" stop-color="#964b00"></stop>
        <stop offset="1" stop-color="#bd732a"></stop>
    </linearGradient>
    <linearGradient id="Contour-18_1_" gradientTransform="matrix(2.522 0 0 -2.522 3.152 1677.175)"
                    gradientUnits="userSpaceOnUse" x1="114.804" x2="162.433" xlink:href="#lg2" y1="567.548"
                    y2="615.177"></linearGradient>
    <linearGradient id="Contour-19_1_" gradientTransform="matrix(2.522 0 0 -2.522 3.152 1677.175)"
                    gradientUnits="userSpaceOnUse" x1="77.606" x2="123.457" xlink:href="#lg2" y1="564.496"
                    y2="610.347"></linearGradient>
    <linearGradient id="Contour-21_1_" gradientTransform="matrix(2.522 0 0 -2.522 3.152 1677.175)"
                    gradientUnits="userSpaceOnUse" x1="151.473" x2="178.574" xlink:href="#lg2" y1="509.388"
                    y2="536.478"></linearGradient>
    <linearGradient id="Contour-22_1_" gradientTransform="matrix(2.522 0 0 -2.522 3.152 1677.175)"
                    gradientUnits="userSpaceOnUse" x1="171.983" x2="193.481" xlink:href="#lg2" y1="505.009"
                    y2="526.507"></linearGradient>
    <linearGradient id="Contour-23_1_" gradientTransform="matrix(2.522 0 0 -2.522 3.152 1677.175)"
                    gradientUnits="userSpaceOnUse" x1="59.616" x2="93.907" xlink:href="#lg2" y1="505.594"
                    y2="539.897"></linearGradient>
    <linearGradient id="Contour-24_1_" gradientTransform="matrix(2.522 0 0 -2.522 3.152 1677.175)"
                    gradientUnits="userSpaceOnUse" x1="50.953" x2="67.092" xlink:href="#lg2" y1="507.495"
                    y2="523.634"></linearGradient>
    <linearGradient id="Contour-27_1_" gradientTransform="matrix(2.522 0 0 -2.522 3.152 1677.175)"
                    gradientUnits="userSpaceOnUse" x1="86.644" x2="156.629" xlink:href="#lg1" y1="553.128"
                    y2="623.113"></linearGradient>
    <linearGradient id="Contour-28_1_" gradientTransform="matrix(2.522 0 0 -2.522 3.152 1677.175)"
                    gradientUnits="userSpaceOnUse" x1="73.028" x2="165.531" xlink:href="#lg1" y1="474.736"
                    y2="567.239"></linearGradient>
    <g>
        <g id="Icon_22">
            <path id="Contour_28_"
                  d="m161.885 396.947c-1.736-3.263-5.37-5.043-9.012-4.416-17.724 3.004-68.761 4.566-72.726-74.889-4.927-96.338 111.988-260.867 283.455-228.153 137.763 26.285 34.906 157.319 119.288 190.393 49.386 19.346 94.025 118.567-15.651 204.752-59.298 46.591-211.54 87.775-305.354-87.687z"
                  fill="url(#Contour_1_)"></path>
            <path id="Contour-2_28_"
                  d="m79.966 502.477c-4.977 0-9.012-4.035-9.012-9.012s4.035-9.012 9.012-9.012 9.012 4.035 9.012 9.012-4.035 9.012-9.012 9.012zm0-12.016c-1.659 0-3.004 1.345-3.004 3.004s1.345 3.004 3.004 3.004 3.004-1.345 3.004-3.004c-.016-1.647-1.357-2.974-3.004-2.974z"
                  fill="url(#Contour-2_1_)"></path>
            <path id="Contour-3_28_"
                  d="m206.975 18.024c-4.977 0-9.012-4.035-9.012-9.012s4.034-9.012 9.012-9.012 9.012 4.035 9.012 9.012-4.035 9.012-9.012 9.012zm0-12.016c-1.659 0-3.004 1.345-3.004 3.004s1.345 3.004 3.004 3.004 3.004-1.345 3.004-3.004-1.345-3.004-3.004-3.004z"
                  fill="url(#Contour-3_1_)"></path>
            <path id="Contour-4_28_"
                  d="m600.917 374.687c-4.977 0-9.012-4.035-9.012-9.012s4.035-9.012 9.012-9.012 9.012 4.035 9.012 9.012c0 4.977-4.035 9.012-9.012 9.012zm0-12.016c-1.659 0-3.004 1.345-3.004 3.004s1.345 3.004 3.004 3.004 3.004-1.345 3.004-3.004c-.016-1.647-1.357-2.974-3.004-2.974z"
                  fill="url(#Contour-4_1_)"></path>
            <g id="Group_28_">
                <path id="Contour-5_28_"
                      d="m9.372 224.067c0-1.659-1.345-3.004-3.004-3.004h-3.244c-1.659 0-3.004 1.345-3.004 3.004s1.345 3.004 3.004 3.004h3.244c1.66 0 3.004-1.345 3.004-3.004z"
                      fill="url(#Contour-5_1_)"></path>
                <path id="Contour-6_28_"
                      d="m11.235 222.295c1.659 0 3.004-1.345 3.004-3.004v-3.334c-.126-1.565-1.434-2.769-3.004-2.764-1.57-.005-2.878 1.199-3.004 2.764v3.334c0 1.659 1.345 3.004 3.004 3.004z"
                      fill="url(#Contour-6_1_)"></path>
                <path id="Contour-7_28_"
                      d="m19.316 221.063h-3.244c-1.659 0-3.004 1.345-3.004 3.004s1.345 3.004 3.004 3.004h3.244c1.659 0 3.004-1.345 3.004-3.004s-1.345-3.004-3.004-3.004z"
                      fill="url(#Contour-7_1_)"></path>
                <path id="Contour-8_28_"
                      d="m11.235 225.93c-1.659 0-3.004 1.345-3.004 3.004v3.244c.126 1.565 1.434 2.769 3.004 2.764 1.57.005 2.878-1.199 3.004-2.764v-3.244c0-1.659-1.345-3.004-3.004-3.004z"
                      fill="url(#Contour-8_1_)"></path>
            </g>
            <g id="Group-2_28_">
                <path id="Contour-9_28_"
                      d="m537.263 108.804c0-1.659-1.345-3.004-3.004-3.004h-3.244c-1.659 0-3.004 1.345-3.004 3.004s1.345 3.004 3.004 3.004h3.244c1.659 0 3.004-1.345 3.004-3.004z"
                      fill="url(#Contour-9_1_)"></path>
                <path id="Contour-10_28_"
                      d="m539.125 106.942c1.659 0 3.004-1.345 3.004-3.004v-3.214c-.111-1.576-1.424-2.798-3.004-2.794-1.58-.004-2.893 1.217-3.004 2.794v3.214c0 1.659 1.345 3.004 3.004 3.004z"
                      fill="url(#Contour-10_1_)"></path>
                <path id="Contour-11_28_"
                      d="m547.206 105.8h-3.364c-1.659 0-3.004 1.345-3.004 3.004s1.345 3.004 3.004 3.004h3.244c1.659 0 3.004-1.345 3.004-3.004s-1.345-3.004-3.004-3.004z"
                      fill="url(#Contour-11_1_)"></path>
                <path id="Contour-12_28_"
                      d="m539.125 110.667c-1.659 0-3.004 1.345-3.004 3.004v3.244c.126 1.565 1.434 2.769 3.004 2.764 1.57.005 2.878-1.199 3.004-2.764v-3.244c0-1.659-1.345-3.004-3.004-3.004z"
                      fill="url(#Contour-12_1_)"></path>
            </g>
            <g id="Group-3_28_">
                <path id="Contour-13_28_"
                      d="m371.923 598.935c0-1.659-1.345-3.004-3.004-3.004h-3.244c-1.659 0-3.004 1.345-3.004 3.004s1.345 3.004 3.004 3.004h3.244c1.659 0 3.004-1.345 3.004-3.004z"
                      fill="url(#Contour-13_1_)"></path>
                <path id="Contour-14_28_"
                      d="m373.786 597.072c1.659 0 3.004-1.345 3.004-3.004v-3.214c0-1.659-1.345-3.004-3.004-3.004s-3.004 1.345-3.004 3.004v3.214c0 1.659 1.345 3.004 3.004 3.004z"
                      fill="url(#Contour-14_1_)"></path>
                <path id="Contour-15_28_"
                      d="m381.897 595.931h-3.274c-1.659 0-3.004 1.345-3.004 3.004s1.345 3.004 3.004 3.004h3.244c1.659 0 3.004-1.345 3.004-3.004s-1.345-3.004-3.004-3.004z"
                      fill="url(#Contour-15_1_)"></path>
                <path id="Contour-16_28_"
                      d="m373.786 600.797c-1.659 0-3.004 1.345-3.004 3.004v3.244c0 1.659 1.345 3.004 3.004 3.004s3.004-1.345 3.004-3.004v-3.244c0-1.659-1.345-3.004-3.004-3.004z"
                      fill="url(#Contour-16_1_)"></path>
            </g>
            <circle id="Contour-17_28_" cx="310.131" cy="193.727" fill="#fff" r="121.872"></circle>
            <path id="Contour-18_28_"
                  d="m360.598 82.79s-2.433 17.153-15.921 20.007-15.561 3.184-18.024 16.672c.514 2.698 2.197 5.03 4.596 6.368 4.266 2.734 3.004 6.819 3.244 9.012s-.481 1.923-.481 2.794c.474 5.177 2.117 10.18 4.806 14.629 3.806 5.329 8.024 10.351 12.617 15.02l-4.296 16.852-9.282 5.587s5.077 6.008-4.206 13.818c-9.282 7.81-9.553 5.047-9.553 5.047s-7.63 6.008-6.609 24.032l11.325 14.239 15.02 15.02-.33 11.085-7.9 15.651s26.645-6.969 31.872-19.496c0 0 4.266-11.746 7.9-15.921s28.808-26.765 22.92-41.095l-13.458-7.63-9.222-4.296-12.947-.661-7.3-4.266-4.266-16.342 7.18-4.806 5.828 1.923 7.36 5.347 12.797-3.004 15.38-4.506 8.772.901 8.591 3.545 6.759-.451 6.008-7.48-9.012-27.787-16.221-25.294-26.165-24.543z"
                  fill="url(#Contour-18_1_)"></path>
            <path id="Contour-19_28_"
                  d="m222.806 107.663s21.779-17.423 29.439-21.238l7.3-3.635 12.016 23.521-2.283 7.27-9.703 13.818-.511 6.188 8.051 6.008v8.561l-18.024 9.883-13.007 9.402-9.853 14.72-12.827 14.81-12.467-.721s-10.394 1.622-11.325 3.935-.18-5.347-.36.751c.141 3.741 2.58 7.006 6.128 8.201l22.26 7.66 11.475 18.745 9.012 16.882 18.234 15.41 4.085 21.028 6.008 18.835-14.149-6.519c-16.386-10.578-30.928-23.77-43.047-39.052 0 0-18.895-26.345-21.028-55.994 0 0 .961-24.543 3.334-40.824 3.815-25.593 31.242-57.645 31.242-57.645z"
                  fill="url(#Contour-19_1_)"></path>
            <path id="Contour-20_28_"
                  d="m178.226 277.118 80.236 56.325s.871 2.764-1.742 9.282c-2.613 6.519-1.021 1.472-1.021 1.472l12.887 10.514h15.2l21.028 2.553 37.099-2.133 23.401-10.304-8.501-9.012 86.034-63.534 15.531 24.903 12.406 31.662 18.444 12.737 24.242 30.941-63.775 45.27-23.852 16.912-7.029-7.84-9.973 6.909 9.463 6.278c6.68 5.945 7.277 16.179 1.332 22.859-.506.569-1.052 1.101-1.633 1.593 0 0-5.107 8.321-22.89 1.772 2.602 7.276 1.249 15.381-3.575 21.418-8.231 10.514-21.989 3.244-21.989 3.244s6.008 15.23-3.004 22.92-23.01 1.953-23.01 1.953 4.596 13.728-.931 19.256c-5.527 5.527-13.488 10.424-23.822 3.184s-79.906-56.835-79.906-56.835l-27.937-43.618-12.016-9.402-9.252 5.828-5.768-2.463-81.108-58.638c10.336-17.908 24.99-32.944 42.627-43.738 4.019-20.799 14.081-39.952 28.928-55.063z"
                  fill="#fff"></path>
            <path id="Contour-21_28_"
                  d="m418.906 289.434s75.1 81.108 19.646 136.171l-12.016 8.171-7.029-7.21-59.148-82.91s-4.536-8.591-.931-12.016c3.604-3.425 59.478-42.206 59.478-42.206z"
                  fill="url(#Contour-21_1_)"></path>
            <path id="Contour-22_28_" d="m491.031 390.067s3.154-34.726-20.247-61.191c0 0 15.951 39.532-20.187 88.257z"
                  fill="url(#Contour-22_1_)"></path>
            <path id="Contour-23_28_"
                  d="m197.122 289.915s-74.889 81.108-19.466 136.201l12.016 8.141 7.089-7.089 59.028-83s4.536-8.591.901-12.016c-3.634-3.426-59.568-42.237-59.568-42.237z"
                  fill="url(#Contour-23_1_)"></path>
            <path id="Contour-24_28_" d="m125.116 390.518s-3.184-34.726 20.187-61.221c0 0-15.921 39.562 20.277 88.227z"
                  fill="url(#Contour-24_1_)"></path>
            <path id="Contour-25_28_"
                  d="m207.155 451.078s-18.024 13.758-16.252 24.032 6.489 10.244 6.489 10.244c7.391 3.611 16.28 1.882 21.779-4.236l10.274-12.016-16.282-23.852z"
                  fill="#fff"></path>
            <path id="Contour-26_27_"
                  d="m234.431 466.098 13.548-12.917s12.346-3.665 17.063 5.107c4.716 8.772 3.304 15.02 2.253 16.732 0 0 10.424-3.725 15.681 4.236s5.738 13.698 2.013 18.595c0 0 10.484-4.055 18.024 3.545s4.987 18.324-5.527 26.315c-6.989 5.03-16.732 3.442-21.761-3.547-2.591-3.6-3.526-8.133-2.571-12.465 0 0-14.539 7.33-20.637 0-3.686-4.602-5.566-10.392-5.287-16.282 0 0-11.265 6.489-19.226 0s-4.386-17.573-4.386-17.573z"
                  fill="#fff"></path>
            <g id="Group-4_23_">
                <path id="Contour-27_27_"
                      d="m186.367 210.76c9.303 68.32 72.228 116.163 140.548 106.86 55.582-7.568 99.292-51.278 106.86-106.86 21.869-3.845 37.069-9.282 37.069-16.822 0-5.738-7.21-10.033-23.401-13.969-.239-.029-.482-.029-.721 0-1.659 0-3.004 1.345-3.004 3.004.035 1.376 1.001 2.551 2.343 2.854 18.024 4.356 18.805 8.081 18.805 8.111 0 1.472-6.008 6.008-30.37 10.544.3-3.485.481-7.029.481-10.604-.003-9.764-1.152-19.493-3.425-28.988v-.421c-16.039-67.076-83.418-108.449-150.493-92.41-56.329 13.469-96.004 63.902-95.833 121.819 0 3.635.18 7.21.481 10.784-25.143-4.506-31.271-9.222-31.271-10.724 0 0 .751-3.545 17.333-7.75 1.319-.326 2.255-1.496 2.283-2.854 0-1.659-1.345-3.004-3.004-3.004-.239-.029-.482-.029-.721 0-15.02 3.845-21.869 8.021-21.869 13.578-.031 7.539 15.59 13.006 37.909 16.852zm6.188 1.021 3.545.511c2.298.883 4.657 1.596 7.059 2.133.71.142 1.412.322 2.103.541 1.322.571 2.674 1.021 3.995 1.442 5.708 1.802 11.595 3.665 16.552 18.805 6.008 18.925 15.02 24.573 21.539 28.688 5.107 3.214 7.39 4.656 8.742 12.467.21 1.202.361 3.004.541 4.957.374 7.024 1.771 13.956 4.145 20.577-36.426-16.67-62.036-50.531-68.16-90.12h-.061zm117.516 100.844c-13.491-.01-26.882-2.326-39.592-6.849-6.008-5.377-7.119-17.663-7.81-25.083-.18-2.133-.36-3.995-.601-5.407-1.802-10.364-5.828-12.917-11.385-16.462-6.368-4.025-13.548-8.621-19.045-25.474-3.244-9.943-7.24-15.2-11.235-18.264 30.581 2.824 64.766 3.845 89.308 3.845h5.587c-.924 3.383-1.547 6.841-1.862 10.334-.721 7.84 9.222 16.282 18.024 23.731 2.493 2.133 5.107 4.326 7.3 6.398 1.933 1.825 3.021 4.371 3.004 7.029 0 6.008-4.296 13.067-7.991 18.024-1.172 1.612-1.172 3.795 0 5.407.853 1.231 2.258 1.961 3.755 1.953.457-.001.911-.061 1.352-.18 5.059-1.626 9.917-3.823 14.479-6.549 10.424-6.008 17.573-12.797 17.814-16.912.33-6.008 6.008-12.016 12.436-19.376 6.429-7.36 13.908-15.44 17.573-25.113 1.195-2.781 1.67-5.818 1.382-8.832 9.012-.871 17.423-1.923 25.264-3.004-9.009 58.023-58.978 100.812-117.696 100.784zm37.64-123.825c.675-.426 1.208-1.043 1.532-1.772.511 1.682 1.111 3.665 1.832 6.008l.15.511c3.004 9.673 13.338 9.523 18.835 9.463h.391c1.923-.1 3.85.042 5.738.421 3.201 2.063 6.615 3.776 10.184 5.107 1.202.481 2.283.961 3.244 1.382-19.856 1.652-42.056 2.644-65.367 3.004.802-1.437 2.124-2.513 3.695-3.004 7.732-1.981 13.174-8.901 13.278-16.882 0-1.893.541-2.193 3.274-3.004 1.146-.249 2.249-.664 3.274-1.232h-.06zm48.695 26.496c.233 2.127-.153 4.275-1.111 6.188-3.244 8.591-10.214 16.342-16.372 23.191-7.27 8.051-13.518 15.02-13.969 22.8-.361 1.232-4.596 6.398-14.84 12.316-2.906 1.681-5.916 3.176-9.012 4.476 3.934-5.219 6.215-11.497 6.549-18.024-.036-4.279-1.815-8.358-4.927-11.295-2.313-2.163-4.957-4.416-7.54-6.609-6.489-5.497-16.312-13.848-15.891-18.565.32-3.72 1.034-7.396 2.133-10.965 22.38-.21 49.776-1.262 75.04-3.515h-.06zm24.663-8.832c-6.729.961-13.969 1.802-21.599 2.523-3.189-2.673-6.86-4.712-10.814-6.008-3.156-1.165-6.177-2.665-9.012-4.476-2.807-1.325-5.927-1.845-9.012-1.502h-.481c-7.42 0-11.685-.721-13.067-5.227v-.511c-1.532-4.896-2.523-8.201-3.214-10.484 2.073-1.382 3.845-2.523 4.236-2.704 1.613-.804 3.556-.516 4.866.721.841.781 1.682 1.592 2.553 2.493 1.988 2.137 4.803 3.309 7.72 3.214 4.708-.425 9.304-1.676 13.578-3.695 7.87-3.004 15.981-6.218 23.071-2.073 5.046 3.417 11.553 3.808 16.973 1.021.473-.299.925-.63 1.352-.991.65 4.98.981 9.997.991 15.02 0 3.935-.21 7.81-.571 11.655zm4.506-40.674c.691 4.656.631 7.119-2.163 8.832-3.534 1.527-7.608 1.106-10.754-1.111-9.583-5.587-19.946-1.562-28.298 1.682-9.012 3.545-12.467 4.296-14.78 1.923-.931-.991-1.893-1.923-2.824-2.794-3.137-2.896-7.733-3.565-11.565-1.682-.391.18-1.111.631-1.983 1.172 1.983-7.42.901-8.682.27-9.433l-1.202-1.142c-5.77-3.811-10.211-9.323-12.707-15.771-3.425-7.3-2.764-9.823-2.343-11.505 1.802-6.969-1.232-10.664-6.759-14.329-1.262-.811-1.111-3.755-.3-6.188 1.532-4.746 5.708-9.463 10.093-9.282 10.033.421 18.024-6.789 21.509-19.436 32.018 15.507 55.438 44.502 63.865 79.065zm-69.242-81.678c-1.592 6.008-5.617 15.981-15.02 15.981h-.691c-7.57-.391-13.818 6.459-16.071 13.398-1.893 5.738-.871 10.754 2.674 13.097 4.927 3.274 5.077 4.746 4.296 7.81s-1.292 7.029 2.704 15.561c2.849 7.199 7.774 13.389 14.149 17.784-.408 2.607-1.021 5.179-1.832 7.69-.806 1.808-1.401 3.703-1.772 5.647-.21.871-.481 2.043-.721 2.794l-1.142.33c-4.422.525-7.723 4.32-7.63 8.772-.091 5.158-3.561 9.643-8.531 11.025-4.339 1.295-7.806 4.572-9.342 8.832h-7.87c-37.251.304-74.481-1.854-111.448-6.459h-.541c-2.218-.893-4.049-2.543-5.167-4.656 1.772-2.613 5.377-2.704 12.767-2.253 1.832 0 3.755.21 5.407.21h.448c7.3 0 12.947-9.012 19.496-19.286 6.819-10.814 10.995-14.569 24.723-22.41 1.513-.811 3.067-1.543 4.656-2.193 5.678-2.463 14.179-6.008 11.686-13.969-.871-5.257-6.459-8.231-8.321-9.222l-.481-.27c-.413-.261-.845-.492-1.292-.691 0 0 0-1.202 2.163-5.137 1.831-3.005 3.901-5.857 6.188-8.531 4.566-5.587 7.87-9.613 3.214-15.02-4.187-5.582-7.109-12.01-8.561-18.835 29.431-12.249 62.547-12.174 91.922.21zm-97.51 2.313c1.699 7.353 4.934 14.263 9.493 20.277 1.262 1.472 1.412 1.682-3.304 7.45-2.444 2.933-4.635 6.069-6.549 9.372-2.613 4.536-3.395 7.36-2.764 9.703.757 2.049 2.353 3.678 4.386 4.476l.361.21c4.085 2.163 5.077 3.905 5.227 4.987l.15.661c.811 2.343-1.893 3.965-8.291 6.759-1.806.735-3.571 1.567-5.287 2.493-14.81 8.351-19.526 12.677-26.826 24.422-4.656 7.36-10.424 16.492-14.509 16.492-1.832 0-3.665 0-5.407-.24-4.743-.724-9.592-.27-14.119 1.322 0-.36 0-.691 0-1.051-.007-45.74 26.211-87.433 67.439-107.242z"
                      fill="url(#Contour-27_1_)"></path>
                <path id="Contour-28_26_"
                      d="m516.115 371.142c-10.199-18.604-25.039-34.251-43.077-45.42-5.608-19.173-14.579-37.197-26.495-53.231-1.485-2.093-4.378-2.602-6.489-1.142l-82.459 57.887c-4.147 2.934-5.141 8.669-2.223 12.827l1.502 2.163c-5.167 3.965-11.175 7.75-13.458 7.991-11.962-.991-24.005-.232-35.747 2.253-9.613-.841-21.418-1.442-35.057-1.862-2.163 0-8.321-3.935-13.638-7.991l1.502-2.163c2.912-4.166 1.905-9.903-2.253-12.827l-82.279-57.767c-2.111-1.461-5.003-.952-6.489 1.142-11.886 16.05-20.827 34.084-26.405 53.261-18.028 11.198-32.856 26.865-43.047 45.48-1.088 2.088-.458 4.66 1.472 6.008l82.489 57.827c1.533 1.097 3.372 1.685 5.257 1.682 3.004-.04 5.812-1.5 7.57-3.935l1.262-1.802 8.201 5.648 2.163 2.403 2.133 3.755-17.693 17.693c-3.384 3.553-5.202 8.314-5.047 13.217.435 4.397 2.402 8.502 5.557 11.595 3.162 3.259 7.477 5.146 12.016 5.257 4.805-.18 9.401-2.016 13.007-5.197l.571-.571c.537 4.224 2.472 8.148 5.497 11.145 3.166 3.253 7.478 5.14 12.016 5.257 2.593-.061 5.143-.676 7.48-1.802-.075.94-.075 1.884 0 2.824.757 4.31 2.948 8.237 6.218 11.145 3.194 2.984 7.376 4.684 11.746 4.776 2.757-.026 5.467-.717 7.9-2.013-.031.5-.031 1.002 0 1.502.844 4.391 3.205 8.347 6.669 11.175 3.177 2.995 7.351 4.707 11.716 4.806 4.583-.168 8.958-1.956 12.346-5.047l16.612 11.625.27.18c4.164 2.551 8.909 3.999 13.788 4.206 5.363.011 10.36-2.72 13.248-7.24 2.937-4.118 4.34-9.135 3.965-14.179-.125-.936-.326-1.86-.601-2.764 2.221.73 4.541 1.115 6.879 1.142 6.429-.063 12.407-3.317 15.951-8.682 2.935-4.119 4.337-9.135 3.965-14.179-.17-1.192-.441-2.368-.811-3.515 1.793.489 3.639.751 5.497.781 6.423-.09 12.389-3.337 15.951-8.682 2.912-4.14 4.303-9.16 3.935-14.209-.098-.834-.269-1.659-.511-2.463 2.438.887 5.006 1.364 7.6 1.412 6.429-.063 12.407-3.317 15.951-8.682 2.93-4.122 4.332-9.135 3.965-14.179-.81-5.661-3.89-10.748-8.531-14.089l-3.004-2.103 3.455-2.403 1.262 1.802c1.758 2.436 4.566 3.895 7.57 3.935 1.885.003 3.724-.585 5.257-1.682l82.519-58.007c1.908-1.352 2.501-3.918 1.384-5.974zm-375.048-36.468c-2.286 11.476-2.479 23.271-.571 34.816 2.582 14.728 8.614 28.635 17.603 40.584l-52.209-36.589c8.748-15.352 20.756-28.6 35.177-38.811zm50.888 95.226c-.493.707-1.252 1.184-2.103 1.322-.818.162-1.667-.023-2.343-.511-10.454-7.42-35.297-28.298-41.064-62.182-4.746-27.937 4.416-58.518 27.036-90.931l81.288 57.076c1.442 1.006 1.796 2.991.79 4.433-.003.004-.006.008-.009.013zm22.68 51.459c-6.218 4.957-12.016 5.017-16.973.21-2.061-2.034-3.383-4.698-3.755-7.57-.074-3.218 1.099-6.339 3.274-8.712l16.522-16.522 12.016 21.208zm14.209 10.844c-2.058-2.048-3.378-4.721-3.755-7.6-.058-3.208 1.138-6.312 3.334-8.651l.691-.661 4.416-4.206 11.535-11.025c2.533-2.301 5.776-3.668 9.192-3.875 2.949.087 5.749 1.314 7.81 3.424 2.067 2.042 3.389 4.718 3.755 7.6-.061 2.551-.982 5.007-2.613 6.969l-12.406 12.617-4.356 4.446-.721.721c-6.128 4.957-11.866 5.017-16.882.241zm25.594 17.213c-2.172-1.917-3.659-4.491-4.236-7.33-.225-2.485.343-4.977 1.622-7.119.258-.475.571-.919.931-1.322l3.004-3.004 8.411-8.531c5.708-5.047 11.115-5.227 16.432-.601 1.954 1.711 3.17 4.112 3.395 6.699.553 3.558-.479 7.18-2.824 9.913l-.871.901-.24.18-4.806 5.107-3.755 3.995-.391.421-.24.27c-5.618 4.686-11.175 4.987-16.432.421zm25.924 15.44c-2.157-1.941-3.641-4.519-4.236-7.36-.163-1.701.063-3.416.661-5.017.371-1.045.931-2.012 1.652-2.854l1.892-1.983 4.146-4.416c5.557-4.716 10.844-4.836 16.041-.3 1.954 1.711 3.17 4.112 3.395 6.699.523 3.605-.577 7.257-3.004 9.973l-1.382 1.562-2.734 3.004c-.498.438-1.02.849-1.562 1.232-4.349 3.697-10.8 3.463-14.869-.54zm139.805-74.438c.125 3.546-.932 7.033-3.004 9.913-5.107 6.939-12.016 8.081-20.577 3.425l-6.008-4.115-37.34-26.165c-.449-.291-.967-.457-1.502-.481-1.659 0-3.004 1.345-3.004 3.004.015.888.422 1.724 1.112 2.283l37.37 26.195c3.114 2.398 5.181 5.907 5.768 9.793.15 3.549-.909 7.044-3.004 9.913-5.077 6.939-12.016 8.081-20.577 3.395l-38.421-27.036c-.482-.35-1.057-.548-1.652-.571-1.659 0-3.004 1.345-3.004 3.004.021.962.501 1.855 1.292 2.403l34.936 24.513c3.154 2.372 5.247 5.89 5.828 9.793.125 3.555-.932 7.052-3.004 9.943-5.107 6.909-12.016 8.051-20.577 3.395l-5.077-3.575-30.791-21.599c-.561-.622-1.356-.981-2.193-.991-1.659 0-3.004 1.345-3.004 3.004.015.994.521 1.917 1.352 2.463l31.272 21.929c3.16 2.379 5.254 5.909 5.828 9.823.127 3.565-.929 7.071-3.004 9.973-4.055 5.768-10.153 6.188-19.105 1.292l-15.801-11.085.841-.961c3.625-3.998 5.267-9.411 4.476-14.75-.408-4.056-2.327-7.809-5.377-10.514-3.933-3.78-9.445-5.434-14.81-4.446.464-2.181.565-4.424.3-6.639-.419-4.052-2.337-7.802-5.377-10.514-3.64-3.437-8.599-5.115-13.578-4.596.555-1.664.809-3.414.751-5.167-.402-4.415-2.374-8.54-5.557-11.625-7.3-6.999-16.432-6.999-25.264 0l-10.724 10.244-16.702-29.469-3.004-3.425-9.012-6.248 54.072-77.112c4.506 3.425 12.376 9.012 16.912 9.012 6.949.22 13.398.481 19.346.781-1.111.481-2.223.931-3.304 1.442l-20.788 12.376-16.732 9.012c-4.371 2.262-7.627 6.212-9.012 10.935-.997 4.382-.389 8.975 1.712 12.947 4.716 9.012 13.398 12.016 24.032 7.931 13.548-6.008 30.04-12.016 33.044-11.205 20.374 5.207 41.523 6.683 62.423 4.356 1.585-.221 3.194.165 4.506 1.081l11.716 8.291 35.297 24.753c3.062 2.378 5.104 5.838 5.704 9.672zm-10.784-20.638-27.036-18.865-11.535-8.381c-2.553-1.785-5.687-2.536-8.772-2.103-18.024 2.373-37.64.961-60.29-4.266-6.338-1.472-29.86 8.471-36.739 11.505-7.57 2.794-13.097 1.081-16.372-5.107-1.299-2.59-1.701-5.538-1.141-8.381.959-3.124 3.12-5.74 6.008-7.27l16.882-9.012 21.028-11.746c23.041-10.995 51.488-7.991 51.759-7.961h.451c4.536 0 12.406-5.647 16.912-9.012l54.072 77.052zm19.286.451c-.669.48-1.505.664-2.313.511-.851-.138-1.61-.615-2.103-1.322l-63.835-90.81c-1.021-1.432-.688-3.42.744-4.441.002-.002.004-.003.007-.005l81.258-57.076c22.8 32.383 31.992 63.084 27.276 90.901-5.708 33.915-30.551 54.823-41.004 62.243h-.03zm29.409-20.668c8.964-11.968 14.975-25.884 17.543-40.614 1.883-11.548 1.68-23.34-.601-34.816 14.428 10.188 26.445 23.416 35.207 38.751z"
                      fill="url(#Contour-28_1_)"></path>
            </g>
        </g>
    </g>
</svg>
