<!-- icon666.com - MILLIONS vector ICONS FREE -->
<svg id="Capa_1" enable-background="new 0 0 609.809 609.809" viewBox="0 0 609.809 609.809"
     xmlns="http://www.w3.org/2000/svg" xmlns:xlink="http://www.w3.org/1999/xlink">
    <linearGradient id="Contour_1_" gradientTransform="matrix(2.522 0 0 -2.522 3.335 1672.98)"
                    gradientUnits="userSpaceOnUse" x1="70.178" x2="189.507" y1="483.831" y2="603.161">
        <stop offset="0" stop-color="#ffb56b"></stop>
        <stop offset="1" stop-color="#bd5e00"></stop>
    </linearGradient>
    <linearGradient id="lg1">
        <stop offset="0" stop-color="#3d1f00"></stop>
        <stop offset="1" stop-color="#693400"></stop>
    </linearGradient>
    <linearGradient id="Contour-2_1_" gradientTransform="matrix(2.522 0 0 -2.522 3.335 1672.98)"
                    gradientUnits="userSpaceOnUse" x1="15.12" x2="20.158" xlink:href="#lg1" y1="575.537"
                    y2="580.575"></linearGradient>
    <linearGradient id="Contour-3_1_" gradientTransform="matrix(2.522 0 0 -2.522 3.335 1672.98)"
                    gradientUnits="userSpaceOnUse" x1="214.207" x2="219.245" xlink:href="#lg1" y1="582.213"
                    y2="587.251"></linearGradient>
    <linearGradient id="Contour-4_1_" gradientTransform="matrix(2.522 0 0 -2.522 3.335 1672.98)"
                    gradientUnits="userSpaceOnUse" x1="119.578" x2="124.616" xlink:href="#lg1" y1="422.577"
                    y2="427.615"></linearGradient>
    <linearGradient id="Contour-5_1_" gradientTransform="matrix(2.522 0 0 -2.522 3.335 1672.98)"
                    gradientUnits="userSpaceOnUse" x1="-.655" x2="1.679" xlink:href="#lg1" y1="463.681"
                    y2="466.016"></linearGradient>
    <linearGradient id="Contour-6_1_" gradientTransform="matrix(2.522 0 0 -2.522 3.335 1672.98)"
                    gradientUnits="userSpaceOnUse" x1="1.937" x2="4.212" xlink:href="#lg1" y1="466.234"
                    y2="468.521"></linearGradient>
    <linearGradient id="Contour-7_1_" gradientTransform="matrix(2.522 0 0 -2.522 3.335 1672.98)"
                    gradientUnits="userSpaceOnUse" x1="4.535" x2="6.809" xlink:href="#lg1" y1="463.732"
                    y2="466.019"></linearGradient>
    <linearGradient id="Contour-8_1_" gradientTransform="matrix(2.522 0 0 -2.522 3.335 1672.98)"
                    gradientUnits="userSpaceOnUse" x1="1.948" x2="4.223" xlink:href="#lg1" y1="461.185"
                    y2="463.46"></linearGradient>
    <linearGradient id="Contour-9_1_" gradientTransform="matrix(2.522 0 0 -2.522 3.335 1672.98)"
                    gradientUnits="userSpaceOnUse" x1="122.825" x2="125.148" xlink:href="#lg1" y1="657.838"
                    y2="660.16"></linearGradient>
    <linearGradient id="Contour-10_1_" gradientTransform="matrix(2.522 0 0 -2.522 3.335 1672.98)"
                    gradientUnits="userSpaceOnUse" x1="125.412" x2="127.686" xlink:href="#lg1" y1="660.385"
                    y2="662.671"></linearGradient>
    <linearGradient id="Contour-11_1_" gradientTransform="matrix(2.522 0 0 -2.522 3.335 1672.98)"
                    gradientUnits="userSpaceOnUse" x1="128.012" x2="130.299" xlink:href="#lg1" y1="657.868"
                    y2="660.154"></linearGradient>
    <linearGradient id="Contour-12_1_" gradientTransform="matrix(2.522 0 0 -2.522 3.335 1672.98)"
                    gradientUnits="userSpaceOnUse" x1="125.417" x2="127.691" xlink:href="#lg1" y1="655.342"
                    y2="657.616"></linearGradient>
    <linearGradient id="Contour-13_1_" gradientTransform="matrix(2.522 0 0 -2.522 3.335 1672.98)"
                    gradientUnits="userSpaceOnUse" x1="232.323" x2="234.645" xlink:href="#lg1" y1="498.281"
                    y2="500.604"></linearGradient>
    <linearGradient id="Contour-14_1_" gradientTransform="matrix(2.522 0 0 -2.522 3.335 1672.98)"
                    gradientUnits="userSpaceOnUse" x1="234.936" x2="237.211" xlink:href="#lg1" y1="500.813"
                    y2="503.088"></linearGradient>
    <linearGradient id="Contour-15_1_" gradientTransform="matrix(2.522 0 0 -2.522 3.335 1672.98)"
                    gradientUnits="userSpaceOnUse" x1="237.524" x2="239.811" xlink:href="#lg1" y1="498.31"
                    y2="500.584"></linearGradient>
    <linearGradient id="Contour-16_1_" gradientTransform="matrix(2.522 0 0 -2.522 3.335 1672.98)"
                    gradientUnits="userSpaceOnUse" x1="234.914" x2="237.189" xlink:href="#lg1" y1="495.785"
                    y2="498.06"></linearGradient>
    <linearGradient id="lg2">
        <stop offset="0" stop-color="#964b00"></stop>
        <stop offset="1" stop-color="#bd732a"></stop>
    </linearGradient>
    <linearGradient id="Contour-19_1_" gradientTransform="matrix(2.522 0 0 -2.522 3.335 1672.98)"
                    gradientUnits="userSpaceOnUse" x1="88.744" x2="157.748" xlink:href="#lg2" y1="439.268"
                    y2="508.272"></linearGradient>
    <linearGradient id="Contour-20_1_" gradientTransform="matrix(2.522 0 0 -2.522 3.335 1672.98)"
                    gradientUnits="userSpaceOnUse" x1="89.452" x2="145.309" xlink:href="#lg2" y1="572.369"
                    y2="628.226"></linearGradient>
    <linearGradient id="Contour-21_1_" gradientTransform="matrix(2.522 0 0 -2.522 3.335 1672.98)"
                    gradientUnits="userSpaceOnUse" x1="66.646" x2="75.067" xlink:href="#lg2" y1="562.303"
                    y2="570.725"></linearGradient>
    <linearGradient id="Contour-22_1_" gradientTransform="matrix(2.522 0 0 -2.522 3.335 1672.98)"
                    gradientUnits="userSpaceOnUse" x1="157.458" x2="166.971" xlink:href="#lg2" y1="561.772"
                    y2="571.285"></linearGradient>
    <linearGradient id="Contour-23_1_" gradientTransform="matrix(2.522 0 0 -2.522 3.331 1672.986)"
                    gradientUnits="userSpaceOnUse" x1="71.212" x2="83.509" xlink:href="#lg2" y1="566.753"
                    y2="579.05"></linearGradient>
    <linearGradient id="Contour-24_1_" gradientTransform="matrix(2.522 0 0 -2.522 3.374 1672.928)"
                    gradientUnits="userSpaceOnUse" x1="149.53" x2="162.793" xlink:href="#lg2" y1="566.264"
                    y2="579.527"></linearGradient>
    <linearGradient id="Contour-25_1_" gradientTransform="matrix(2.522 0 0 -2.522 3.335 1672.98)"
                    gradientUnits="userSpaceOnUse" x1="119.958" x2="124.234" xlink:href="#lg2" y1="535.344"
                    y2="539.62"></linearGradient>
    <linearGradient id="Contour-27_1_" gradientTransform="matrix(2.522 0 0 -2.522 3.335 1672.98)"
                    gradientUnits="userSpaceOnUse" x1="164.753" x2="186.596" xlink:href="#lg2" y1="454.263"
                    y2="476.119"></linearGradient>
    <linearGradient id="Contour-28_1_" gradientTransform="matrix(2.522 0 0 -2.522 3.335 1672.98)"
                    gradientUnits="userSpaceOnUse" x1="178.631" x2="192.661" xlink:href="#lg2" y1="446.745"
                    y2="460.775"></linearGradient>
    <linearGradient id="Contour-31_1_" gradientTransform="matrix(2.522 0 0 -2.522 3.335 1672.98)"
                    gradientUnits="userSpaceOnUse" x1="122.417" x2="136.078" xlink:href="#lg2" y1="506.377"
                    y2="520.038"></linearGradient>
    <linearGradient id="Contour-32_1_" gradientTransform="matrix(2.522 0 0 -2.522 3.335 1672.98)"
                    gradientUnits="userSpaceOnUse" x1="100.325" x2="110.411" xlink:href="#lg2" y1="508.146"
                    y2="518.22"></linearGradient>
    <linearGradient id="Contour-33_1_" gradientTransform="matrix(2.522 0 0 -2.522 3.335 1672.98)"
                    gradientUnits="userSpaceOnUse" x1="102.02" x2="107.523" xlink:href="#lg1" y1="567.498"
                    y2="573"></linearGradient>
    <linearGradient id="Contour-34_1_" gradientTransform="matrix(2.522 0 0 -2.522 3.335 1672.98)"
                    gradientUnits="userSpaceOnUse" x1="128.39" x2="133.892" xlink:href="#lg1" y1="567.498"
                    y2="573"></linearGradient>
    <linearGradient id="Contour-35_1_" gradientTransform="matrix(2.522 0 0 -2.522 3.335 1672.98)"
                    gradientUnits="userSpaceOnUse" x1="100.85" x2="108.651" xlink:href="#lg1" y1="575.324"
                    y2="583.125"></linearGradient>
    <linearGradient id="Contour-36_1_" gradientTransform="matrix(2.522 0 0 -2.522 3.335 1672.98)"
                    gradientUnits="userSpaceOnUse" x1="112.437" x2="122.965" xlink:href="#lg1" y1="543.573"
                    y2="554.101"></linearGradient>
    <linearGradient id="Contour-37_1_" gradientTransform="matrix(2.522 0 0 -2.522 3.335 1672.98)"
                    gradientUnits="userSpaceOnUse" x1="63.875" x2="189.299" xlink:href="#lg1" y1="460.859"
                    y2="586.294"></linearGradient>
    <linearGradient id="Contour-38_1_" gradientTransform="matrix(2.522 0 0 -2.522 3.335 1672.98)"
                    gradientUnits="userSpaceOnUse" x1="127.676" x2="134.504" xlink:href="#lg1" y1="575.856"
                    y2="582.673"></linearGradient>
    <linearGradient id="Contour-39_1_" gradientTransform="matrix(2.522 0 0 -2.522 3.335 1672.98)"
                    gradientUnits="userSpaceOnUse" x1="114.026" x2="121.685" xlink:href="#lg1" y1="554.263"
                    y2="561.921"></linearGradient>
    <g>
        <g id="Icon_39">
            <path id="Contour_34_"
                  d="m162.215 396.947c-1.749-3.249-5.373-5.024-9.012-4.416-17.724 3.004-68.761 4.566-72.726-74.889-4.807-96.338 111.988-260.867 283.456-228.153 137.763 26.285 34.906 157.319 119.288 190.393 49.386 19.346 94.025 118.567-15.651 204.752-59.298 46.591-211.51 87.775-305.355-87.687z"
                  fill="url(#Contour_1_)"></path>
            <path id="Contour-2_34_"
                  d="m47.823 224.037c-4.977 0-9.012-4.035-9.012-9.012s4.035-9.012 9.012-9.012 9.012 4.035 9.012 9.012-4.034 9.012-9.012 9.012zm0-12.016c-1.659 0-3.004 1.345-3.004 3.004s1.345 3.004 3.004 3.004 3.004-1.345 3.004-3.004-1.344-3.004-3.004-3.004z"
                  fill="url(#Contour-2_1_)"></path>
            <path id="Contour-3_34_"
                  d="m549.88 207.275c-4.977 0-9.012-4.035-9.012-9.012s4.035-9.012 9.012-9.012 9.012 4.035 9.012 9.012-4.035 9.012-9.012 9.012zm0-12.016c-1.659 0-3.004 1.345-3.004 3.004s1.345 3.004 3.004 3.004 3.004-1.345 3.004-3.004-1.345-3.004-3.004-3.004z"
                  fill="url(#Contour-3_1_)"></path>
            <path id="Contour-4_34_"
                  d="m311.303 609.809c-4.977 0-9.012-4.035-9.012-9.012s4.035-9.012 9.012-9.012 9.012 4.035 9.012 9.012-4.035 9.012-9.012 9.012zm0-12.016c-1.659 0-3.004 1.345-3.004 3.004s1.345 3.004 3.004 3.004 3.004-1.345 3.004-3.004-1.345-3.004-3.004-3.004z"
                  fill="url(#Contour-4_1_)"></path>
            <g id="Group_34_">
                <path id="Contour-5_34_"
                      d="m9.252 500.554c0-1.659-1.345-3.004-3.004-3.004h-3.244c-1.659 0-3.004 1.345-3.004 3.004s1.345 3.004 3.004 3.004h3.244c1.659 0 3.004-1.345 3.004-3.004z"
                      fill="url(#Contour-5_1_)"></path>
                <path id="Contour-6_34_"
                      d="m11.115 498.662c1.659 0 3.004-1.345 3.004-3.004v-3.244c-.126-1.565-1.434-2.769-3.004-2.764-1.57-.005-2.878 1.199-3.004 2.764v3.244c0 1.659 1.345 3.004 3.004 3.004z"
                      fill="url(#Contour-6_1_)"></path>
                <path id="Contour-7_34_"
                      d="m19.195 497.55h-3.244c-1.659 0-3.004 1.345-3.004 3.004s1.345 3.004 3.004 3.004h3.244c1.659 0 3.004-1.345 3.004-3.004s-1.344-3.004-3.004-3.004z"
                      fill="url(#Contour-7_1_)"></path>
                <path id="Contour-8_34_"
                      d="m11.115 502.417c-1.659 0-3.004 1.345-3.004 3.004v3.244c.126 1.565 1.434 2.769 3.004 2.764 1.57.005 2.878-1.199 3.004-2.764v-3.244c0-1.66-1.345-3.004-3.004-3.004z"
                      fill="url(#Contour-8_1_)"></path>
            </g>
            <g id="Group-2_34_">
                <path id="Contour-9_34_"
                      d="m320.675 10.874c0-1.659-1.345-3.004-3.004-3.004h-3.244c-1.659 0-3.004 1.345-3.004 3.004s1.345 3.004 3.004 3.004h3.244c1.659 0 3.004-1.345 3.004-3.004z"
                      fill="url(#Contour-9_1_)"></path>
                <path id="Contour-10_34_"
                      d="m322.508 9.012c1.659 0 3.004-1.345 3.004-3.004v-3.244c-.126-1.565-1.434-2.769-3.004-2.764-1.57-.005-2.878 1.199-3.004 2.764v3.244c0 1.659 1.345 3.004 3.004 3.004z"
                      fill="url(#Contour-10_1_)"></path>
                <path id="Contour-11_34_"
                      d="m330.619 7.87h-3.184c-1.659 0-3.004 1.345-3.004 3.004s1.345 3.004 3.004 3.004h3.244c1.659 0 3.004-1.345 3.004-3.004s-1.345-3.004-3.004-3.004z"
                      fill="url(#Contour-11_1_)"></path>
                <path id="Contour-12_34_"
                      d="m322.508 12.737c-1.659 0-3.004 1.345-3.004 3.004v3.244c.126 1.565 1.434 2.769 3.004 2.764 1.57.005 2.878-1.199 3.004-2.764v-3.244c0-1.659-1.345-3.004-3.004-3.004z"
                      fill="url(#Contour-12_1_)"></path>
            </g>
            <g id="Group-3_34_">
                <path id="Contour-13_34_"
                      d="m596.862 413.288c0-1.659-1.345-3.004-3.004-3.004h-3.244c-1.659 0-3.004 1.345-3.004 3.004s1.345 3.004 3.004 3.004h3.244c1.659 0 3.004-1.345 3.004-3.004z"
                      fill="url(#Contour-13_1_)"></path>
                <path id="Contour-14_34_"
                      d="m598.694 411.546c1.659 0 3.004-1.345 3.004-3.004v-3.244c-.126-1.565-1.434-2.769-3.004-2.764-1.57-.005-2.878 1.199-3.004 2.764v3.244c0 1.659 1.345 3.004 3.004 3.004z"
                      fill="url(#Contour-14_1_)"></path>
                <path id="Contour-15_34_"
                      d="m606.805 410.284h-3.244c-1.565.126-2.769 1.434-2.764 3.004-.005 1.57 1.199 2.878 2.764 3.004h3.244c1.659 0 3.004-1.345 3.004-3.004s-1.345-3.004-3.004-3.004z"
                      fill="url(#Contour-15_1_)"></path>
                <path id="Contour-16_34_"
                      d="m598.694 415.151c-1.659 0-3.004 1.345-3.004 3.004v3.244c.126 1.565 1.434 2.769 3.004 2.764 1.57.005 2.878-1.199 3.004-2.764v-3.244c0-1.659-1.345-3.004-3.004-3.004z"
                      fill="url(#Contour-16_1_)"></path>
            </g>
            <path id="Contour-17_34_"
                  d="m260.205 374.086v-45.841s-44.699-27.847-44.88-70.233c0 0-3.004 15.651-13.818 15.02-6.028.034-11.634-3.089-14.78-8.231 0 0-12.497-1.862-13.428-9.463-.931-7.6-2.704-36.048-2.704-36.048s5.587-11.445 11.716-8.321c0 0 13.067-23.401 30.25-.991l52.209-63.925 40.193 12.647s66.959 3.004 67.5 7.18 8.291 49.716 8.291 49.716 5.738-17.543 18.595-14.029 12.617 11.806 12.617 11.806 7.33-6.849 10.153 2.223c2.824 9.072-1.562 43.558-1.562 43.558-3.008 3.408-7.192 5.554-11.716 6.008 0 0-16.131 16.342-28.087-5.137-2.968 29.789-20.418 56.204-46.652 70.624l3.725 3.004v40.344c.001-.001-34.124 15.86-77.622.089z"
                  fill="#fff"></path>
            <path id="Contour-18_34_"
                  d="m269.187 374.086s-96.368 13.428-138.904 94.055c-.844 1.546-.549 3.465.721 4.686 11.325 10.724 68.281 59.419 169.365 60.08s157.409-49.175 168.433-60.08c1.23-1.218 1.512-3.101.691-4.626-42.506-80.687-139.054-94.115-139.054-94.115z"
                  fill="#fff"></path>
            <path id="Contour-19_34_"
                  d="m240.95 381.086s-70.473 81.528 9.282 122.923c17.207 8.727 36.282 13.13 55.574 12.827 47.643-.36 149.478-11.595 114.752-104.659 0 0 72.696 54.853 51.248 110.517l-166.841 10.154s-108.955 3.845-174.682-64.706c0-.001 36.138-66.359 110.667-87.056z"
                  fill="url(#Contour-19_1_)"></path>
            <path id="Contour-20_34_"
                  d="m215.175 215.596s-45.841-96.308 12.587-115.774c0 0 65.457-71.945 146.024-3.004 0 0 56.024 18.024 7.57 117.636 0 0-29.83-20.667-39.713-46.171 0 0-30.04 19.135-78.825 22.47l-4.987-18.024z"
                  fill="url(#Contour-20_1_)"></path>
            <path id="Contour-21_34_"
                  d="m185.706 264.351c-5.283.307-9.816-3.726-10.123-9.01 0-.001 0-.001 0-.002l-1.802-21.839c-.525-5.247 3.288-9.932 8.531-10.484z"
                  fill="url(#Contour-21_1_)"></path>
            <path id="Contour-22_34_"
                  d="m408.842 264.351c5.358.428 10.049-3.568 10.477-8.926.002-.028.004-.057.006-.085l1.802-21.839c.429-5.375-3.58-10.08-8.954-10.51-.019-.002-.038-.003-.058-.004z"
                  fill="url(#Contour-22_1_)"></path>
            <path id="Contour-23_34_"
                  d="m194.762 201.675 3.024-.248c5.589-.458 10.491 3.7 10.95 9.289l2.685 32.724c.459 5.589-3.7 10.491-9.289 10.95l-3.024.248c-5.589.459-10.491-3.7-10.95-9.289l-2.685-32.724c-.459-5.589 3.7-10.492 9.289-10.95z"
                  fill="url(#Contour-23_1_)"></path>
            <path id="Contour-24_34_"
                  d="m396.541 254.634-3.024-.248c-5.589-.459-9.748-5.361-9.289-10.95l2.685-32.724c.458-5.589 5.361-9.748 10.95-9.289l3.024.248c5.589.459 9.748 5.361 9.289 10.95l-2.685 32.724c-.459 5.588-5.361 9.747-10.95 9.289z"
                  fill="url(#Contour-24_1_)"></path>
            <path id="Contour-25_34_"
                  d="m307.067 312.685h8.441c2.538 0 4.596 2.058 4.596 4.596v.15c0 2.538-2.058 4.596-4.596 4.596h-8.441c-2.538 0-4.596-2.058-4.596-4.596v-.15c0-2.538 2.058-4.596 4.596-4.596z"
                  fill="url(#Contour-25_1_)"></path>
            <path id="Contour-26_33_"
                  d="m485.895 471.626h-54.252c-1.189 1.324-1.944 2.98-2.163 4.746-.871 3.785 0 .991 0 .991l-9.162.691-6.909-4.836-18.505-23.792-13.398-23.581c-1.891-2-4.549-3.094-7.3-3.004-4.356.3-7.69 7.69-5.377 18.204s7.059 24.032 7.059 24.032l-2.373 3.695-48.244.33c-4.94.608-8.451 5.106-7.843 10.046.047.38.118.758.213 1.129 0 0-.33 5.377 9.823 8.051-3.499 2.466-5.467 6.572-5.197 10.844.391 7.39 9.012 8.471 9.012 8.471s-7.48 5.017-6.008 11.325 9.823 8.201 9.823 8.201-6.459 4.746-5.708 9.012 2.794 9.012 9.793 9.012h55.844l24.993-11.265 8.471-.421 2.343 5.587 3.395.721 55.393-.781c1.006-11.401-.853-22.874-5.407-33.374 4.777-10.667 6.303-22.506 4.386-34.035h-2.702z"
                  fill="#fff"></path>
            <path id="Contour-27_33_"
                  d="m473.278 471.415s8.171 60.53-34.456 67.92h-7.991l-.961-5.467-.3-56.475s.691-5.317 3.425-5.738 40.283-.24 40.283-.24z"
                  fill="url(#Contour-27_1_)"></path>
            <path id="Contour-28_32_"
                  d="m473.909 539.936c7.584-9.697 11.26-21.882 10.304-34.155 0 0-5.377 22.92-37.219 33.555z"
                  fill="url(#Contour-28_1_)"></path>
            <path id="Contour-29_30_"
                  d="m354.891 375.859c-3.605 4.866-20.427 26.255-44.369 34.245-.883.289-1.833-.193-2.122-1.076-.004-.012-.008-.023-.011-.035l-9.012-28.988c-.249-.762.095-1.592.811-1.953l40.133-21.298c.716-.389 1.609-.198 2.103.451l12.467 16.672c.429.582.413 1.387 0 1.982z"
                  fill="#fff"></path>
            <path id="Contour-30_29_"
                  d="m243.924 376.309c3.575 4.806 20.307 25.924 44.159 33.795.879.276 1.816-.206 2.103-1.081l9.012-28.598c.249-.762-.095-1.592-.811-1.953l-40.043-20.998c-.723-.383-1.618-.178-2.103.481l-12.406 16.432c-.406.588-.369 1.374.089 1.922z"
                  fill="#fff"></path>
            <path id="Contour-31_26_" d="m309.41 373.095 12.016 32.173s28.268-14.78 33.314-31.392l-12.286-16.672z"
                  fill="url(#Contour-31_1_)"></path>
            <path id="Contour-32_26_" d="m288.953 373.095-12.016 32.173s-28.298-14.75-33.344-31.392l12.467-16.672z"
                  fill="url(#Contour-32_1_)"></path>
            <g id="Group-4_27_">
                <path id="Contour-33_25_"
                      d="m267.595 223.767c-3.97.017-7.18 3.24-7.18 7.21v7.48c.003 3.965 3.22 7.177 7.185 7.174 3.961-.003 7.171-3.213 7.174-7.174v-7.48c.001-3.971-3.209-7.194-7.179-7.21z"
                      fill="url(#Contour-33_1_)"></path>
                <path id="Contour-34_21_"
                      d="m334.103 223.767c-3.97.017-7.18 3.24-7.18 7.21v7.48c.003 3.965 3.22 7.177 7.185 7.174 3.961-.003 7.171-3.213 7.174-7.174v-7.48c.001-3.971-3.209-7.194-7.179-7.21z"
                      fill="url(#Contour-34_1_)"></path>
                <path id="Contour-35_18_"
                      d="m280.092 213.283c1.009.673 2.325.673 3.334 0 1.384-.915 1.765-2.778.85-4.162-.003-.004-.006-.009-.009-.013-.339-.474-.809-.84-1.352-1.051-10.187-4.226-21.797-3.205-31.091 2.734h-.18c-1.215 1.13-1.284 3.031-.154 4.245.804.864 2.039 1.178 3.158.801 7.576-4.897 17.046-5.847 25.444-2.554z"
                      fill="url(#Contour-35_1_)"></path>
                <path id="Contour-36_17_"
                      d="m324.22 291.146c1.347-.968 1.654-2.845.686-4.193-.239-.333-.544-.613-.896-.824-1.01-.576-2.262-.518-3.214.15-23.401 16.552-40.073.991-40.764.3-.151-.191-.334-.353-.541-.481-1.431-.839-3.272-.358-4.111 1.073-.002.003-.003.006-.005.008-.645 1.193-.411 2.67.571 3.605 6.601 5.708 15.006 8.9 23.732 9.012 8.884-.241 17.469-3.267 24.542-8.65z"
                      fill="url(#Contour-36_1_)"></path>
                <path id="Contour-37_16_"
                      d="m487.667 505c3.469-10.456 5.115-21.43 4.866-32.443-.017-2.162-1.774-3.905-3.935-3.905h-15.771c-.148-.644-.37-1.269-.661-1.862-29.018-55.033-81.678-79.846-114.151-90.36.524-1.471.276-3.107-.661-4.356l-12.437-16.642c-1.165-1.541-3.17-2.19-5.017-1.622l-.571-23.041c11.376-7.539 21.213-17.172 28.988-28.388 9.984-7.191 18.025-16.75 23.401-27.817.566.109 1.138.19 1.712.24h1.442c4.151-.001 8.167-1.481 11.325-4.176.978-.837 1.855-1.784 2.613-2.824h1.172c8.201-.018 15.025-6.307 15.711-14.479l2.343-28.538c.695-8.611-5.667-16.178-14.269-16.973-.455-.884-.999-1.719-1.622-2.493 9.523-49.806-7.059-77.503-9.493-81.108-.541-1.622-1.111-3.214-1.772-4.776-4.716-11.539-13.907-20.675-25.474-25.324-27.426-24.032-55.363-34.996-83.03-32.473-38.091 3.455-62.483 30.881-66.448 35.657-7.062 2.626-13.396 6.9-18.475 12.467-33.044 25.774-24.783 84.112-22.98 94.595l-.421.36c-.82.995-1.535 2.072-2.133 3.214-8.61.779-14.981 8.357-14.269 16.973l2.343 28.538c.671 8.167 7.486 14.46 15.681 14.479h1.172c.768 1.032 1.644 1.978 2.613 2.824 3.161 2.69 7.174 4.17 11.325 4.176h1.472c4.41-.386 8.516-2.412 11.505-5.678 5.107 24.513 23.611 45.901 43.408 59.629l-.601 25.564c-1.346.06-2.598.708-3.425 1.772l-12.647 16.282c-.941 1.199-1.213 2.793-.721 4.236-28.267 9.583-82.88 34.486-112.169 90.12-1.453 2.755-.901 6.14 1.352 8.291 10.604 10.063 68.761 60.23 171.407 60.831h1.802c8.471 0 16.612-.391 24.482-1.021-.129.714-.2 1.437-.21 2.163 0 3.725 1.622 10.123 12.497 11.295h47.042c5.655.355 11.318-.548 16.582-2.644l18.444-8.772 1.442-.33h4.115c.019 1.677.687 3.281 1.862 4.476 1.207 1.196 2.837 1.865 4.536 1.862h55.814c1.977.002 3.649-1.464 3.905-3.425 1.288-11.762-.438-23.66-5.011-34.574zm-146.985-145.062 11.055 14.78v.511c-4.506 6.008-19.766 24.032-40.734 31.572l-8.321-26.615zm36.588-73.838c2.278-5.271 3.99-10.769 5.107-16.402 1.094 1.087 2.326 2.027 3.665 2.794-2.37 4.869-5.315 9.438-8.772 13.608zm24.964-20.007c-2.25 1.9-5.141 2.867-8.081 2.704 2.805-7.346 4.613-15.034 5.377-22.86.085-.693-.074-1.394-.451-1.983-.957-1.355-2.831-1.678-4.187-.721-.696.492-1.151 1.256-1.251 2.103-.694 7.383-2.382 14.638-5.017 21.569-2.421-1.575-4.15-4.014-4.836-6.819 0-1.412 0-2.794 0-4.206v-5.467l3.004-35.267c.499-5.986 5.498-10.594 11.505-10.604h.961c6.336.542 11.046 6.097 10.544 12.437l-3.515 41.365c-.274 3.016-1.731 5.802-4.053 7.749zm13.427-48.574c.075-1 .075-2.004 0-3.004 4.074 1.516 6.648 5.55 6.308 9.883l-2.313 28.568c-.22 2.578-1.451 4.965-3.425 6.639-1.29 1.068-2.83 1.791-4.476 2.103.259-.985.44-1.99.541-3.004zm-9.012-16.703c-4.456-2.558-9.823-2.988-14.629-1.172 8.451-19.466 12.937-36.739 13.458-51.819 4.092 17.385 4.522 35.431 1.262 52.99zm-177.865-98.17.811-.3.511-.661c.24-.3 24.633-30.641 62.783-34.065 26.105-2.343 52.66 8.231 78.885 31.392l.481.421.631.21c10.193 3.995 18.289 12.014 22.38 22.169 9.012 20.697 3.845 51.068-14.569 88.077-.165.343-.473.596-.841.691-.312.091-.648.024-.901-.18-7.42-5.227-25.384-19.706-31.872-40.614-.592-1.968-2.07-3.546-3.995-4.266-.757-.294-1.561-.447-2.373-.451-1.217.002-2.411.334-3.455.961l-3.725 2.403c-10.724 7.059-28.658 18.865-70.744 19.256-.221-.002-.429-.101-.571-.27-.157-.171-.234-.4-.21-.631l1.142-9.012c.491-3.717-2.125-7.128-5.842-7.619-2.186-.289-4.376.503-5.873 2.122l-34.245 36.739c-.261.299-.662.437-1.051.36-.366-.066-.672-.316-.811-.661-5.467-12.587-22.26-55.934-10.153-84.112 4.361-10.36 12.957-18.354 23.607-21.959zm-32.774 31.963c-4.055 22.65 3.274 48.935 9.583 66.088-2.942-1.556-6.265-2.244-9.583-1.983-2.089.189-4.125.76-6.008 1.682-1.652-11.475-4.506-42.116 6.008-65.787zm-20.037 118.357-2.343-28.568c-.325-4.339 2.259-8.369 6.338-9.883-.09.999-.09 2.005 0 3.004l3.274 41.215c.075 1.015.246 2.021.511 3.004-4.266-.85-7.446-4.435-7.78-8.772zm25.775 15.831c-3.045.277-6.072-.699-8.381-2.704-2.352-1.93-3.834-4.721-4.115-7.75l-3.334-41.335c-.244-3.047.74-6.064 2.734-8.381 1.955-2.359 4.785-3.823 7.84-4.055h.961c6.001.012 10.991 4.623 11.475 10.604l3.395 41.215c.483 6.338-4.24 11.879-10.575 12.406zm16.612-12.918v-40.794c1.21-.311 2.318-.932 3.214-1.802l34.245-36.679c.224-.258.595-.332.901-.18.327.125.517.467.451.811l-1.111 9.012c-.262 1.957.341 3.931 1.652 5.407 1.263 1.52 3.162 2.364 5.137 2.283 43.828-.391 63.444-13.308 73.988-20.247 1.292-.841 2.463-1.622 3.545-2.283.179-.091.391-.091.571 0 .187.073.331.228.391.421 7.029 22.65 26.225 38.151 34.155 43.768.687.467 1.449.813 2.253 1.021v33.524l-.481 5.738c-.112 1.588-.011 3.185.3 4.746-1.208 13.586-5.94 26.622-13.728 37.82-12.323 8.436-26.485 13.802-41.305 15.651-1.408-4.408-5.497-7.405-10.123-7.42h-10.905c-5.898.313-10.426 5.348-10.113 11.246.29 5.461 4.652 9.823 10.113 10.113h10.904c4.835-.002 9.064-3.257 10.304-7.931 10.837-1.496 21.382-4.636 31.271-9.312-15.891 16.942-37.249 27.997-55.934 27.997-26.224 0-79.695-38.39-79.695-82.91zm98.741 61.492c-.017 2.576-2.11 4.656-4.686 4.656h-10.905c-2.58-.207-4.503-2.466-4.296-5.046.184-2.292 2.004-4.112 4.296-4.296h10.904c2.589 0 4.687 2.098 4.687 4.686zm-19.046 27.426c12.489-.393 24.669-3.971 35.387-10.394l.541 22.35-35.117 18.745-36.348-18.775.571-24.032c12.647 7.631 25.294 12.106 34.966 12.106zm-41.244 16.372h1.592l37.58 19.376-8.411 26.225c-19.466-6.759-34.095-22.38-39.983-29.439l-.871-2.854h-.24zm45.36 168.674h-1.772c-100.363-.601-156.988-49.416-167.322-59.178-.236-.333-.236-.779 0-1.111 28.928-54.823 83.661-78.855 110.547-87.686 7.089 8.411 22.56 24.302 43.468 31.091.466.153.952.234 1.442.24.755.003 1.498-.183 2.163-.541 1.12-.555 1.966-1.542 2.343-2.734l6.398-19.976 6.218 19.946c.385 1.195 1.227 2.189 2.343 2.764.657.35 1.389.536 2.133.541.5-.004.997-.085 1.472-.24 20.547-6.849 36.048-23.281 42.747-31.392 26.705 8.441 82.58 31.992 112.109 87.116h-33.555c-3.532.016-6.396 2.867-6.429 6.398-2.163 0-4.987 0-6.759 0-3.744-3.221-7.074-6.894-9.913-10.934-1.111-1.382-2.193-2.794-3.304-4.236s-2.734-3.605-4.176-5.317c-4.455-5.637-8.198-11.802-11.145-18.354-4.476-9.012-8.321-16.972-16.372-16.252-11.235 1.412-9.613 15.35-9.012 19.916v.661c1.246 8.596 3.651 16.983 7.149 24.933.064.122.064.268 0 .391-.095.044-.205.044-.3 0h-45.661c-3.491.089-6.801 1.571-9.192 4.115-1.986 2.441-3.05 5.504-3.004 8.651-.171 4.929 2.74 9.445 7.3 11.325-1.738 2.347-2.676 5.19-2.674 8.111-.105 4.395 2.2 8.497 6.008 10.694-1.986 2.441-3.05 5.504-3.004 8.651-.084 4.629 2.499 8.894 6.639 10.965-8.621.991-17.543 1.442-26.885 1.442zm119.979.721-2.794.571-19.346 9.012c-4.484 1.688-9.278 2.394-14.059 2.073h-46.501c-6.008-.691-6.969-3.004-6.969-5.317.008-.944.18-1.879.511-2.764.227-.643.563-1.242.991-1.772 1.246-1.303 2.945-2.077 4.746-2.163h21.028c1.055.006 2.035-.541 2.583-1.442.839-1.431.358-3.272-1.073-4.111-.003-.002-.006-.003-.008-.005-.464-.239-.981-.352-1.502-.33h-24.513c-6.849-.811-6.939-5.287-6.969-6.699-.011-1.636.517-3.23 1.502-4.536 1.246-1.303 2.945-2.077 4.746-2.163h23.611c1.065.017 2.06-.532 2.613-1.442.832-1.436.342-3.274-1.094-4.105-.006-.003-.012-.007-.018-.01-.461-.249-.978-.373-1.502-.36h-25.894c-6.008-.721-6.909-4.206-6.969-6.729-.002-1.635.525-3.226 1.502-4.536 1.255-1.29 2.949-2.062 4.746-2.163h25.233c1.658-.043 2.968-1.423 2.924-3.082-.027-1.012-.561-1.943-1.422-2.476-.461-.249-.978-.373-1.502-.36h-29.139c-6.008-.721-6.909-4.206-6.969-6.699-.007-1.635.521-3.228 1.502-4.536 1.246-1.303 2.945-2.077 4.746-2.163h45.661c2.083-.006 4.034-1.026 5.227-2.734 1.285-1.821 1.513-4.185.601-6.218-3.244-7.391-5.497-15.179-6.699-23.161v-.721c-1.021-8.712.15-12.797 3.755-13.278h.33c3.425 0 6.008 4.957 10.003 12.947 3.185 7.007 7.22 13.596 12.016 19.616 1.382 1.622 2.704 3.334 3.995 5.047 1.292 1.712 2.283 3.004 3.364 4.296 10.184 13.518 13.368 13.338 14.539 13.278 1.172-.06 4.566 0 6.849 0v49.536zm10.424 6.248c-.09-.075-.144-.184-.15-.3v-61.432c0-.232.188-.421.421-.421h53.801c-.21 21.028-5.648 36.889-16.191 47.523-13.158 13.218-30.702 14.75-37.881 14.63zm54.072 0h-27.036c5.585-2.596 10.669-6.155 15.02-10.514 3.878-3.976 7.12-8.525 9.613-13.488 2.337 7.813 3.213 15.991 2.583 24.122z"
                      fill="url(#Contour-37_1_)"></path>
                <path id="Contour-38_15_"
                      d="m321.577 213.283c8.319-3.182 17.657-2.212 25.143 2.613.929.537 2.075.537 3.004 0 1.384-.915 1.765-2.778.85-4.162-.003-.004-.006-.009-.009-.013-.253-.376-.593-.685-.991-.901-9.283-5.939-20.884-6.96-31.061-2.734-.191.038-.374.109-.541.21-1.384.915-1.765 2.778-.85 4.162.003.004.006.009.009.013.851 1.424 2.696 1.888 4.12 1.036.113-.066.222-.142.326-.224z"
                      fill="url(#Contour-38_1_)"></path>
                <path id="Contour-39_13_"
                      d="m283.156 263.69c-.609.974-.609 2.21 0 3.184 6.464 9.548 19.445 12.047 28.993 5.583 2.199-1.489 4.094-3.384 5.583-5.583.832-1.436.342-3.273-1.094-4.105-.006-.003-.012-.007-.018-.01-1.37-.764-3.097-.345-3.965.961-4.564 6.827-13.799 8.661-20.626 4.097-1.621-1.084-3.013-2.476-4.097-4.097-.25-.376-.578-.693-.961-.931-1.32-.685-2.942-.302-3.815.901z"
                      fill="url(#Contour-39_1_)"></path>
            </g>
        </g>
    </g>
</svg>
