<!-- icon666.com - MILLIONS vector ICONS FREE -->
<svg id="Capa_1" enable-background="new 0 0 610.049 610.049" viewBox="0 0 610.049 610.049"
     xmlns="http://www.w3.org/2000/svg" xmlns:xlink="http://www.w3.org/1999/xlink">
    <linearGradient id="Contour_1_" gradientTransform="matrix(2.522 0 0 -2.522 3.152 1672.98)"
                    gradientUnits="userSpaceOnUse" x1="70.364" x2="189.705" y1="483.73" y2="603.059">
        <stop offset="0" stop-color="#ffb56b"></stop>
        <stop offset="1" stop-color="#bd5e00"></stop>
    </linearGradient>
    <linearGradient id="lg1">
        <stop offset="0" stop-color="#3d1f00"></stop>
        <stop offset="1" stop-color="#693400"></stop>
    </linearGradient>
    <linearGradient id="Contour-2_1_" gradientTransform="matrix(2.522 0 0 -2.522 3.152 1672.98)"
                    gradientUnits="userSpaceOnUse" x1="-.153" x2="4.885" xlink:href="#lg1" y1="568.714"
                    y2="573.764"></linearGradient>
    <linearGradient id="Contour-3_1_" gradientTransform="matrix(2.522 0 0 -2.522 3.152 1672.98)"
                    gradientUnits="userSpaceOnUse" x1="208.058" x2="213.108" xlink:href="#lg1" y1="617.064"
                    y2="622.102"></linearGradient>
    <linearGradient id="Contour-4_1_" gradientTransform="matrix(2.522 0 0 -2.522 3.152 1672.98)"
                    gradientUnits="userSpaceOnUse" x1="134.951" x2="139.989" xlink:href="#lg1" y1="422.49"
                    y2="427.528"></linearGradient>
    <linearGradient id="Contour-5_1_" gradientTransform="matrix(2.522 0 0 -2.522 3.152 1672.98)"
                    gradientUnits="userSpaceOnUse" x1="23.211" x2="25.534" xlink:href="#lg1" y1="469.044"
                    y2="471.379"></linearGradient>
    <linearGradient id="Contour-6_1_" gradientTransform="matrix(2.522 0 0 -2.522 3.152 1672.98)"
                    gradientUnits="userSpaceOnUse" x1="25.804" x2="28.078" xlink:href="#lg1" y1="471.597"
                    y2="473.872"></linearGradient>
    <linearGradient id="Contour-7_1_" gradientTransform="matrix(2.522 0 0 -2.522 3.152 1672.98)"
                    gradientUnits="userSpaceOnUse" x1="28.395" x2="30.682" xlink:href="#lg1" y1="469.089"
                    y2="471.376"></linearGradient>
    <linearGradient id="Contour-8_1_" gradientTransform="matrix(2.522 0 0 -2.522 3.152 1672.98)"
                    gradientUnits="userSpaceOnUse" x1="25.808" x2="28.083" xlink:href="#lg1" y1="466.542"
                    y2="468.829"></linearGradient>
    <linearGradient id="Contour-9_1_" gradientTransform="matrix(2.522 0 0 -2.522 3.152 1672.98)"
                    gradientUnits="userSpaceOnUse" x1="92.604" x2="94.926" xlink:href="#lg1" y1="657.748"
                    y2="660.071"></linearGradient>
    <linearGradient id="Contour-10_1_" gradientTransform="matrix(2.522 0 0 -2.522 3.152 1672.98)"
                    gradientUnits="userSpaceOnUse" x1="95.164" x2="97.451" xlink:href="#lg1" y1="660.309"
                    y2="662.596"></linearGradient>
    <linearGradient id="Contour-11_1_" gradientTransform="matrix(2.522 0 0 -2.522 3.152 1672.98)"
                    gradientUnits="userSpaceOnUse" x1="97.785" x2="100.071" xlink:href="#lg1" y1="657.784"
                    y2="660.071"></linearGradient>
    <linearGradient id="Contour-12_1_" gradientTransform="matrix(2.522 0 0 -2.522 3.152 1672.98)"
                    gradientUnits="userSpaceOnUse" x1="95.215" x2="97.502" xlink:href="#lg1" y1="655.22"
                    y2="657.495"></linearGradient>
    <linearGradient id="Contour-13_1_" gradientTransform="matrix(2.522 0 0 -2.522 3.152 1672.98)"
                    gradientUnits="userSpaceOnUse" x1="232.446" x2="234.768" xlink:href="#lg1" y1="494.109"
                    y2="496.444"></linearGradient>
    <linearGradient id="Contour-14_1_" gradientTransform="matrix(2.522 0 0 -2.522 3.152 1672.98)"
                    gradientUnits="userSpaceOnUse" x1="235.035" x2="237.31" xlink:href="#lg1" y1="496.665"
                    y2="498.952"></linearGradient>
    <linearGradient id="Contour-15_1_" gradientTransform="matrix(2.522 0 0 -2.522 3.152 1672.98)"
                    gradientUnits="userSpaceOnUse" x1="237.624" x2="239.911" xlink:href="#lg1" y1="494.16"
                    y2="496.447"></linearGradient>
    <linearGradient id="Contour-16_1_" gradientTransform="matrix(2.522 0 0 -2.522 3.152 1672.98)"
                    gradientUnits="userSpaceOnUse" x1="235.04" x2="237.315" xlink:href="#lg1" y1="491.622"
                    y2="493.897"></linearGradient>
    <linearGradient id="lg2">
        <stop offset="0" stop-color="#964b00"></stop>
        <stop offset="1" stop-color="#bd732a"></stop>
    </linearGradient>
    <linearGradient id="Contour-18_1_" gradientTransform="matrix(2.522 0 0 -2.522 3.152 1672.98)"
                    gradientUnits="userSpaceOnUse" x1="51.587" x2="134.323" xlink:href="#lg2" y1="470.634"
                    y2="553.369"></linearGradient>
    <linearGradient id="Contour-20_1_" gradientTransform="matrix(2.522 0 0 -2.522 3.152 1672.98)"
                    gradientUnits="userSpaceOnUse" x1="87.398" x2="104.311" xlink:href="#lg2" y1="492.335"
                    y2="509.248"></linearGradient>
    <linearGradient id="Contour-22_1_" gradientTransform="matrix(2.522 0 0 -2.522 3.152 1672.98)"
                    gradientUnits="userSpaceOnUse" x1="166.01" x2="187.693" xlink:href="#lg2" y1="486.939"
                    y2="508.622"></linearGradient>
    <linearGradient id="Contour-23_1_" gradientTransform="matrix(2.522 0 0 -2.522 3.152 1672.98)"
                    gradientUnits="userSpaceOnUse" x1="179.65" x2="192.299" xlink:href="#lg2" y1="554.79"
                    y2="567.438"></linearGradient>
    <linearGradient id="Contour-24_1_" gradientTransform="matrix(2.522 0 0 -2.522 3.152 1672.98)"
                    gradientUnits="userSpaceOnUse" x1="175.081" x2="203.312" xlink:href="#lg2" y1="489.612"
                    y2="517.842"></linearGradient>
    <linearGradient id="Contour-25_1_" gradientTransform="matrix(2.522 0 0 -2.522 3.152 1672.98)"
                    gradientUnits="userSpaceOnUse" x1="184.671" x2="205.55" xlink:href="#lg2" y1="520.827"
                    y2="541.706"></linearGradient>
    <linearGradient id="Contour-26_1_" gradientTransform="matrix(2.522 0 0 -2.522 3.152 1672.98)"
                    gradientUnits="userSpaceOnUse" x1="172.347" x2="188.26" xlink:href="#lg2" y1="561.616"
                    y2="577.529"></linearGradient>
    <linearGradient id="Contour-28_1_" gradientTransform="matrix(2.522 0 0 -2.522 3.152 1672.98)"
                    gradientUnits="userSpaceOnUse" x1="174.949" x2="203.184" xlink:href="#lg2" y1="462.292"
                    y2="490.538"></linearGradient>
    <linearGradient id="Contour-29_1_" gradientTransform="matrix(2.522 0 0 -2.522 3.152 1672.98)"
                    gradientUnits="userSpaceOnUse" x1="73.949" x2="125.127" xlink:href="#lg1" y1="553.829"
                    y2="605.008"></linearGradient>
    <linearGradient id="Contour-30_1_" gradientTransform="matrix(2.522 0 0 -2.522 3.152 1672.98)"
                    gradientUnits="userSpaceOnUse" x1="75.805" x2="127.006" xlink:href="#lg1" y1="544.101"
                    y2="595.302"></linearGradient>
    <linearGradient id="Contour-31_1_" gradientTransform="matrix(2.522 0 0 -2.522 3.152 1672.98)"
                    gradientUnits="userSpaceOnUse" x1="77.69" x2="128.884" xlink:href="#lg1" y1="534.338"
                    y2="585.52"></linearGradient>
    <linearGradient id="Contour-32_1_" gradientTransform="matrix(2.522 0 0 -2.522 3.152 1672.98)"
                    gradientUnits="userSpaceOnUse" x1="79.586" x2="130.8" xlink:href="#lg1" y1="524.478"
                    y2="575.692"></linearGradient>
    <linearGradient id="Contour-33_1_" gradientTransform="matrix(2.522 0 0 -2.522 3.152 1672.98)"
                    gradientUnits="userSpaceOnUse" x1="121.223" x2="143.185" xlink:href="#lg1" y1="530.84"
                    y2="552.803"></linearGradient>
    <linearGradient id="Contour-34_1_" gradientTransform="matrix(2.522 0 0 -2.522 3.152 1672.98)"
                    gradientUnits="userSpaceOnUse" x1="81.336" x2="109.267" xlink:href="#lg1" y1="484.987"
                    y2="512.918"></linearGradient>
    <linearGradient id="Contour-35_1_" gradientTransform="matrix(2.522 0 0 -2.522 3.152 1672.98)"
                    gradientUnits="userSpaceOnUse" x1="110.405" x2="115.122" xlink:href="#lg1" y1="511.312"
                    y2="516.029"></linearGradient>
    <linearGradient id="Contour-36_1_" gradientTransform="matrix(2.522 0 0 -2.522 3.152 1672.98)"
                    gradientUnits="userSpaceOnUse" x1="66.929" x2="99.766" xlink:href="#lg1" y1="490.777"
                    y2="523.614"></linearGradient>
    <linearGradient id="Contour-37_1_" gradientTransform="matrix(2.522 0 0 -2.522 3.152 1672.98)"
                    gradientUnits="userSpaceOnUse" x1="86.539" x2="105.143" xlink:href="#lg1" y1="491.518"
                    y2="510.122"></linearGradient>
    <linearGradient id="Contour-38_1_" gradientTransform="matrix(2.522 0 0 -2.522 3.152 1672.98)"
                    gradientUnits="userSpaceOnUse" x1="53.671" x2="181.01" xlink:href="#lg1" y1="466.711"
                    y2="594.049"></linearGradient>
    <linearGradient id="Contour-39_1_" gradientTransform="matrix(2.522 0 0 -2.522 3.152 1672.98)"
                    gradientUnits="userSpaceOnUse" x1="80.857" x2="111.478" xlink:href="#lg1" y1="579.098"
                    y2="609.708"></linearGradient>
    <linearGradient id="Contour-40_1_" gradientTransform="matrix(2.522 0 0 -2.522 3.152 1672.98)"
                    gradientUnits="userSpaceOnUse" x1="86.78" x2="116.931" xlink:href="#lg1" y1="470.868"
                    y2="501.019"></linearGradient>
    <linearGradient id="Contour-41_1_" gradientTransform="matrix(2.522 0 0 -2.522 3.152 1672.98)"
                    gradientUnits="userSpaceOnUse" x1="126.124" x2="146.842" xlink:href="#lg1" y1="514.713"
                    y2="535.443"></linearGradient>
    <linearGradient id="Contour-42_1_" gradientTransform="matrix(2.522 0 0 -2.522 3.152 1672.98)"
                    gradientUnits="userSpaceOnUse" x1="149.058" x2="154.453" xlink:href="#lg1" y1="533.941"
                    y2="539.336"></linearGradient>
    <g>
        <g id="Icon_26">
            <path id="Contour"
                  d="m162.516 397.187c-1.736-3.263-5.37-5.043-9.012-4.416-17.724 3.004-68.761 4.566-72.726-74.889-4.807-96.338 111.988-260.866 283.485-228.153 137.733 26.285 34.906 157.319 119.288 190.393 49.386 19.346 94.025 118.567-15.651 204.752-59.238 46.591-211.57 87.776-305.384-87.687z"
                  fill="url(#Contour_1_)"></path>
            <path id="Contour-2"
                  d="m9.132 241.22c-4.977 0-9.012-4.035-9.012-9.012s4.035-9.012 9.012-9.012 9.012 4.035 9.012 9.012-4.035 9.012-9.012 9.012zm0-12.016c-1.659 0-3.004 1.345-3.004 3.004s1.345 3.004 3.004 3.004 3.004-1.345 3.004-3.004c-.033-1.636-1.368-2.944-3.004-2.944z"
                  fill="url(#Contour-2_1_)"></path>
            <path id="Contour-3"
                  d="m534.289 119.288c-4.977 0-9.012-4.035-9.012-9.012s4.035-9.012 9.012-9.012 9.012 4.035 9.012 9.012-4.035 9.012-9.012 9.012zm0-12.016c-1.659 0-3.004 1.345-3.004 3.004s1.345 3.004 3.004 3.004 3.004-1.345 3.004-3.004c-.016-1.647-1.357-2.974-3.004-2.974z"
                  fill="url(#Contour-3_1_)"></path>
            <path id="Contour-4"
                  d="m349.874 610.049c-4.977 0-9.012-4.035-9.012-9.012s4.035-9.012 9.012-9.012 9.012 4.035 9.012 9.012-4.035 9.012-9.012 9.012zm0-12.016c-1.659 0-3.004 1.345-3.004 3.004s1.345 3.004 3.004 3.004 3.004-1.345 3.004-3.004-1.345-3.004-3.004-3.004z"
                  fill="url(#Contour-4_1_)"></path>
            <g id="Group">
                <path id="Contour-5"
                      d="m69.212 487.036c0-1.659-1.345-3.004-3.004-3.004h-3.184c-1.659 0-3.004 1.345-3.004 3.004s1.345 3.004 3.004 3.004h3.184c1.659 0 3.004-1.345 3.004-3.004z"
                      fill="url(#Contour-5_1_)"></path>
                <path id="Contour-6"
                      d="m71.104 485.174c1.659 0 3.004-1.345 3.004-3.004v-3.244c-.126-1.565-1.434-2.769-3.004-2.764-1.57-.005-2.878 1.199-3.004 2.764v3.244c0 1.659 1.345 3.004 3.004 3.004z"
                      fill="url(#Contour-6_1_)"></path>
                <path id="Contour-7"
                      d="m79.215 484.032h-3.244c-1.659 0-3.004 1.345-3.004 3.004s1.345 3.004 3.004 3.004h3.244c1.659 0 3.004-1.345 3.004-3.004s-1.345-3.004-3.004-3.004z"
                      fill="url(#Contour-7_1_)"></path>
                <path id="Contour-8"
                      d="m71.104 488.899c-1.659 0-3.004 1.345-3.004 3.004v3.244c.126 1.565 1.434 2.769 3.004 2.764 1.57.005 2.878-1.199 3.004-2.764v-3.244c0-1.66-1.345-3.004-3.004-3.004z"
                      fill="url(#Contour-8_1_)"></path>
            </g>
            <g id="Group-2">
                <path id="Contour-9"
                      d="m244.254 11.115c0-1.659-1.345-3.004-3.004-3.004h-3.244c-1.659 0-3.004 1.345-3.004 3.004s1.345 3.004 3.004 3.004h3.244c1.659 0 3.004-1.345 3.004-3.004z"
                      fill="url(#Contour-9_1_)"></path>
                <path id="Contour-10"
                      d="m246.117 9.252c1.659 0 3.004-1.345 3.004-3.004v-3.244c0-1.659-1.345-3.004-3.004-3.004s-3.004 1.345-3.004 3.004v3.244c0 1.659 1.344 3.004 3.004 3.004z"
                      fill="url(#Contour-10_1_)"></path>
                <path id="Contour-11"
                      d="m254.227 8.111h-3.244c-1.659 0-3.004 1.345-3.004 3.004s1.345 3.004 3.004 3.004h3.244c1.659 0 3.004-1.345 3.004-3.004s-1.345-3.004-3.004-3.004z"
                      fill="url(#Contour-11_1_)"></path>
                <path id="Contour-12"
                      d="m246.117 12.977c-1.659 0-3.004 1.345-3.004 3.004v3.244c0 1.659 1.345 3.004 3.004 3.004s3.004-1.345 3.004-3.004v-3.244c-.001-1.659-1.345-3.004-3.004-3.004z"
                      fill="url(#Contour-12_1_)"></path>
            </g>
            <g id="Group-3">
                <path id="Contour-13"
                      d="m596.982 423.802c0-1.659-1.345-3.004-3.004-3.004h-3.244c-1.659 0-3.004 1.345-3.004 3.004s1.345 3.004 3.004 3.004h3.244c1.659 0 3.004-1.345 3.004-3.004z"
                      fill="url(#Contour-13_1_)"></path>
                <path id="Contour-14"
                      d="m598.814 421.94c1.659 0 3.004-1.345 3.004-3.004v-3.244c-.126-1.565-1.434-2.769-3.004-2.764-1.57-.005-2.878 1.199-3.004 2.764v3.244c0 1.659 1.345 3.004 3.004 3.004z"
                      fill="url(#Contour-14_1_)"></path>
                <path id="Contour-15"
                      d="m606.925 420.798h-3.244c-1.659 0-3.004 1.345-3.004 3.004s1.345 3.004 3.004 3.004h3.244c1.659 0 3.004-1.345 3.004-3.004s-1.345-3.004-3.004-3.004z"
                      fill="url(#Contour-15_1_)"></path>
                <path id="Contour-16"
                      d="m598.814 425.665c-1.659 0-3.004 1.345-3.004 3.004v3.244c.126 1.565 1.434 2.769 3.004 2.764 1.57.005 2.878-1.199 3.004-2.764v-3.244c0-1.659-1.345-3.004-3.004-3.004z"
                      fill="url(#Contour-16_1_)"></path>
            </g>
            <path id="Contour-17"
                  d="m310.041 103.577 61.401-11.836c.83-.163 1.635.378 1.798 1.209.001.008.003.015.004.023l72.696 377.06-275.045 52.9c-.831.16-1.634-.384-1.794-1.215-.003-.016-.006-.031-.008-.047l-72.395-375.497c-.165-.846.386-1.666 1.232-1.832l61.401-11.716z"
                  fill="#fff"></path>
            <path id="Contour-18"
                  d="m112.139 210.519s55.994 268.016 198.864 253.657c0 0 105.62-11.385 113.761-104.058l21.028 109.886-276.697 51.789z"
                  fill="url(#Contour-18_1_)"></path>
            <circle id="Contour-19" cx="243.473" cy="414.52" fill="#fff" r="62.753"></circle>
            <path id="Contour-20"
                  d="m270.929 393.582c.089.407.002.833-.24 1.172l-29.349 43.378c-.482.711-1.449.899-2.163.421l-25.384-17.153c-.347-.24-.584-.607-.661-1.021-.089-.407-.002-.833.24-1.172l4.987-7.42c.241-.332.592-.566.991-.661.407-.063.823.022 1.172.24l15.861 10.664c.46.326 1.098.217 1.424-.244.006-.009.012-.018.018-.027l22.92-33.795c.482-.711 1.449-.899 2.163-.421l7.36 4.987c.354.247.593.627.661 1.052z"
                  fill="url(#Contour-20_1_)"></path>
            <path id="Contour-21"
                  d="m463.966 426.806-59.719-.3-2.704-18.985h-19.286s-8.351-16.702 12.406-22.77c0 0-1.832-6.999 12.707-10.184 0 0 38.872-14.389 36.619-70.894v-34.095h-9.523l-8.531-12.827 9.192-3.004s-19.015-43.858 29.018-50.106c0 0 47.103 4.957 28.748 50.527h9.372l-10.844 15.29h-6.519v45.661s-.601 36.709 24.242 52.359l19.526 9.372s6.489 1.021 5.497 9.883c0 0 22.5 4.656 10.754 22.32h-18.024v13.488l-5.347 5.047z"
                  fill="#fff"></path>
            <path id="Contour-22" d="m495.567 409.173v19.556h-89.819l-4.205-6.068v-15.11z"
                  fill="url(#Contour-22_1_)"></path>
            <path id="Contour-23" d="m443.989 254.317 8.141 15.261h39.292l5.287-4.657 3.965-10.604z"
                  fill="url(#Contour-23_1_)"></path>
            <path id="Contour-24"
                  d="m428.368 390.007s-15.651.15-15.651 16.071l1.352 1.202h129.472s6.278 2.223 4.176-6.218c-2.103-8.441-16.161-14.209-16.161-14.209z"
                  fill="url(#Contour-24_1_)"></path>
            <path id="Contour-25"
                  d="m484.453 269.578s-16.672-4.506-16.672 0c0 76.632 4.866 88.467 25.324 113.971l34.516 4.206s12.166.601 3.665-8.471c-6.125-5.792-13.829-9.638-22.139-11.055-.002-.001-32.475-21.779-24.694-98.651z"
                  fill="url(#Contour-25_1_)"></path>
            <path id="Contour-26"
                  d="m435.127 253.777c-3.016-5.03-4.557-10.808-4.446-16.672 0-18.475 20.758-33.434 20.758-33.434 18.482.005 33.46 14.992 33.455 33.474-.002 6.001-1.617 11.891-4.677 17.053z"
                  fill="url(#Contour-26_1_)"></path>
            <path id="Contour-27"
                  d="m386.132 464.716h155.697c3.467 0 6.278 2.811 6.278 6.278v1.802c0 7.88-6.388 14.269-14.269 14.269h-139.715c-7.881 0-14.269-6.388-14.269-14.269v-1.802c0-3.467 2.811-6.278 6.278-6.278z"
                  fill="#fff"></path>
            <path id="Contour-28"
                  d="m428.038 483.882s-15.651-.15-15.651-16.071l1.352-1.202h129.472s6.308-2.223 4.206 6.188c-2.103 8.411-16.191 14.239-16.191 14.239z"
                  fill="url(#Contour-28_1_)"></path>
            <g id="Group-4">
                <path id="Contour-29"
                      d="m359.397 194.268c1.659-.149 2.883-1.615 2.734-3.274s-1.615-2.883-3.274-2.734c-.19-.017-.381-.017-.571 0l-209.348 40.464c-1.433.277-2.46 1.544-2.433 3.004 0 1.659 1.345 3.004 3.004 3.004.19.014.381.014.571 0z"
                      fill="url(#Contour-29_1_)"></path>
                <path id="Contour-30"
                      d="m364.143 218.87c1.433-.277 2.46-1.544 2.433-3.004 0-1.659-1.345-3.004-3.004-3.004-.18-.014-.361-.014-.541 0l-209.348 40.464c-1.433.277-2.46 1.544-2.433 3.004 0 1.659 1.345 3.004 3.004 3.004.19.014.381.014.571 0z"
                      fill="url(#Contour-30_1_)"></path>
                <path id="Contour-31"
                      d="m368.889 243.563c1.433-.277 2.46-1.544 2.433-3.004 0-1.659-1.345-3.004-3.004-3.004-.179-.028-.362-.028-.541 0l-209.347 40.374c-1.433.277-2.46 1.544-2.433 3.004 0 1.659 1.345 3.004 3.004 3.004.18.014.361.014.541 0z"
                      fill="url(#Contour-31_1_)"></path>
                <path id="Contour-32"
                      d="m373.696 268.316c1.433-.277 2.46-1.544 2.433-3.004 0-1.659-1.345-3.004-3.004-3.004-.19-.014-.381-.014-.571 0l-209.318 40.524c-1.433.277-2.46 1.544-2.433 3.004 0 1.659 1.345 3.004 3.004 3.004.18.014.361.014.541 0l209.348-40.344z"
                      fill="url(#Contour-32_1_)"></path>
                <path id="Contour-33"
                      d="m293.099 311.633c-1.433.277-2.46 1.544-2.433 3.004 0 1.659 1.345 3.004 3.004 3.004.18.014.361.014.541 0l85.734-16.552c1.659-.158 2.876-1.63 2.719-3.289-.158-1.659-1.63-2.876-3.289-2.719-.18-.014-.361-.014-.541 0z"
                      fill="url(#Contour-33_1_)"></path>
                <path id="Contour-34"
                      d="m271.41 373.275c-22.795-15.395-53.755-9.396-69.15 13.4-15.395 22.795-9.396 53.755 13.4 69.15 8.207 5.543 17.88 8.513 27.784 8.531 3.197.001 6.386-.311 9.523-.931 27.007-5.221 44.668-31.347 39.447-58.354-2.502-12.943-10.033-24.366-20.943-31.765zm15.02 33.044c4.549 23.757-11.022 46.704-34.779 51.254-23.757 4.549-46.704-11.022-51.254-34.779-4.549-23.757 11.022-46.704 34.779-51.254.012-.002.024-.005.036-.007 2.761-.538 5.568-.809 8.381-.811 20.96.055 38.944 14.953 42.897 35.537z"
                      fill="url(#Contour-34_1_)"></path>
                <path id="Contour-35"
                      d="m302.201 403.225c.277 1.433 1.544 2.46 3.004 2.433 1.659 0 3.004-1.345 3.004-3.004.016-.18.016-.361 0-.541-4.259-22.328-19.791-40.85-41.034-48.935-.335-.133-.691-.204-1.051-.21-1.659 0-3.004 1.345-3.004 3.004.004 1.239.767 2.348 1.923 2.794 19.289 7.345 33.382 24.178 37.219 44.459z"
                      fill="url(#Contour-35_1_)"></path>
                <path id="Contour-36"
                      d="m195.65 450.327c-5.45-7.215-9.151-15.595-10.814-24.482-6.184-32.482 15.134-63.826 47.615-70.011 5.83-1.11 11.792-1.347 17.691-.703h.33c1.659.091 3.078-1.18 3.169-2.839s-1.18-3.078-2.839-3.169c-36.083-4.111-68.667 21.807-72.779 57.891-1.899 16.667 2.644 33.431 12.699 46.858.548.751 1.414 1.206 2.343 1.232 1.659 0 3.004-1.345 3.004-3.004-.015-.643-.236-1.264-.631-1.772z"
                      fill="url(#Contour-36_1_)"></path>
                <path id="Contour-37"
                      d="m271.951 390.128-7.48-4.987c-2.062-1.422-4.887-.903-6.309 1.159-.01.014-.019.028-.029.043l-21.809 32.173-14.239-9.583c-.999-.688-2.237-.938-3.425-.691-1.222.204-2.307.898-3.004 1.923l-4.987 7.39c-.673.994-.922 2.216-.691 3.395.19 1.227.888 2.317 1.923 3.004l25.534 17.093c.75.518 1.642.79 2.553.781 1.518 0 2.936-.754 3.785-2.013l29.349-43.378c.686-.989.936-2.216.691-3.395-.192-1.187-.866-2.242-1.862-2.914zm-32.293 45.059-22.98-15.531 3.364-4.866 14.659 9.853c1.837 1.282 4.365.832 5.646-1.005.031-.045.062-.09.091-.137l22.079-32.593 4.957 3.365z"
                      fill="url(#Contour-37_1_)"></path>
                <path id="Contour-38"
                      d="m530.053 422.661v-10.484h12.016c5.126 0 9.282-4.156 9.282-9.282v-1.802c-.02-8.515-6.243-15.744-14.659-17.033-.391-6.188-6.368-9.493-9.823-10.364-42.296-15.02-39.562-61.131-39.412-63.294v-37.82h3.935c2.425-.017 4.68-1.246 6.008-3.274l7.059-10.935c1.394-2.102.82-4.935-1.282-6.329-.759-.504-1.652-.768-2.563-.761h-3.004c7.85-18.548-.823-39.948-19.371-47.798s-39.948.823-47.798 19.371c-1.908 4.508-2.888 9.353-2.884 14.248.037 4.88 1.059 9.703 3.004 14.179h-3.274c-2.538-.008-4.602 2.044-4.61 4.582-.003.889.253 1.76.735 2.507l7.089 10.935c1.328 2.029 3.583 3.258 6.008 3.274h4.446v38.03c0 .361 1.592 25.774-13.939 45.3l-50.797-263.51c-.217-1.217-.908-2.298-1.923-3.004-1.002-.681-2.237-.931-3.425-.691l-273.483 52.72c-2.465.45-4.098 2.812-3.648 5.276.004.024.009.047.013.071l72.366 375.498c.217 1.217.908 2.297 1.923 3.004.75.518 1.642.79 2.553.781.29.031.582.031.871 0l210.85-40.644c3.197 3.005 7.418 4.68 11.806 4.686h139.715c9.521-.016 17.24-7.722 17.273-17.243v-1.802c0-5.126-4.156-9.282-9.282-9.282h-94.445l-6.008-31.872h81.438c3.965.033 7.206-3.154 7.24-7.119.001-.039.001-.079 0-.119zm15.381-21.569v1.802c0 1.808-1.466 3.274-3.274 3.274h-155.697c-1.808 0-3.274-1.466-3.274-3.274v-1.802c.017-6.198 5.037-11.218 11.235-11.235h139.745c6.209 0 11.248 5.025 11.265 11.235zm-111.749-163.987c.528-16.815 14.587-30.017 31.402-29.489 16.073.505 28.984 13.416 29.489 29.489-.006 4.949-1.233 9.819-3.575 14.179h-53.741c-2.341-4.36-3.569-9.231-3.575-14.179zm1.863 28.928-5.647-8.742h68.16l-5.647 8.742c-.224.33-.593.531-.991.541h-54.883c-.346-.049-.653-.247-.841-.541zm-7.12 97.329c20.427-21.779 18.535-52.72 18.505-52.96v-37.82h34.486v37.61c0 .511-3.244 52.69 43.648 69.092.24 0 4.626 1.232 5.467 4.416h-132.776c.811-3.004 4.866-4.266 5.648-4.476 7.196-2.496 13.882-6.272 19.736-11.145 1.858-1.462 3.623-3.037 5.286-4.717zm20.127 104.359h93.274c1.808 0 3.274 1.466 3.274 3.274v1.802c-.017 6.21-5.055 11.235-11.265 11.235h-139.715c-6.189-.049-11.2-5.046-11.265-11.235v-1.802c0-1.808 1.466-3.274 3.274-3.274zm-7.3-6.008h-55.123c-5.126 0-9.282 4.156-9.282 9.282v1.802c0 2.481.543 4.931 1.592 7.18l-206.674 39.953-71.855-372.795 270.659-52.179 51.368 266.484c-5.783 5.451-12.666 9.599-20.187 12.166-3.665.961-9.673 4.266-10.093 10.484-8.34 1.354-14.471 8.553-14.479 17.003v1.802c0 5.126 4.156 9.282 9.282 9.282h12.016v10.484c.033 3.947 3.233 7.133 7.18 7.149h29.379zm-1.171-37.911h-34.426c-.652 0-1.185-.52-1.202-1.172v-10.484h119.499v10.484c0 .647-.524 1.172-1.172 1.172z"
                      fill="url(#Contour-38_1_)"></path>
                <path id="Contour-39"
                      d="m184.475 188.5c.19.014.381.014.571 0l122.352-23.581c1.659-.158 2.876-1.63 2.719-3.289-.158-1.659-1.63-2.876-3.289-2.719-.18-.014-.361-.014-.541 0l-122.382 23.641c-1.445.264-2.487 1.535-2.463 3.004.032 1.647 1.385 2.961 3.033 2.944z"
                      fill="url(#Contour-39_1_)"></path>
                <path id="Contour-40"
                      d="m305.896 418.335c-1.538-.009-2.835 1.145-3.004 2.674-3.58 32.804-33.074 56.495-65.878 52.915-11.272-1.23-21.962-5.642-30.82-12.722-.516-.429-1.162-.672-1.832-.691-1.659.03-2.98 1.398-2.95 3.057.016.876.413 1.701 1.087 2.26 11.615 9.32 26.053 14.415 40.944 14.449 4.183-.003 8.356-.395 12.467-1.172 28.389-5.359 49.903-28.704 52.93-57.436.014-.11.014-.221 0-.33 0-1.636-1.309-2.971-2.944-3.004z"
                      fill="url(#Contour-40_1_)"></path>
                <path id="Contour-41"
                      d="m386.913 338.399c1.412-4.146-5.107-6.008-6.519-1.802-.71 2.638-1.781 5.166-3.184 7.51-1.292 3.605-4.266 3.455-8.832-.451-.451-3.515-5.527-4.866-6.639-.901v.931.511c-.27 6.489-3.004 8.021-8.561 4.446.27-4.115-5.317-4.145-6.639-.871-2.313 5.738-6.969 14.089-13.338 16.312-4.446 3.364-9.002 1.452-13.668-5.738-1.742-7.91 1.943-11.005 11.055-9.282-.391 4.326 6.368 4.296 6.759 0 .825-5.748-3.165-11.076-8.913-11.901-1.438-.206-2.904-.113-4.304.276-10.184 2.463-12.527 15.801-11.055 24.482 1.682 9.823 8.291 13.878 17.814 10.874 7.245-2.575 13.378-7.573 17.363-14.149 1.313 2.55 4.018 4.073 6.879 3.875 4.566-.18 7.72-4.145 9.853-8.591 1.749 2.662 4.912 4.032 8.051 3.485 7.78-1.052 11.775-12.828 13.878-19.016z"
                      fill="url(#Contour-41_1_)"></path>
                <path id="Contour-42"
                      d="m381.626 326.203c4.621-1.656 8.752-4.445 12.016-8.111 2.824-3.274-1.923-8.081-4.776-4.776-2.425 2.842-5.523 5.031-9.012 6.368-4.236 1.472-2.463 7.991 1.772 6.519z"
                      fill="url(#Contour-42_1_)"></path>
            </g>
        </g>
    </g>
</svg>
