<!-- icon666.com - MILLIONS vector ICONS FREE -->
<svg id="Capa_1" enable-background="new 0 0 609.809 609.809" viewBox="0 0 609.809 609.809"
     xmlns="http://www.w3.org/2000/svg" xmlns:xlink="http://www.w3.org/1999/xlink">
    <linearGradient id="Contour_1_" gradientTransform="matrix(2.522 0 0 -2.522 3.335 1677.175)"
                    gradientUnits="userSpaceOnUse" x1="70.244" x2="189.585" y1="485.488" y2="604.818">
        <stop offset="0" stop-color="#ffb56b"></stop>
        <stop offset="1" stop-color="#bd5e00"></stop>
    </linearGradient>
    <linearGradient id="lg1">
        <stop offset="0" stop-color="#3d1f00"></stop>
        <stop offset="1" stop-color="#693400"></stop>
    </linearGradient>
    <linearGradient id="Contour-2_1_" gradientTransform="matrix(2.522 0 0 -2.522 3.335 1677.175)"
                    gradientUnits="userSpaceOnUse" x1="28.059" x2="33.097" xlink:href="#lg1" y1="475.348"
                    y2="480.386"></linearGradient>
    <linearGradient id="Contour-3_1_" gradientTransform="matrix(2.522 0 0 -2.522 3.335 1677.175)"
                    gradientUnits="userSpaceOnUse" x1="95.032" x2="100.07" xlink:href="#lg1" y1="658.9"
                    y2="663.938"></linearGradient>
    <linearGradient id="Contour-4_1_" gradientTransform="matrix(2.522 0 0 -2.522 3.335 1677.175)"
                    gradientUnits="userSpaceOnUse" x1="234.358" x2="239.396" xlink:href="#lg1" y1="513.282"
                    y2="518.32"></linearGradient>
    <linearGradient id="Contour-5_1_" gradientTransform="matrix(2.522 0 0 -2.522 3.335 1677.175)"
                    gradientUnits="userSpaceOnUse" x1="-.652" x2="1.683" xlink:href="#lg1" y1="585.577"
                    y2="587.9"></linearGradient>
    <linearGradient id="Contour-6_1_" gradientTransform="matrix(2.522 0 0 -2.522 3.335 1677.175)"
                    gradientUnits="userSpaceOnUse" x1="1.949" x2="4.225" xlink:href="#lg1" y1="588.12"
                    y2="590.396"></linearGradient>
    <linearGradient id="Contour-7_1_" gradientTransform="matrix(2.522 0 0 -2.522 3.335 1677.175)"
                    gradientUnits="userSpaceOnUse" x1="4.56" x2="6.835" xlink:href="#lg1" y1="585.604"
                    y2="587.879"></linearGradient>
    <linearGradient id="Contour-8_1_" gradientTransform="matrix(2.522 0 0 -2.522 3.335 1677.175)"
                    gradientUnits="userSpaceOnUse" x1="1.944" x2="4.219" xlink:href="#lg1" y1="583.079"
                    y2="585.354"></linearGradient>
    <linearGradient id="Contour-9_1_" gradientTransform="matrix(2.522 0 0 -2.522 3.335 1677.175)"
                    gradientUnits="userSpaceOnUse" x1="214.487" x2="216.81" xlink:href="#lg1" y1="613.098"
                    y2="615.421"></linearGradient>
    <linearGradient id="Contour-10_1_" gradientTransform="matrix(2.522 0 0 -2.522 3.335 1677.175)"
                    gradientUnits="userSpaceOnUse" x1="217.066" x2="219.352" xlink:href="#lg1" y1="615.653"
                    y2="617.928"></linearGradient>
    <linearGradient id="Contour-11_1_" gradientTransform="matrix(2.522 0 0 -2.522 3.335 1677.175)"
                    gradientUnits="userSpaceOnUse" x1="219.703" x2="221.978" xlink:href="#lg1" y1="613.111"
                    y2="615.386"></linearGradient>
    <linearGradient id="Contour-12_1_" gradientTransform="matrix(2.522 0 0 -2.522 3.335 1677.175)"
                    gradientUnits="userSpaceOnUse" x1="217.101" x2="219.388" xlink:href="#lg1" y1="610.567"
                    y2="612.854"></linearGradient>
    <linearGradient id="Contour-13_1_" gradientTransform="matrix(2.522 0 0 -2.522 3.335 1677.175)"
                    gradientUnits="userSpaceOnUse" x1="140.482" x2="142.805" xlink:href="#lg1" y1="426.338"
                    y2="428.661"></linearGradient>
    <linearGradient id="Contour-14_1_" gradientTransform="matrix(2.522 0 0 -2.522 3.335 1677.175)"
                    gradientUnits="userSpaceOnUse" x1="143.072" x2="145.347" xlink:href="#lg1" y1="428.894"
                    y2="431.169"></linearGradient>
    <linearGradient id="Contour-15_1_" gradientTransform="matrix(2.522 0 0 -2.522 3.335 1677.175)"
                    gradientUnits="userSpaceOnUse" x1="145.663" x2="147.95" xlink:href="#lg1" y1="426.386"
                    y2="428.673"></linearGradient>
    <linearGradient id="Contour-16_1_" gradientTransform="matrix(2.522 0 0 -2.522 3.335 1677.175)"
                    gradientUnits="userSpaceOnUse" x1="143.077" x2="145.351" xlink:href="#lg1" y1="423.839"
                    y2="426.126"></linearGradient>
    <linearGradient id="lg2">
        <stop offset="0" stop-color="#964b00"></stop>
        <stop offset="1" stop-color="#bd732a"></stop>
    </linearGradient>
    <linearGradient id="Contour-18_1_" gradientTransform="matrix(2.522 0 0 -2.522 3.343 1677.133)"
                    gradientUnits="userSpaceOnUse" x1="44.959" x2="124.747" xlink:href="#lg2" y1="486.009"
                    y2="565.786"></linearGradient>
    <linearGradient id="Contour-20_1_" gradientTransform="matrix(2.522 0 0 -2.522 3.357 1677.23)"
                    gradientUnits="userSpaceOnUse" x1="133.953" x2="188.788" xlink:href="#lg2" y1="498.5"
                    y2="553.335"></linearGradient>
    <linearGradient id="Contour-22_1_" gradientTransform="matrix(2.522 0 0 -2.522 3.336 1677.196)"
                    gradientUnits="userSpaceOnUse" x1="88.386" x2="156.358" xlink:href="#lg2" y1="493.325"
                    y2="561.297"></linearGradient>
    <linearGradient id="Contour-24_1_" gradientTransform="matrix(2.522 0 0 -2.522 3.335 1677.175)"
                    gradientUnits="userSpaceOnUse" x1="59.7" x2="66.978" xlink:href="#lg2" y1="502.999"
                    y2="510.276"></linearGradient>
    <linearGradient id="Contour-25_1_" gradientTransform="matrix(2.522 0 0 -2.522 3.335 1677.175)"
                    gradientUnits="userSpaceOnUse" x1="178.542" x2="185.819" xlink:href="#lg2" y1="502.999"
                    y2="510.276"></linearGradient>
    <linearGradient id="Contour-26_1_" gradientTransform="matrix(2.522 0 0 -2.522 3.335 1677.175)"
                    gradientUnits="userSpaceOnUse" x1="59.998" x2="66.68" xlink:href="#lg2" y1="621.34"
                    y2="628.022"></linearGradient>
    <linearGradient id="Contour-27_1_" gradientTransform="matrix(2.522 0 0 -2.522 3.335 1677.175)"
                    gradientUnits="userSpaceOnUse" x1="178.839" x2="185.521" xlink:href="#lg2" y1="621.34"
                    y2="628.022"></linearGradient>
    <linearGradient id="Contour-28_1_" gradientTransform="matrix(2.522 0 0 -2.522 3.335 1677.175)"
                    gradientUnits="userSpaceOnUse" x1="70.139" x2="155.41" xlink:href="#lg2" y1="505.541"
                    y2="590.824"></linearGradient>
    <linearGradient id="Contour-33_1_" gradientTransform="matrix(2.522 0 0 -2.522 3.335 1677.175)"
                    gradientUnits="userSpaceOnUse" x1="89.585" x2="101.814" xlink:href="#lg2" y1="543.773"
                    y2="556.002"></linearGradient>
    <linearGradient id="Contour-35_1_" gradientTransform="matrix(2.522 0 0 -2.522 3.335 1677.175)"
                    gradientUnits="userSpaceOnUse" x1="146.131" x2="167.503" xlink:href="#lg2" y1="561.125"
                    y2="582.497"></linearGradient>
    <linearGradient id="Contour-36_1_" gradientTransform="matrix(2.522 0 0 -2.522 3.335 1677.175)"
                    gradientUnits="userSpaceOnUse" x1="116.131" x2="131.246" xlink:href="#lg2" y1="537.885"
                    y2="552.999"></linearGradient>
    <linearGradient id="Contour-37_1_" gradientTransform="matrix(2.522 0 0 -2.522 3.335 1677.175)"
                    gradientUnits="userSpaceOnUse" x1="145.586" x2="149.266" xlink:href="#lg2" y1="596.412"
                    y2="600.092"></linearGradient>
    <linearGradient id="Contour-38_1_" gradientTransform="matrix(2.522 0 0 -2.522 3.335 1677.175)"
                    gradientUnits="userSpaceOnUse" x1="158.687" x2="162.367" xlink:href="#lg2" y1="592.053"
                    y2="595.733"></linearGradient>
    <linearGradient id="Contour-39_1_" gradientTransform="matrix(2.522 0 0 -2.522 3.335 1677.175)"
                    gradientUnits="userSpaceOnUse" x1="81.549" x2="88.689" xlink:href="#lg2" y1="599.504"
                    y2="606.644"></linearGradient>
    <linearGradient id="Contour-40_1_" gradientTransform="matrix(2.522 0 0 -2.522 3.335 1677.175)"
                    gradientUnits="userSpaceOnUse" x1="70.56" x2="104.616" xlink:href="#lg1" y1="577.776"
                    y2="611.832"></linearGradient>
    <linearGradient id="Contour-41_1_" gradientTransform="matrix(2.522 0 0 -2.522 3.335 1677.175)"
                    gradientUnits="userSpaceOnUse" x1="94.723" x2="179.86" xlink:href="#lg1" y1="524.096"
                    y2="609.244"></linearGradient>
    <linearGradient id="Contour-42_1_" gradientTransform="matrix(2.522 0 0 -2.522 3.335 1677.175)"
                    gradientUnits="userSpaceOnUse" x1="115.942" x2="131.866" xlink:href="#lg1" y1="537.573"
                    y2="553.485"></linearGradient>
    <linearGradient id="Contour-43_1_" gradientTransform="matrix(2.522 0 0 -2.522 3.335 1677.175)"
                    gradientUnits="userSpaceOnUse" x1="81.252" x2="93.636" xlink:href="#lg1" y1="594.083"
                    y2="606.467"></linearGradient>
    <linearGradient id="Contour-44_1_" gradientTransform="matrix(2.522 0 0 -2.522 3.335 1677.175)"
                    gradientUnits="userSpaceOnUse" x1="152.41" x2="154.09" xlink:href="#lg1" y1="607.012"
                    y2="608.692"></linearGradient>
    <linearGradient id="Contour-45_1_" gradientTransform="matrix(2.522 0 0 -2.522 3.335 1677.175)"
                    gradientUnits="userSpaceOnUse" x1="106.014" x2="107.705" xlink:href="#lg1" y1="562.128"
                    y2="563.819"></linearGradient>
    <linearGradient id="Contour-46_1_" gradientTransform="matrix(2.522 0 0 -2.522 3.335 1677.175)"
                    gradientUnits="userSpaceOnUse" x1="75.732" x2="77.411" xlink:href="#lg1" y1="608.203"
                    y2="609.883"></linearGradient>
    <linearGradient id="Contour-47_1_" gradientTransform="matrix(2.522 0 0 -2.522 3.335 1677.175)"
                    gradientUnits="userSpaceOnUse" x1="82.202" x2="92.665" xlink:href="#lg1" y1="576.918"
                    y2="587.38"></linearGradient>
    <linearGradient id="Contour-48_1_" gradientTransform="matrix(2.522 0 0 -2.522 3.335 1677.175)"
                    gradientUnits="userSpaceOnUse" x1="82.202" x2="92.665" xlink:href="#lg1" y1="581.682"
                    y2="592.145"></linearGradient>
    <linearGradient id="Contour-49_1_" gradientTransform="matrix(2.522 0 0 -2.522 3.335 1677.175)"
                    gradientUnits="userSpaceOnUse" x1="142.682" x2="166.117" xlink:href="#lg1" y1="584.851"
                    y2="608.286"></linearGradient>
    <linearGradient id="Contour-50_1_" gradientTransform="matrix(2.522 0 0 -2.522 3.335 1677.175)"
                    gradientUnits="userSpaceOnUse" x1="48.567" x2="197.214" xlink:href="#lg1" y1="469.357"
                    y2="618.004"></linearGradient>
    <linearGradient id="Contour-51_1_" gradientTransform="matrix(2.522 0 0 -2.522 3.335 1677.175)"
                    gradientUnits="userSpaceOnUse" x1="97.903" x2="99.594" xlink:href="#lg1" y1="608.293"
                    y2="609.984"></linearGradient>
    <linearGradient id="Contour-52_1_" gradientTransform="matrix(2.522 0 0 -2.522 3.335 1677.175)"
                    gradientUnits="userSpaceOnUse" x1="139.363" x2="141.054" xlink:href="#lg1" y1="562.128"
                    y2="563.819"></linearGradient>
    <g>
        <g id="Icon_33">
            <path id="Contour_40_"
                  d="m162.395 396.947c-1.736-3.263-5.37-5.043-9.012-4.416-17.724 3.004-68.761 4.566-72.726-74.889-4.806-96.338 111.989-260.867 283.486-228.153 137.733 26.285 34.906 157.319 119.288 190.393 49.386 19.346 94.025 118.567-15.651 204.752-59.238 46.591-211.57 87.775-305.385-87.687z"
                  fill="url(#Contour_1_)"></path>
            <path id="Contour-2_37_"
                  d="m80.477 480.908c-4.977 0-9.012-4.035-9.012-9.012s4.035-9.012 9.012-9.012 9.012 4.035 9.012 9.012-4.035 9.012-9.012 9.012zm0-12.016c-1.659 0-3.004 1.345-3.004 3.004s1.345 3.004 3.004 3.004 3.004-1.345 3.004-3.004-1.345-3.004-3.004-3.004z"
                  fill="url(#Contour-2_1_)"></path>
            <path id="Contour-3_37_"
                  d="m249.331 18.024c-4.977 0-9.012-4.035-9.012-9.012s4.035-9.012 9.012-9.012 9.012 4.035 9.012 9.012-4.035 9.012-9.012 9.012zm0-12.016c-1.659 0-3.004 1.345-3.004 3.004s1.345 3.004 3.004 3.004 3.004-1.345 3.004-3.004-1.345-3.004-3.004-3.004z"
                  fill="url(#Contour-3_1_)"></path>
            <path id="Contour-4_37_"
                  d="m600.797 385.231c-4.977 0-9.012-4.035-9.012-9.012s4.035-9.012 9.012-9.012 9.012 4.035 9.012 9.012-4.035 9.012-9.012 9.012zm0-12.016c-1.659 0-3.004 1.345-3.004 3.004s1.345 3.004 3.004 3.004 3.004-1.345 3.004-3.004-1.345-3.004-3.004-3.004z"
                  fill="url(#Contour-4_1_)"></path>
            <g id="Group_37_">
                <path id="Contour-5_37_"
                      d="m9.252 197.332c0-1.659-1.345-3.004-3.004-3.004h-3.244c-1.659 0-3.004 1.345-3.004 3.004s1.345 3.004 3.004 3.004h3.244c1.659 0 3.004-1.345 3.004-3.004z"
                      fill="url(#Contour-5_1_)"></path>
                <path id="Contour-6_37_"
                      d="m11.115 195.469c1.659 0 3.004-1.345 3.004-3.004v-3.214c-.126-1.565-1.434-2.769-3.004-2.764-1.57-.005-2.878 1.199-3.004 2.764v3.244c.016 1.648 1.356 2.974 3.004 2.974z"
                      fill="url(#Contour-6_1_)"></path>
                <path id="Contour-7_37_"
                      d="m19.195 194.328h-3.244c-1.565.126-2.769 1.434-2.764 3.004-.005 1.57 1.199 2.878 2.764 3.004h3.244c1.659 0 3.004-1.345 3.004-3.004s-1.344-3.004-3.004-3.004z"
                      fill="url(#Contour-7_1_)"></path>
                <path id="Contour-8_37_"
                      d="m11.115 199.164c-1.659 0-3.004 1.345-3.004 3.004v3.244c.126 1.565 1.434 2.769 3.004 2.764 1.57.005 2.878-1.199 3.004-2.764v-3.244c0-1.659-1.345-3.004-3.004-3.004z"
                      fill="url(#Contour-8_1_)"></path>
            </g>
            <g id="Group-2_37_">
                <path id="Contour-9_37_"
                      d="m551.862 127.91c0-1.659-1.345-3.004-3.004-3.004h-3.244c-1.659 0-3.004 1.345-3.004 3.004s1.345 3.004 3.004 3.004h3.244c1.659 0 3.004-1.345 3.004-3.004z"
                      fill="url(#Contour-9_1_)"></path>
                <path id="Contour-10_37_"
                      d="m553.725 126.167c1.659 0 3.004-1.345 3.004-3.004v-3.334c0-1.659-1.345-3.004-3.004-3.004s-3.004 1.345-3.004 3.004v3.334c0 1.659 1.344 3.004 3.004 3.004z"
                      fill="url(#Contour-10_1_)"></path>
                <path id="Contour-11_37_"
                      d="m561.745 124.906h-3.004c-1.565.126-2.769 1.434-2.764 3.004-.005 1.57 1.199 2.878 2.764 3.004h3.004c1.659 0 3.004-1.345 3.004-3.004s-1.345-3.004-3.004-3.004z"
                      fill="url(#Contour-11_1_)"></path>
                <path id="Contour-12_37_"
                      d="m553.725 129.772c-1.659 0-3.004 1.345-3.004 3.004v3.244c0 1.659 1.345 3.004 3.004 3.004s3.004-1.345 3.004-3.004v-3.244c0-1.659-1.345-3.004-3.004-3.004z"
                      fill="url(#Contour-12_1_)"></path>
            </g>
            <g id="Group-3_37_">
                <path id="Contour-13_37_"
                      d="m365.225 598.935c0-1.659-1.345-3.004-3.004-3.004h-3.244c-1.659 0-3.004 1.345-3.004 3.004s1.345 3.004 3.004 3.004h3.244c1.659 0 3.004-1.345 3.004-3.004z"
                      fill="url(#Contour-13_1_)"></path>
                <path id="Contour-14_37_"
                      d="m367.057 597.072c1.659 0 3.004-1.345 3.004-3.004v-3.214c-.111-1.576-1.424-2.798-3.004-2.794-1.58-.004-2.893 1.217-3.004 2.794v3.214c0 1.659 1.345 3.004 3.004 3.004z"
                      fill="url(#Contour-14_1_)"></path>
                <path id="Contour-15_37_"
                      d="m375.168 595.931h-3.244c-1.659 0-3.004 1.345-3.004 3.004s1.345 3.004 3.004 3.004h3.244c1.659 0 3.004-1.345 3.004-3.004s-1.345-3.004-3.004-3.004z"
                      fill="url(#Contour-15_1_)"></path>
                <path id="Contour-16_37_"
                      d="m367.057 600.797c-1.659 0-3.004 1.345-3.004 3.004v3.244c.126 1.565 1.434 2.769 3.004 2.764 1.57.005 2.878-1.199 3.004-2.764v-3.244c0-1.659-1.345-3.004-3.004-3.004z"
                      fill="url(#Contour-16_1_)"></path>
            </g>
            <path id="Contour-17_37_"
                  d="m250.99 190.862-60.862 321.178c-.769 4.059-4.683 6.726-8.742 5.957-2.853-.541-4.727-3.291-4.186-6.144l61.275-323.362c.655-3.456 3.987-5.726 7.443-5.071 3.456.654 5.726 3.987 5.072 7.442z"
                  fill="#fff"></path>
            <path id="Contour-18_37_"
                  d="m251.98 186.107-62.511 329.885c-.389 2.054-2.37 3.403-4.424 3.014-1.434-.272-2.377-1.655-2.105-3.089l62.724-331.006c.331-1.744 2.012-2.89 3.757-2.56 1.744.33 2.89 2.012 2.559 3.756z"
                  fill="url(#Contour-18_1_)"></path>
            <path id="Contour-19_37_"
                  d="m389.191 188.44 61.298 323.48c.541 2.853-1.334 5.603-4.186 6.144-4.059.769-7.973-1.898-8.742-5.957l-60.884-321.296c-.655-3.456 1.616-6.788 5.071-7.443 3.456-.654 6.788 1.616 7.443 5.072z"
                  fill="#fff"></path>
            <path id="Contour-20_37_"
                  d="m382.051 184.958 62.724 331.006c.272 1.434-.671 2.818-2.105 3.089-2.054.389-4.034-.96-4.424-3.014l-62.511-329.885c-.331-1.744.815-3.426 2.56-3.757 1.744-.33 3.426.816 3.756 2.561z"
                  fill="url(#Contour-20_1_)"></path>
            <path id="Contour-21_37_"
                  d="m320.27 183.852 2.24 329.109c.02 2.903-2.318 5.273-5.221 5.293-4.131.028-7.503-3.298-7.531-7.429l-2.225-326.886c-.024-3.517 2.808-6.388 6.325-6.412 3.517-.024 6.388 2.808 6.412 6.325z"
                  fill="#fff"></path>
            <path id="Contour-22_37_"
                  d="m313.881 179.002 2.294 336.979c.01 1.46-1.165 2.651-2.625 2.661-2.09.014-3.796-1.669-3.811-3.759l-2.286-335.838c-.012-1.775 1.417-3.224 3.192-3.236 1.775-.011 3.224 1.418 3.236 3.193z"
                  fill="url(#Contour-22_1_)"></path>
            <path id="Contour-23_37_"
                  d="m158.07 93.694h309.921c4.977 0 9.012 4.035 9.012 9.012v296.163c0 4.977-4.035 9.012-9.012 9.012h-309.921c-4.977 0-9.012-4.035-9.012-9.012v-296.163c0-4.977 4.035-9.012 9.012-9.012z"
                  fill="#fff"></path>
            <path id="Contour-24_37_" d="m175.613 393.522h-23.551v13.158h20.547z" fill="url(#Contour-24_1_)"></path>
            <path id="Contour-25_37_" d="m475.351 393.522h-23.552v13.158h20.548z" fill="url(#Contour-25_1_)"></path>
            <path id="Contour-26_36_" d="m175.613 107.453h-23.551v-13.158h20.547z" fill="url(#Contour-26_1_)"></path>
            <path id="Contour-27_36_" d="m475.351 107.453h-23.552v-13.158h20.548z" fill="url(#Contour-27_1_)"></path>
            <path id="Contour-28_35_"
                  d="m167.022 147.195s13.037 200.456 148.006 209.798 144.191-106.071 144.191-106.071l4.356 133.587s-3.004 9.012-10.123 9.012h-280.843c-4.956-2.547-7.98-7.741-7.75-13.308 0-9.942 2.163-233.018 2.163-233.018z"
                  fill="url(#Contour-28_1_)"></path>
            <g fill="#fff">
                <path id="Contour-29_33_"
                      d="m265.823 245.636h96.969c2.19 0 3.965 1.775 3.965 3.965v119.378c0 2.19-1.775 3.965-3.965 3.965h-96.969c-2.19 0-3.965-1.775-3.965-3.965v-119.378c-.001-2.19 1.775-3.965 3.965-3.965z"></path>
                <path id="Contour-30_32_"
                      d="m445.521 134.819v84.803c0 1.908-1.547 3.455-3.455 3.455h-104.418c-1.908 0-3.455-1.547-3.455-3.455v-84.803c0-1.908 1.547-3.455 3.455-3.455h104.419c1.907 0 3.454 1.547 3.454 3.455z"></path>
                <path id="Contour-31_29_"
                      d="m189.491 131.334h69.512c1.576 0 2.854 1.278 2.854 2.854v85.553c0 1.576-1.278 2.854-2.854 2.854h-69.512c-1.576 0-2.854-1.278-2.854-2.854v-85.553c.001-1.576 1.278-2.854 2.854-2.854z"></path>
                <path id="Contour-32_29_"
                      d="m228.303 253.626c-.457.044-.814.413-.841.871-1.624 50.851 36.053 94.436 86.605 100.183l-3.304-.391c-51.622-5.804-91.535-47.988-94.475-99.852-.027-.425-.357-.768-.781-.811l-8.742-.751c-.464-.009-.834-.392-.826-.856.004-.236.108-.459.285-.616l14.81-14.509c.346-.324.885-.324 1.232 0l14.419 14.81c.333.347.321.899-.026 1.232-.148.142-.34.227-.545.24z"></path>
            </g>
            <path id="Contour-33_28_"
                  d="m228.303 298.055s-10.724-34.666-7.029-60.08c.062-.477.499-.814.976-.751.201.026.387.122.526.271l13.969 14.359c.335.322.346.854.025 1.189-.134.14-.313.229-.505.253l-9.883 1.532c-.417.06-.725.42-.721.841.729 33.728 17.759 65.012 45.691 83.931-.002.001-24.725-7.419-43.049-41.545z"
                  fill="url(#Contour-33_1_)"></path>
            <path id="Contour-34_24_"
                  d="m410.645 208.957c.325.015.586.275.601.601 1.138 36.095-25.61 67.025-61.492 71.104l2.343-.27c36.619-4.157 64.912-34.099 66.989-70.894.015-.309.262-.556.571-.571l6.188-.511c.346-.042.592-.356.551-.702-.016-.13-.072-.253-.16-.35l-10.514-10.304c-.244-.233-.627-.233-.871 0l-10.244 10.514c-.249.219-.273.599-.053.848.112.128.274.201.444.203z"
                  fill="#fff"></path>
            <path id="Contour-35_21_"
                  d="m410.495 240.469s7.6-24.603 4.987-42.627c-.071-.341-.404-.561-.745-.49-.115.024-.221.079-.306.16l-9.943 10.184c-.234.235-.234.615.001.85.097.096.223.157.359.172l6.999 1.081c.296.054.518.301.541.601-.539 23.936-12.628 46.131-32.443 59.569-.001-.001 17.572-5.258 30.55-29.5z"
                  fill="url(#Contour-35_1_)"></path>
            <path id="Contour-36_20_"
                  d="m311.423 267.895v8.471s-14.149 6.398-9.282 19.015c2.92 7.338 10.344 11.859 18.204 11.085 0 0 3.004 12.016-5.227 11.355s-6.939-6.519-6.939-6.519h-8.682s2.674 11.445 10.664 14.149l.691 9.463 8.742-.27 1.382-9.463s9.823-4.957 9.583-13.488c-.34-7.632-5.38-14.252-12.647-16.612-6.429-2.283-9.673-8.141-1.893-10.063 0 0 4.656 1.382 5.137 4.626l8.682-.33s-.811-9.733-6.008-11.535-3.875-10.093-3.875-10.093z"
                  fill="url(#Contour-36_1_)"></path>
            <circle id="Contour-37_19_" cx="375.168" cy="168.283" fill="url(#Contour-37_1_)" r="6.549"></circle>
            <circle id="Contour-38_18_" cx="408.212" cy="179.278" fill="url(#Contour-38_1_)" r="6.549"></circle>
            <path id="Contour-39_16_"
                  d="m224.518 144.612v17.333c.004.83-.665 1.505-1.494 1.51-.053 0-.105-.002-.158-.008-4.626-.541-17.273-1.953-17.303-1.772.621-5.111 3.18-9.788 7.149-13.067 3.229-2.882 7.491-4.324 11.806-3.996z"
                  fill="url(#Contour-39_1_)"></path>
            <g id="Group-4_29_">
                <path id="Contour-40_12_"
                      d="m264.861 219.772v-85.584c0-3.318-2.69-6.008-6.008-6.008h-69.362c-3.259.082-5.859 2.748-5.858 6.008v85.584c-.001 3.26 2.598 5.926 5.858 6.008h69.512c3.26-.082 5.859-2.748 5.858-6.008zm-6.008 0h-69.092l-.15-85.433h69.362z"
                      fill="url(#Contour-40_1_)"></path>
                <path id="Contour-41_11_"
                      d="m442.066 128.33h-104.388c-3.572 0-6.472 2.887-6.489 6.459v84.502c.017 3.572 2.917 6.459 6.489 6.459h69.092c-4.475 20.333-18.137 37.436-36.979 46.291v-22.44c0-3.849-3.12-6.969-6.969-6.969h-96.999c-3.849 0-6.969 3.12-6.969 6.969v75.55c-18.484-18.015-28.805-42.801-28.568-68.611l6.008-.361c2.137-.12 3.772-1.949 3.652-4.086-.052-.937-.443-1.822-1.099-2.493l-14.449-14.78c-.702-.745-1.68-1.169-2.704-1.172-1.026-.011-2.017.377-2.764 1.081l-14.84 14.599c-1.077 1.066-1.44 2.658-.931 4.085.497 1.432 1.794 2.434 3.304 2.553l6.909.571c2.295 32.469 18.975 62.215 45.48 81.108v31.392c0 3.849 3.12 6.969 6.969 6.969h96.969c3.849 0 6.969-3.12 6.969-6.969v-89.669c24.483-8.569 43.134-28.705 49.806-53.771h22.5c3.509.001 6.377-2.8 6.459-6.308v-84.502c.001-3.565-2.891-6.457-6.458-6.457zm-222.775 125.927c-.098-1.92-1.599-3.472-3.515-3.635l-4.085-.33 9.943-9.763 9.673 9.913-3.274.21c-2.007.093-3.604 1.716-3.665 3.725-.625 19.18 4.298 38.132 14.179 54.582-11.506-16.023-18.187-35.004-19.256-54.702zm144.522 114.722c0 .531-.43.961-.961.961h-97.029c-.531 0-.961-.43-.961-.961v-27.396c12.474 7.695 26.367 12.803 40.854 15.02 1.532.24 3.004.451 4.566.601l1.472.18 1.712.21c.11.014.221.014.33 0 1.659 0 3.004-1.345 3.004-3.004.009-1.538-1.145-2.835-2.674-3.004l-2.493-.33c-2.013-.3-4.025-.631-6.008-1.051-15.002-3.15-29-9.938-40.764-19.766v-80.837c0-.531.43-.961.961-.961h96.969c.531 0 .961.43.961.961v24.753c-4.619 1.629-9.405 2.737-14.269 3.304-1.659.091-2.93 1.51-2.839 3.169s1.51 2.93 3.169 2.839h.33l2.343-.27c3.823-.43 7.608-1.143 11.325-2.133zm48.063-139.054c.36-1.412.691-3.004.961-4.296.391-1.983.721-3.995.931-6.008.372-3.381.502-6.784.391-10.184-.045-1.871-1.525-3.391-3.395-3.485h-.421l4.927-5.047 5.287 4.957h-1.021c-1.788.186-3.183 1.631-3.304 3.425-.186 3.451-.618 6.884-1.292 10.274-.421 2.043-.901 4.025-1.472 6.008-.571 1.502-1.021 2.944-1.532 4.356zm30.641-10.634c0 .249-.202.451-.451.451h-21.208c.499-2.603.86-5.23 1.081-7.87l4.146-.36c1.986-.139 3.483-1.862 3.344-3.848-.062-.888-.451-1.722-1.091-2.34l-10.514-10.274c-.689-.677-1.617-1.055-2.583-1.051-.961.006-1.881.395-2.553 1.081l-10.154 10.394c-1.319 1.513-1.162 3.809.351 5.128.575.501 1.293.809 2.052.88l3.425.18c-.014 2.612-.194 5.221-.541 7.81h-70.143c-.254.001-.465-.197-.481-.451v-84.232c.016-.254.227-.451.481-.451h104.388c.249 0 .451.202.451.451z"
                      fill="url(#Contour-41_1_)"></path>
                <path id="Contour-42_11_"
                      d="m318.933 293.129c-1.561-.373-3.039-1.035-4.356-1.953 0 0-.36-.3-.36-1.081-.042-.41.101-.818.391-1.111.365-.314.842-.466 1.322-.421.721 0 .961.21 1.051.3.196.215.34.472.421.751.551 1.779 2.193 2.996 4.055 3.004h6.278c1.223-.011 2.383-.547 3.184-1.472.801-.891 1.174-2.086 1.021-3.274-.424-3.609-2.13-6.945-4.806-9.402-1.161-1.109-2.502-2.013-3.965-2.674v-5.708c0-2.328-1.878-4.219-4.206-4.236h-6.188c-2.405.072-4.296 2.079-4.224 4.484.003.098.009.195.019.293v5.017c-1.743.795-3.338 1.882-4.716 3.214-3.1 3.109-4.783 7.357-4.656 11.746-.141 3.761 1.134 7.438 3.575 10.304 2.977 2.89 6.65 4.959 10.664 6.008 1.658.407 3.233 1.098 4.656 2.043.343.286.513.729.451 1.172.082.891-.237 1.772-.871 2.403-.58.617-1.409.937-2.253.871-.857.088-1.71-.197-2.343-.781-.413-.425-.677-.974-.751-1.562-.284-2.042-2.024-3.564-4.085-3.575h-6.609c-2.339-.031-4.261 1.839-4.292 4.178-.003.251.016.501.056.748.538 3.974 2.23 7.703 4.866 10.724 1.809 1.697 3.945 3.005 6.278 3.845v5.377c0 2.328 1.878 4.219 4.206 4.236h6.188c2.328-.016 4.206-1.908 4.206-4.236v-5.738c1.949-.789 3.725-1.953 5.227-3.425 3.429-3.311 5.304-7.913 5.167-12.677.168-3.958-1.125-7.839-3.635-10.904-3.006-3.109-6.794-5.351-10.966-6.488zm5.287 25.684c-1.174 1.143-2.591 2.005-4.146 2.523-1.765.516-2.985 2.126-3.004 3.965v5.137h-2.583v-4.927c-.008-1.863-1.225-3.504-3.004-4.055-1.905-.568-3.639-1.601-5.047-3.004-1.237-1.473-2.121-3.21-2.583-5.077h3.004c.434 1.315 1.188 2.502 2.193 3.455 3.725 3.368 9.422 3.276 13.037-.21 1.729-1.757 2.662-4.145 2.583-6.609.058-2.208-.88-4.326-2.553-5.768-2.043-1.379-4.31-2.396-6.699-3.004-3.015-.771-5.792-2.278-8.081-4.386-1.44-1.763-2.159-4.006-2.013-6.278-.083-2.794 1.006-5.495 3.004-7.45 1.068-1.027 2.336-1.825 3.725-2.343 1.676-.597 2.795-2.186 2.794-3.965v-4.897h2.583v5.167c.024 1.774 1.151 3.344 2.824 3.935 2.587.972 4.611 3.04 5.527 5.647h-2.824c-.403-.866-.975-1.642-1.682-2.283-1.402-1.226-3.214-1.881-5.077-1.832-2.028-.044-3.992.711-5.467 2.103-1.475 1.42-2.291 3.39-2.253 5.437-.099 2.148.799 4.22 2.433 5.617 1.923 1.417 4.108 2.439 6.429 3.004 3.131.804 5.998 2.408 8.321 4.656 1.56 1.975 2.33 4.458 2.163 6.969.1 3.218-1.218 6.315-3.604 8.473z"
                      fill="url(#Contour-42_1_)"></path>
                <path id="Contour-43_9_"
                      d="m223.887 185.256c12.194 0 22.079-9.885 22.079-22.079s-9.885-22.079-22.079-22.079-22.079 9.885-22.079 22.079v.03c0 12.177 9.872 22.049 22.049 22.049zm16.041-22.05c-.024 8.843-7.212 15.992-16.055 15.967-8.17-.022-15.012-6.192-15.877-14.315 2.493.24 7.059.721 14.509 1.562h.511c1.108.004 2.178-.402 3.004-1.142.951-.861 1.496-2.082 1.502-3.364v-14.329c7.257 1.701 12.394 8.168 12.406 15.621zm-18.414-15.83v12.887c-6.218-.691-10.304-1.142-13.037-1.322 1.676-6.094 6.786-10.628 13.037-11.565z"
                      fill="url(#Contour-43_1_)"></path>
                <circle id="Contour-44_9_" cx="389.857" cy="144.071" fill="url(#Contour-44_1_)" r="3.004"></circle>
                <circle id="Contour-45_9_" cx="272.852" cy="257.261" fill="url(#Contour-45_1_)" r="3.004"></circle>
                <circle id="Contour-46_8_" cx="196.461" cy="141.067" fill="url(#Contour-46_1_)" r="3.004"></circle>
                <path id="Contour-47_7_"
                      d="m245.996 205.893h-44.279c-1.659 0-3.004 1.345-3.004 3.004s1.345 3.004 3.004 3.004h44.279c1.659 0 3.004-1.345 3.004-3.004s-1.345-3.004-3.004-3.004z"
                      fill="url(#Contour-47_1_)"></path>
                <path id="Contour-48_6_"
                      d="m201.718 199.885h44.279c1.659 0 3.004-1.345 3.004-3.004s-1.345-3.004-3.004-3.004h-44.279c-1.659 0-3.004 1.345-3.004 3.004s1.345 3.004 3.004 3.004z"
                      fill="url(#Contour-48_1_)"></path>
                <path id="Contour-49_6_"
                      d="m426.986 148.908c-1.016.018-1.955.55-2.493 1.412l-12.947 20.037c-4.067-1.571-8.68-.141-11.145 3.455l-15.741-6.429c-.584-5.243-5.309-9.02-10.552-8.436-4.777.532-8.414 4.531-8.493 9.337-.031.44-.031.882 0 1.322l-17.693 12.196c-.81.548-1.304 1.455-1.322 2.433 0 1.659 1.345 3.004 3.004 3.004.605-.016 1.192-.215 1.682-.571l16.973-11.716c1.773 1.806 4.198 2.823 6.729 2.824 3.306-.006 6.374-1.722 8.111-4.536l15.41 6.278c.091 5.276 4.442 9.479 9.718 9.387s9.479-4.442 9.387-9.718c-.001-1.838-.544-3.636-1.562-5.167l13.518-20.487c.88-1.406.453-3.26-.953-4.14-.454-.284-.975-.441-1.51-.456zm-18.955 26.855h.18c2.023-.064 3.715 1.523 3.78 3.546.064 2.023-1.523 3.715-3.546 3.78-2.023.064-3.715-1.523-3.78-3.546-.042-1.314.624-2.55 1.744-3.239.491-.305 1.047-.49 1.622-.541zm-32.863-3.905c-.532-.023-1.054-.156-1.532-.391-1.626-.865-2.243-2.884-1.378-4.51s2.884-2.243 4.51-1.378 2.243 2.884 1.378 4.51c-.585 1.1-1.733 1.782-2.978 1.769z"
                      fill="url(#Contour-49_1_)"></path>
                <path id="Contour-50_5_"
                      d="m467.991 90.69h-309.921c-6.636 0-12.016 5.38-12.016 12.016v296.193c0 6.636 5.38 12.016 12.016 12.016h35.267l-18.805 99.132c-.351 1.841-.142 3.746.601 5.467h-19.916c-1.659 0-3.004 1.345-3.004 3.004s1.345 3.004 3.004 3.004h316.65c1.659 0 3.004-1.345 3.004-3.004s-1.345-3.004-3.004-3.004h-19.287c.743-1.721.952-3.626.601-5.467l-18.805-99.132h33.615c6.636 0 12.016-5.38 12.016-12.016v-296.193c0-6.636-5.38-12.016-12.016-12.016zm6.008 12.016v11.445h-9.012c-1.033-4.189-4.232-7.502-8.381-8.682v-8.772h11.535c3.259.083 5.859 2.749 5.858 6.009zm-8.381 17.453h8.531v261.347h-8.531zm-12.016 270.359h-279.731c-3.318 0-6.008-2.69-6.008-6.008v-267.355c0-3.318 2.69-6.008 6.008-6.008h279.731c3.318 0 6.008 2.69 6.008 6.008v267.355c0 3.318-2.69 6.008-6.008 6.008zm-3.004-285.379h-273.693v-8.441h273.693zm-292.528-8.441h12.827v8.742c-4.273 1.091-7.606 4.435-8.682 8.712h-10.153v-11.445c0-3.319 2.69-6.009 6.008-6.009zm3.785 284.808h-9.793v-261.347h9.793zm-9.793 17.393v-11.385h10.153c1.093 4.2 4.366 7.484 8.561 8.591v8.802h-12.706c-3.318 0-6.008-2.69-6.008-6.008zm47.373 12.016h6.849l-19.256 101.625c-.175.884-.693 1.662-1.442 2.163-1.548 1.027-3.636.605-4.664-.943-.484-.73-.665-1.62-.503-2.481zm-7.18 104.719c.276-.636.477-1.301.601-1.983l19.466-102.736h93.724l.661 100.934c.018 1.306.304 2.594.841 3.785zm127.189-3.875c.034 1.814-1.401 3.315-3.214 3.364-.907.032-1.791-.291-2.463-.901-.647-.635-1.024-1.496-1.051-2.403l-.661-100.904h6.699zm5.167 3.875c.554-1.227.841-2.559.841-3.905l-.691-100.814h90.48l19.466 102.736c.133.683.345 1.348.631 1.983zm122.592-4.356c.37 1.783-.772 3.529-2.553 3.905-.89.207-1.827.033-2.583-.481-.766-.483-1.291-1.27-1.442-2.163l-19.256-101.625h6.819zm-14.028-106.371h-256.3v-8.381h273.723v8.381zm34.756 0h-11.325v-8.802c4.138-1.154 7.345-4.43 8.411-8.591h9.012v11.385c0 3.318-2.69 6.008-6.008 6.008-.01 0-.02 0-.03 0z"
                      fill="url(#Contour-50_1_)"></path>
                <circle id="Contour-51_4_" cx="252.395" cy="140.827" fill="url(#Contour-51_1_)" r="3.004"></circle>
                <circle id="Contour-52_4_" cx="356.964" cy="257.261" fill="url(#Contour-52_1_)" r="3.004"></circle>
            </g>
        </g>
    </g>
</svg>
