<!-- icon666.com - MILLIONS vector ICONS FREE -->
<svg id="Layer_1" viewBox="0 0 512 512" xmlns="http://www.w3.org/2000/svg" data-name="Layer 1">
    <path d="m420 36h-328a56 56 0 0 0 -56 56v328a56 56 0 0 0 56 56h328a56 56 0 0 0 56-56v-328a56 56 0 0 0 -56-56zm-207.64 74.668c29.989-17.275 69.772-15.375 97.041 6.224 27.625 21.879 39.041 58.715 26.211 91.957-12.64 32.751-45.309 51.375-79.431 52.163-38.776-.9-74.7-25.247-83.235-64.35-7.409-33.962 9.583-68.809 39.414-85.994zm117.679 202.5c-11.773 5.949-39.061 14-39.469 14 0 0 47.384 43.842 51.357 50.68a23.142 23.142 0 0 1 -9.4 32.11c-15.04 7.918-27.282-1.473-37.847-11.6-12.217-11.709-38.4-36.494-38.8-37.55-.2.374-29.9 29.771-44.284 43.361-11.491 10.859-29.076 12.786-39.7-.745-9.052-11.528-4.291-24.577 5.215-33.644 14.253-13.595 43.992-41.857 44.382-42.613-20.446-4.387-70.775-17.7-59.135-48.131 4.194-10.965 16.9-16.67 28.1-14.7 6.779 1.19 12.5 5.517 18.648 8.366a117.718 117.718 0 0 0 17.821 6.57 110.466 110.466 0 0 0 75.977-6.167c11.184-5.216 20.693-12.048 33.485-7.1a23.89 23.89 0 0 1 14.957 23.056c-.411 12.739-11.146 18.974-21.307 24.11z"
          fill="#000000" style="fill: #c17701;"></path>
    <path d="m279.415 205.256c14.821-12.446 15.493-35.386 1.6-48.816-13.46-13.013-35.937-12.887-49.525-.14-13.826 12.726-13.546 34.5-.295 47.52 12.822 12.591 34.555 12.909 48.22 1.436z"
          fill="#000000" style="fill: #c17701;"></path>
</svg>
