<!-- icon666.com - MILLIONS vector ICONS FREE -->
<svg id="Capa_1" enable-background="new 0 0 610.29 610.29" viewBox="0 0 610.29 610.29"
     xmlns="http://www.w3.org/2000/svg" xmlns:xlink="http://www.w3.org/1999/xlink">
    <linearGradient id="Contour_1_" gradientTransform="matrix(2.522 0 0 -2.522 2.969 1672.98)"
                    gradientUnits="userSpaceOnUse" x1="70.235" x2="189.565" y1="483.741" y2="603.07">
        <stop offset="0" stop-color="#ffb56b"></stop>
        <stop offset="1" stop-color="#bd5e00"></stop>
    </linearGradient>
    <linearGradient id="lg1">
        <stop offset="0" stop-color="#3d1f00"></stop>
        <stop offset="1" stop-color="#693400"></stop>
    </linearGradient>
    <linearGradient id="Contour-2_1_" gradientTransform="matrix(2.522 0 0 -2.522 2.969 1672.98)"
                    gradientUnits="userSpaceOnUse" x1="-.036" x2="5.003" xlink:href="#lg1" y1="544.587"
                    y2="549.625"></linearGradient>
    <linearGradient id="Contour-3_1_" gradientTransform="matrix(2.522 0 0 -2.522 2.969 1672.98)"
                    gradientUnits="userSpaceOnUse" x1="195.223" x2="200.261" xlink:href="#lg1" y1="627.733"
                    y2="632.771"></linearGradient>
    <linearGradient id="Contour-4_1_" gradientTransform="matrix(2.522 0 0 -2.522 2.969 1672.98)"
                    gradientUnits="userSpaceOnUse" x1="187.957" x2="192.995" xlink:href="#lg1" y1="436.131"
                    y2="441.169"></linearGradient>
    <linearGradient id="Contour-5_1_" gradientTransform="matrix(2.522 0 0 -2.522 2.969 1672.98)"
                    gradientUnits="userSpaceOnUse" x1="59.848" x2="62.183" xlink:href="#lg1" y1="424.583"
                    y2="426.906"></linearGradient>
    <linearGradient id="Contour-6_1_" gradientTransform="matrix(2.522 0 0 -2.522 2.969 1672.98)"
                    gradientUnits="userSpaceOnUse" x1="62.427" x2="64.702" xlink:href="#lg1" y1="427.15"
                    y2="429.424"></linearGradient>
    <linearGradient id="Contour-7_1_" gradientTransform="matrix(2.522 0 0 -2.522 2.969 1672.98)"
                    gradientUnits="userSpaceOnUse" x1="65.047" x2="67.322" xlink:href="#lg1" y1="424.625"
                    y2="426.911"></linearGradient>
    <linearGradient id="Contour-8_1_" gradientTransform="matrix(2.522 0 0 -2.522 2.969 1672.98)"
                    gradientUnits="userSpaceOnUse" x1="62.475" x2="64.749" xlink:href="#lg1" y1="422.052"
                    y2="424.339"></linearGradient>
    <linearGradient id="Contour-9_1_" gradientTransform="matrix(2.522 0 0 -2.522 2.969 1672.98)"
                    gradientUnits="userSpaceOnUse" x1="64.353" x2="66.676" xlink:href="#lg1" y1="657.748"
                    y2="660.071"></linearGradient>
    <linearGradient id="Contour-10_1_" gradientTransform="matrix(2.522 0 0 -2.522 2.969 1672.98)"
                    gradientUnits="userSpaceOnUse" x1="66.914" x2="69.201" xlink:href="#lg1" y1="660.309"
                    y2="662.596"></linearGradient>
    <linearGradient id="Contour-11_1_" gradientTransform="matrix(2.522 0 0 -2.522 2.969 1672.98)"
                    gradientUnits="userSpaceOnUse" x1="69.537" x2="71.812" xlink:href="#lg1" y1="657.781"
                    y2="660.068"></linearGradient>
    <linearGradient id="Contour-12_1_" gradientTransform="matrix(2.522 0 0 -2.522 2.969 1672.98)"
                    gradientUnits="userSpaceOnUse" x1="66.965" x2="69.252" xlink:href="#lg1" y1="655.22"
                    y2="657.495"></linearGradient>
    <linearGradient id="Contour-13_1_" gradientTransform="matrix(2.522 0 0 -2.522 2.969 1672.98)"
                    gradientUnits="userSpaceOnUse" x1="232.569" x2="234.891" xlink:href="#lg1" y1="520.261"
                    y2="522.584"></linearGradient>
    <linearGradient id="Contour-14_1_" gradientTransform="matrix(2.522 0 0 -2.522 2.969 1672.98)"
                    gradientUnits="userSpaceOnUse" x1="235.156" x2="237.43" xlink:href="#lg1" y1="522.808"
                    y2="525.095"></linearGradient>
    <linearGradient id="Contour-15_1_" gradientTransform="matrix(2.522 0 0 -2.522 2.969 1672.98)"
                    gradientUnits="userSpaceOnUse" x1="237.744" x2="240.031" xlink:href="#lg1" y1="520.303"
                    y2="522.59"></linearGradient>
    <linearGradient id="Contour-16_1_" gradientTransform="matrix(2.522 0 0 -2.522 2.969 1672.98)"
                    gradientUnits="userSpaceOnUse" x1="235.16" x2="237.435" xlink:href="#lg1" y1="517.765"
                    y2="520.04"></linearGradient>
    <linearGradient id="lg2">
        <stop offset="0" stop-color="#964b00"></stop>
        <stop offset="1" stop-color="#bd732a"></stop>
    </linearGradient>
    <linearGradient id="Contour-17_1_" gradientTransform="matrix(2.522 0 0 -2.522 2.969 1672.98)"
                    gradientUnits="userSpaceOnUse" x1="33.563" x2="54.054" xlink:href="#lg2" y1="462.601"
                    y2="483.104"></linearGradient>
    <linearGradient id="Contour-18_1_" gradientTransform="matrix(2.522 0 0 -2.522 2.969 1672.98)"
                    gradientUnits="userSpaceOnUse" x1="179.503" x2="185.457" xlink:href="#lg2" y1="475.092"
                    y2="481.046"></linearGradient>
    <linearGradient id="Contour-19_1_" gradientTransform="matrix(2.522 0 0 -2.522 2.969 1672.98)"
                    gradientUnits="userSpaceOnUse" x1="199.328" x2="205.389" xlink:href="#lg2" y1="469.661"
                    y2="475.734"></linearGradient>
    <linearGradient id="Contour-20_1_" gradientTransform="matrix(2.522 0 0 -2.522 2.969 1672.98)"
                    gradientUnits="userSpaceOnUse" x1="185.194" x2="204.155" xlink:href="#lg2" y1="485.588"
                    y2="504.537"></linearGradient>
    <linearGradient id="Contour-23_1_" gradientTransform="matrix(2.522 0 0 -2.522 2.969 1672.98)"
                    gradientUnits="userSpaceOnUse" x1="79.98" x2="105.051" xlink:href="#lg2" y1="505.415"
                    y2="530.487"></linearGradient>
    <linearGradient id="Contour-24_1_" gradientTransform="matrix(2.522 0 0 -2.522 2.969 1672.98)"
                    gradientUnits="userSpaceOnUse" x1="79.988" x2="104.787" xlink:href="#lg2" y1="483.782"
                    y2="508.593"></linearGradient>
    <linearGradient id="Contour-25_1_" gradientTransform="matrix(2.522 0 0 -2.522 2.969 1672.98)"
                    gradientUnits="userSpaceOnUse" x1="79.988" x2="104.787" xlink:href="#lg2" y1="461.153"
                    y2="485.964"></linearGradient>
    <linearGradient id="Contour-26_1_" gradientTransform="matrix(2.522 0 0 -2.522 2.969 1672.98)"
                    gradientUnits="userSpaceOnUse" x1="140.796" x2="160.872" xlink:href="#lg2" y1="444.592"
                    y2="464.68"></linearGradient>
    <linearGradient id="Contour-27_1_" gradientTransform="matrix(2.522 0 0 -2.522 2.969 1672.98)"
                    gradientUnits="userSpaceOnUse" x1="71.975" x2="94.707" xlink:href="#lg2" y1="443.225"
                    y2="465.969"></linearGradient>
    <linearGradient id="Contour-28_1_" gradientTransform="matrix(2.522 0 0 -2.522 2.969 1672.98)"
                    gradientUnits="userSpaceOnUse" x1="137.84" x2="155.021" xlink:href="#lg2" y1="599.864"
                    y2="617.045"></linearGradient>
    <linearGradient id="Contour-29_1_" gradientTransform="matrix(2.522 0 0 -2.522 2.969 1672.98)"
                    gradientUnits="userSpaceOnUse" x1="140.667" x2="161.699" xlink:href="#lg2" y1="589.745"
                    y2="610.764"></linearGradient>
    <linearGradient id="Contour-30_1_" gradientTransform="matrix(2.522 0 0 -2.522 2.969 1672.98)"
                    gradientUnits="userSpaceOnUse" x1="135.339" x2="150.953" xlink:href="#lg2" y1="598.244"
                    y2="613.859"></linearGradient>
    <linearGradient id="Contour-31_1_" gradientTransform="matrix(2.522 0 0 -2.522 2.969 1672.98)"
                    gradientUnits="userSpaceOnUse" x1="131.132" x2="159.401" xlink:href="#lg2" y1="561.373"
                    y2="589.642"></linearGradient>
    <linearGradient id="Contour-32_1_" gradientTransform="matrix(2.522 0 0 -2.522 2.969 1672.98)"
                    gradientUnits="userSpaceOnUse" x1="131.057" x2="159.336" xlink:href="#lg2" y1="534.697"
                    y2="562.964"></linearGradient>
    <linearGradient id="Contour-33_1_" gradientTransform="matrix(2.522 0 0 -2.522 2.969 1672.98)"
                    gradientUnits="userSpaceOnUse" x1="131.057" x2="159.336" xlink:href="#lg2" y1="508.495"
                    y2="536.762"></linearGradient>
    <linearGradient id="Contour-34_1_" gradientTransform="matrix(2.522 0 0 -2.522 2.969 1672.98)"
                    gradientUnits="userSpaceOnUse" x1="131.057" x2="159.336" xlink:href="#lg2" y1="482.292"
                    y2="510.559"></linearGradient>
    <linearGradient id="Contour-35_1_" gradientTransform="matrix(2.522 0 0 -2.522 2.969 1672.98)"
                    gradientUnits="userSpaceOnUse" x1="155.834" x2="169.816" xlink:href="#lg2" y1="458.694"
                    y2="472.677"></linearGradient>
    <linearGradient id="Contour-36_1_" gradientTransform="matrix(2.522 0 0 -2.522 2.969 1672.98)"
                    gradientUnits="userSpaceOnUse" x1="123.866" x2="134.371" xlink:href="#lg2" y1="462.088"
                    y2="472.593"></linearGradient>
    <linearGradient id="Contour-37_1_" gradientTransform="matrix(2.522 0 0 -2.522 2.969 1672.98)"
                    gradientUnits="userSpaceOnUse" x1="134.187" x2="151.641" xlink:href="#lg2" y1="583.961"
                    y2="601.416"></linearGradient>
    <linearGradient id="Contour-38_1_" gradientTransform="matrix(2.522 0 0 -2.522 2.969 1672.98)"
                    gradientUnits="userSpaceOnUse" x1="132.793" x2="151.177" xlink:href="#lg2" y1="557.294"
                    y2="575.677"></linearGradient>
    <linearGradient id="Contour-39_1_" gradientTransform="matrix(2.522 0 0 -2.522 2.969 1672.98)"
                    gradientUnits="userSpaceOnUse" x1="132.793" x2="151.177" xlink:href="#lg2" y1="529.9"
                    y2="548.284"></linearGradient>
    <linearGradient id="Contour-40_1_" gradientTransform="matrix(2.522 0 0 -2.522 2.969 1672.98)"
                    gradientUnits="userSpaceOnUse" x1="132.793" x2="151.177" xlink:href="#lg2" y1="503.697"
                    y2="522.081"></linearGradient>
    <linearGradient id="Contour-41_1_" gradientTransform="matrix(2.522 0 0 -2.522 2.969 1672.98)"
                    gradientUnits="userSpaceOnUse" x1="132.793" x2="151.177" xlink:href="#lg2" y1="476.303"
                    y2="494.687"></linearGradient>
    <linearGradient id="Contour-42_1_" gradientTransform="matrix(2.522 0 0 -2.522 2.969 1672.98)"
                    gradientUnits="userSpaceOnUse" x1="132.909" x2="140.895" xlink:href="#lg2" y1="455.44"
                    y2="463.425"></linearGradient>
    <linearGradient id="Contour-43_1_" gradientTransform="matrix(2.522 0 0 -2.522 2.969 1672.98)"
                    gradientUnits="userSpaceOnUse" x1="152.496" x2="160.827" xlink:href="#lg2" y1="455.267"
                    y2="463.598"></linearGradient>
    <linearGradient id="Contour-44_1_" gradientTransform="matrix(2.522 0 0 -2.522 2.969 1672.98)"
                    gradientUnits="userSpaceOnUse" x1="61.355" x2="104.697" xlink:href="#lg2" y1="483.021"
                    y2="526.363"></linearGradient>
    <linearGradient id="Contour-45_1_" gradientTransform="matrix(2.522 0 0 -2.522 2.969 1672.98)"
                    gradientUnits="userSpaceOnUse" x1="70.306" x2="77.964" xlink:href="#lg2" y1="457.134"
                    y2="464.792"></linearGradient>
    <linearGradient id="Contour-46_1_" gradientTransform="matrix(2.522 0 0 -2.522 2.969 1672.98)"
                    gradientUnits="userSpaceOnUse" x1="96.502" x2="106.673" xlink:href="#lg2" y1="455.866"
                    y2="466.049"></linearGradient>
    <linearGradient id="Contour-47_1_" gradientTransform="matrix(2.522 0 0 -2.522 2.969 1672.98)"
                    gradientUnits="userSpaceOnUse" x1="68.949" x2="79.648" xlink:href="#lg2" y1="547.397"
                    y2="558.097"></linearGradient>
    <linearGradient id="Contour-48_1_" gradientTransform="matrix(2.522 0 0 -2.522 2.969 1672.98)"
                    gradientUnits="userSpaceOnUse" x1="82.395" x2="93.095" xlink:href="#lg2" y1="547.397"
                    y2="558.097"></linearGradient>
    <linearGradient id="Contour-49_1_" gradientTransform="matrix(2.522 0 0 -2.522 2.969 1672.98)"
                    gradientUnits="userSpaceOnUse" x1="95.842" x2="106.542" xlink:href="#lg2" y1="547.397"
                    y2="558.097"></linearGradient>
    <linearGradient id="Contour-50_1_" gradientTransform="matrix(2.522 0 0 -2.522 2.969 1672.98)"
                    gradientUnits="userSpaceOnUse" x1="56.995" x2="204.508" xlink:href="#lg1" y1="429.216"
                    y2="576.717"></linearGradient>
    <g>
        <g id="Icon_16">
            <path id="Contour_26_"
                  d="m162.005 397.187c-1.736-3.263-5.37-5.043-9.012-4.416-17.724 3.004-68.761 4.566-72.726-74.889-4.927-96.338 111.988-260.866 283.456-228.153 137.763 26.285 34.906 157.319 119.288 190.393 49.385 19.346 94.025 118.567-15.651 204.752-59.299 46.591-211.541 87.776-305.355-87.687z"
                  fill="url(#Contour_1_)"></path>
            <path id="Contour-2_26_"
                  d="m9.252 302.081c-4.977 0-9.012-4.035-9.012-9.012s4.035-9.012 9.012-9.012 9.012 4.035 9.012 9.012-4.035 9.012-9.012 9.012zm0-12.016c-1.659 0-3.004 1.345-3.004 3.004s1.345 3.004 3.004 3.004 3.004-1.345 3.004-3.004c-.016-1.647-1.357-2.974-3.004-2.974z"
                  fill="url(#Contour-2_1_)"></path>
            <path id="Contour-3_26_"
                  d="m501.726 92.373c-4.977 0-9.012-4.035-9.012-9.012s4.035-9.012 9.012-9.012 9.012 4.035 9.012 9.012-4.035 9.012-9.012 9.012zm0-12.016c-1.659 0-3.004 1.345-3.004 3.004s1.345 3.004 3.004 3.004 3.004-1.345 3.004-3.004c-.016-1.647-1.357-2.974-3.004-2.974z"
                  fill="url(#Contour-3_1_)"></path>
            <path id="Contour-4_26_"
                  d="m483.401 575.624c-4.977 0-9.012-4.035-9.012-9.012s4.035-9.012 9.012-9.012 9.012 4.035 9.012 9.012-4.035 9.012-9.012 9.012zm0-12.016c-1.659 0-3.004 1.345-3.004 3.004s1.345 3.004 3.004 3.004 3.004-1.345 3.004-3.004c-.017-1.647-1.357-2.974-3.004-2.974z"
                  fill="url(#Contour-4_1_)"></path>
            <g id="Group_26_">
                <path id="Contour-5_26_"
                      d="m161.494 599.175c0-1.659-1.345-3.004-3.004-3.004h-3.244c-1.659 0-3.004 1.345-3.004 3.004s1.345 3.004 3.004 3.004h3.244c1.659 0 3.004-1.345 3.004-3.004z"
                      fill="url(#Contour-5_1_)"></path>
                <path id="Contour-6_26_"
                      d="m163.357 597.312c1.659 0 3.004-1.345 3.004-3.004v-3.214c0-1.659-1.345-3.004-3.004-3.004s-3.004 1.345-3.004 3.004v3.214c0 1.659 1.345 3.004 3.004 3.004z"
                      fill="url(#Contour-6_1_)"></path>
                <path id="Contour-7_26_"
                      d="m171.467 596.171h-3.244c-1.659 0-3.004 1.345-3.004 3.004s1.345 3.004 3.004 3.004h3.244c1.659 0 3.004-1.345 3.004-3.004s-1.344-3.004-3.004-3.004z"
                      fill="url(#Contour-7_1_)"></path>
                <path id="Contour-8_26_"
                      d="m163.357 601.037c-1.659 0-3.004 1.345-3.004 3.004v3.244c0 1.659 1.345 3.004 3.004 3.004s3.004-1.345 3.004-3.004v-3.244c0-1.659-1.345-3.004-3.004-3.004z"
                      fill="url(#Contour-8_1_)"></path>
            </g>
            <g id="Group-2_26_">
                <path id="Contour-9_26_"
                      d="m172.819 11.115c0-1.659-1.345-3.004-3.004-3.004h-3.244c-1.659 0-3.004 1.345-3.004 3.004s1.345 3.004 3.004 3.004h3.244c1.659 0 3.004-1.345 3.004-3.004z"
                      fill="url(#Contour-9_1_)"></path>
                <path id="Contour-10_26_"
                      d="m174.682 9.252c1.659 0 3.004-1.345 3.004-3.004v-3.244c0-1.659-1.345-3.004-3.004-3.004s-3.004 1.345-3.004 3.004v3.244c0 1.659 1.345 3.004 3.004 3.004z"
                      fill="url(#Contour-10_1_)"></path>
                <path id="Contour-11_26_"
                      d="m182.792 8.111h-3.244c-1.659 0-3.004 1.345-3.004 3.004s1.345 3.004 3.004 3.004h3.244c1.659 0 3.004-1.345 3.004-3.004s-1.344-3.004-3.004-3.004z"
                      fill="url(#Contour-11_1_)"></path>
                <path id="Contour-12_26_"
                      d="m174.682 12.977c-1.659 0-3.004 1.345-3.004 3.004v3.244c0 1.659 1.345 3.004 3.004 3.004s3.004-1.345 3.004-3.004v-3.244c0-1.659-1.345-3.004-3.004-3.004z"
                      fill="url(#Contour-12_1_)"></path>
            </g>
            <g id="Group-3_26_">
                <path id="Contour-13_26_"
                      d="m597.102 357.865c0-1.659-1.345-3.004-3.004-3.004h-3.244c-1.659 0-3.004 1.345-3.004 3.004s1.345 3.004 3.004 3.004h3.244c1.659 0 3.004-1.345 3.004-3.004z"
                      fill="url(#Contour-13_1_)"></path>
                <path id="Contour-14_26_"
                      d="m598.935 356.002c1.659 0 3.004-1.345 3.004-3.004v-3.244c-.126-1.565-1.434-2.769-3.004-2.764-1.57-.005-2.878 1.199-3.004 2.764v3.244c0 1.659 1.345 3.004 3.004 3.004z"
                      fill="url(#Contour-14_1_)"></path>
                <path id="Contour-15_26_"
                      d="m607.045 354.861h-3.244c-1.659 0-3.004 1.345-3.004 3.004s1.345 3.004 3.004 3.004h3.244c1.659 0 3.004-1.345 3.004-3.004s-1.345-3.004-3.004-3.004z"
                      fill="url(#Contour-15_1_)"></path>
                <path id="Contour-16_26_"
                      d="m598.935 359.727c-1.659 0-3.004 1.345-3.004 3.004v3.244c.126 1.565 1.434 2.769 3.004 2.764 1.57.005 2.878-1.199 3.004-2.764v-3.244c0-1.659-1.345-3.004-3.004-3.004z"
                      fill="url(#Contour-16_1_)"></path>
            </g>
            <path id="Contour-17_26_"
                  d="m114.602 513.141s16.942-2.674 24.573-12.587c6.008-8.021 4.716-18.024.871-32.503 0 0-11.776-34.666-24.633-32.053s-18.715 21.208-19.226 34.275c0 0-18.024 1.923-18.024 15.44 0 21.298 22.47 30.46 35.267 27.426l1.111-7.029z"
                  fill="url(#Contour-17_1_)"></path>
            <ellipse id="Contour-18_26_" cx="463.214" cy="467.21" fill="url(#Contour-18_1_)" rx="12.376"
                     ry="8.501"></ellipse>
            <ellipse id="Contour-19_26_" cx="513.351" cy="480.758" fill="url(#Contour-19_1_)" rx="12.647"
                     ry="8.621"></ellipse>
            <path id="Contour-20_26_"
                  d="m485.504 448.375s-25.474 1.502-28.328-19.015 12.557-55.213 28.328-55.604 26.856 32.563 25.624 46.201c0 0 24.753-2.463 22.199 22.83-2.553 25.294-34.756 15.831-34.756 15.831l-12.016 2.764z"
                  fill="url(#Contour-20_1_)"></path>
            <path id="Contour-21_26_"
                  d="m160.533 531.135-1.322-8.472 9.192-1.562v-35.417h-8.351l.811-18.234h7.54v-36.979h-9.192v-18.504h9.192v-36.98h-9.192l-.961-18.504h10.153v-71.645h13.518l.571 14.089h15.741v-14.089h18.174v15.681l14.119-1.592 1.622-14.089h18.174v14.089h14.089l1.622-14.089h15.951v71.645h9.042v16.852l-9.042 2.704v35.928h9.042l-.45 17.993-8.592.511v36.979l9.042.661v17.573l-10.334.241 1.292 35.176 8.922 1.562.12 8.472z"
                  fill="#fff"></path>
            <path id="Contour-22_26_"
                  d="m315.839 529.903v-7.029l7.45-1.412v-16.973l-8.952.481-1.502-50.437h10.454v-15.951l-8.952-.571-1.502.571v-51.008h10.454v-18.024l-10.454.03v-47.493l10.454-1.472v-16.972l-10.454-1.022.391-48.424 10.063-.54v-16.973h-10.033l-.421-48.484h15.14v-18.475h-9.553v-20.277h8.291l1.262-11.535 44.579-28.298 45.601 29.65.661 10.183h8.891v18.805 1.472h-8.891v18.054l15.11-1.081v49.986l-10.424.451v17.873l8.952-1.351 1.472 51.458-10.424-1.022v16.522l10.424.06v49.927l-10.424.45 1.652 16.522h8.772v51.008h-10.424v15.951h10.424v48.965l-10.424 1.472v15.561l5.707.931 1.412 9.673z"
                  fill="#fff"></path>
            <path id="Contour-23_26_" d="m182.492 356.483v19.556l108.534-.18-1.622-19.376z"
                  fill="url(#Contour-23_1_)"></path>
            <path id="Contour-24_26_" d="m182.492 411.967-.571 18.053 108.655-.06-1.563-17.993z"
                  fill="url(#Contour-24_1_)"></path>
            <path id="Contour-25_26_" d="m182.492 469.042-.571 18.054 108.655-.06-1.563-17.994z"
                  fill="url(#Contour-25_1_)"></path>
            <path id="Contour-26_25_" d="m336.566 521.101v9.042l94.055.992-1.412-9.673z"
                  fill="url(#Contour-26_1_)"></path>
            <path id="Contour-27_25_" d="m266.033 521.912v9.223h-105.5l-1.202-8.472z" fill="url(#Contour-27_1_)"></path>
            <path id="Contour-28_24_"
                  d="m363.332 118.748s-6.909 14.209 9.733 15.831 19.105-9.553 19.105-9.553l20.697 10.574v4.115l-83.21-.661z"
                  fill="url(#Contour-28_1_)"></path>
            <path id="Contour-29_23_" d="m341.944 149.448v20.277h83.571l2.313-3.064-.121-17.213z"
                  fill="url(#Contour-29_1_)"></path>
            <path id="Contour-30_22_" d="m398.689 139.715v9.733h-69.032v-10.394z" fill="url(#Contour-30_1_)"></path>
            <path id="Contour-31_19_"
                  d="m315.839 195.74s2.403 37.97 60.08 35.687c0 0 45.42-.901 55.033-19.496l3.635 23.521-9.793 2.373-111.688-1.142z"
                  fill="url(#Contour-31_1_)"></path>
            <path id="Contour-32_19_"
                  d="m315.659 263.029s2.403 38 60.08 35.687c0 0 45.42-.871 55.003-19.496l3.665 23.521-9.793 2.373-111.688-1.111z"
                  fill="url(#Contour-32_1_)"></path>
            <path id="Contour-33_18_"
                  d="m315.659 329.117s2.403 38 60.08 35.687c0 0 45.42-.871 55.003-19.496l3.665 23.521-9.793 2.373-111.688-1.111z"
                  fill="url(#Contour-33_1_)"></path>
            <path id="Contour-34_14_"
                  d="m315.659 395.204s2.403 38 60.08 35.687c0 0 45.42-.871 55.003-19.496l3.665 23.521-9.793 2.373-111.688-1.111z"
                  fill="url(#Contour-34_1_)"></path>
            <path id="Contour-35_11_"
                  d="m386.282 499.262c14.029-1.472 38-5.828 44.669-18.775l3.665 23.521-9.793 2.373-39.052-.391z"
                  fill="url(#Contour-35_1_)"></path>
            <path id="Contour-36_10_" d="m360.058 505.721-46.922-.451 2.583-40.974s1.953 30.881 44.699 35.267z"
                  fill="url(#Contour-36_1_)"></path>
            <path id="Contour-37_10_" d="m398.689 169.365v17.333h-70.714v-16.973z" fill="url(#Contour-37_1_)"></path>
            <path id="Contour-38_9_" d="m398.689 235.452v17.333h-75.4v-16.972z" fill="url(#Contour-38_1_)"></path>
            <path id="Contour-39_8_" d="m398.689 304.544v17.333h-75.4v-16.973z" fill="url(#Contour-39_1_)"></path>
            <path id="Contour-40_8_" d="m398.689 370.632v17.333h-75.4v-16.973z" fill="url(#Contour-40_1_)"></path>
            <path id="Contour-41_8_" d="m398.689 439.723v17.333h-75.4v-16.972z" fill="url(#Contour-41_1_)"></path>
            <path id="Contour-42_8_" d="m336.566 504.91v17.753h24.243l.18-15.861z" fill="url(#Contour-42_1_)"></path>
            <path id="Contour-43_6_" d="m409.804 504.91v17.753h-24.273l-.18-15.861z" fill="url(#Contour-43_1_)"></path>
            <path id="Contour-44_6_" d="m241.01 319.384v160.112h-58.518v-157.619z" fill="url(#Contour-44_1_)"></path>
            <path id="Contour-45_6_"
                  d="m185.466 489.139s-.541 16.702 7.66 21.418c1.296.725 2.811.96 4.266.661 3.275-.366 5.948-2.786 6.639-6.008l2.644 14.119-25.294 1.862z"
                  fill="url(#Contour-45_1_)"></path>
            <path id="Contour-46_6_"
                  d="m263.6 489.139s.541 16.702-7.66 21.418c-1.297.723-2.81.957-4.266.661-3.279-.357-5.957-2.781-6.639-6.008l-2.674 14.119 25.324 1.862z"
                  fill="url(#Contour-46_1_)"></path>
            <path id="Contour-47_5_"
                  d="m184.114 258.793h12.497c.896 0 1.622.726 1.622 1.622v36.889c0 .896-.726 1.622-1.622 1.622h-12.497c-.896 0-1.622-.726-1.622-1.622v-36.889c0-.895.726-1.622 1.622-1.622z"
                  fill="url(#Contour-47_1_)"></path>
            <path id="Contour-48_5_"
                  d="m218.029 258.793h12.497c.896 0 1.622.726 1.622 1.622v36.889c0 .896-.726 1.622-1.622 1.622h-12.497c-.896 0-1.622-.726-1.622-1.622v-36.889c0-.895.726-1.622 1.622-1.622z"
                  fill="url(#Contour-48_1_)"></path>
            <path id="Contour-49_5_"
                  d="m251.944 258.793h12.497c.896 0 1.622.726 1.622 1.622v36.889c0 .896-.726 1.622-1.622 1.622h-12.497c-.896 0-1.622-.726-1.622-1.622v-36.889c0-.895.726-1.622 1.622-1.622z"
                  fill="url(#Contour-49_1_)"></path>
            <path id="Contour-50_4_"
                  d="m489.68 503.618v-38.481c2.56-.773 5.043-1.779 7.42-3.004 3.247.711 6.56 1.073 9.883 1.081 8.365.309 16.535-2.569 22.86-8.051 5.355-4.922 7.786-12.261 6.429-19.406-2.343-13.818-13.127-18.685-22.98-18.685-1.652-25.173-12.857-44.669-26.405-45.631-5.198-.138-10.232 1.821-13.969 5.437-9.703 8.411-16.312 25.023-17.633 44.399-.691 9.913 1.772 17.603 7.3 22.86 5.873 4.931 13.364 7.51 21.028 7.24v37.7c-6.112-1.824-11.353-5.806-14.75-11.205 6.008-1.772 10.033-6.158 10.033-11.475 0-6.909-6.999-12.346-15.921-12.346s-15.951 5.437-15.951 12.346 6.759 12.016 15.471 12.316c2.854 6.008 8.802 13.067 21.208 16.762v32.683h-50.076v-5.227c0-2.422-1.964-4.386-4.386-4.386-.01 0-.02 0-.03 0h-2.704v-10.634h6.008c2.477-.016 4.476-2.029 4.476-4.506v-47.463c0-2.472-2.004-4.476-4.476-4.476h-6.008v-10.514h6.008c2.472 0 4.476-2.004 4.476-4.476v-47.433c0-2.472-2.004-4.476-4.476-4.476h-6.008v-10.514h6.008c2.472 0 4.476-2.004 4.476-4.476v-47.493c0-2.472-2.004-4.476-4.476-4.476h-6.008v-10.514h6.008c2.472 0 4.476-2.004 4.476-4.476v-47.493c0-2.472-2.004-4.476-4.476-4.476h-6.008v-10.514h6.008c2.472 0 4.476-2.004 4.476-4.476v-47.459c0-2.477-1.999-4.489-4.476-4.506h-10.814v-10.965h4.596c2.472 0 4.476-2.004 4.476-4.476v-17.303c0-2.477-1.999-4.489-4.476-4.506h-4.416v-6.008c-.003-1.493-.745-2.889-1.983-3.725l-43.498-29.229v-30.22c0-1.659-1.345-3.004-3.004-3.004s-3.004 1.345-3.004 3.004v30.22l-43.438 29.289c-1.237.836-1.98 2.231-1.983 3.725v6.008h-5.077c-2.477.017-4.476 2.029-4.476 4.506v17.303c0 2.472 2.004 4.476 4.476 4.476h5.077v10.965h-10.634c-2.489 0-4.506 2.017-4.506 4.506v47.463c.017 2.477 2.029 4.476 4.506 4.476h6.008v10.514h-6.008c-2.477 0-4.489 1.999-4.506 4.476v47.493c.017 2.477 2.029 4.476 4.506 4.476h6.008v10.514h-6.008c-2.477 0-4.489 1.999-4.506 4.476v47.583c.017 2.477 2.029 4.476 4.506 4.476h6.008v10.514h-6.008c-2.477 0-4.489 1.999-4.506 4.476v47.493c.017 2.477 2.029 4.476 4.506 4.476h6.008v10.514h-6.008c-2.477 0-4.489 1.999-4.506 4.476v47.463c0 2.489 2.017 4.506 4.506 4.506h6.008v10.514h-3.004c-2.422-.017-4.399 1.933-4.416 4.356v.03 5.257h-18.895v-4.866c0-2.555-2.071-4.626-4.626-4.626h-4.416v-29.709h4.416c2.555 0 4.626-2.071 4.626-4.626v-15.23c0-2.555-2.071-4.626-4.626-4.626h-4.416v-31.121h4.416c2.56-.017 4.626-2.096 4.626-4.656v-15.23c0-2.555-2.071-4.626-4.626-4.626h-4.416v-30.971h4.416c2.555 0 4.626-2.071 4.626-4.626v-15.23c.017-2.555-2.041-4.639-4.596-4.656-.01 0-.02 0-.03 0h-4.416v-66.993c0-2.56-2.066-4.64-4.626-4.656h-11.295v-21.388c-.016-2.565-2.091-4.64-4.656-4.656h-12.467c-2.56.017-4.626 2.096-4.626 4.656v21.388h-12.016v-21.388c0-2.56-2.066-4.64-4.626-4.656h-12.647c-2.513.081-4.507 2.142-4.506 4.656v21.388h-12.016v-21.388c0-2.56-2.066-4.64-4.626-4.656h-12.737c-2.565.016-4.64 2.091-4.656 4.656v21.388h-9.463c-2.536.049-4.567 2.119-4.566 4.656v66.989h-4.596c-2.555 0-4.626 2.071-4.626 4.626v.03 15.23c0 2.555 2.071 4.626 4.626 4.626h4.596v30.971h-4.596c-2.555 0-4.626 2.071-4.626 4.626v15.23c0 2.56 2.066 4.64 4.626 4.656h4.596v30.971h-4.596c-2.555 0-4.626 2.071-4.626 4.626v15.23c0 2.555 2.071 4.626 4.626 4.626h4.596v29.709h-4.596c-2.555 0-4.626 2.071-4.626 4.626v4.866h-38.631v-12.376c11.175-2.013 28.568-9.973 28.628-29.259 0-21.358-6.999-41.064-18.024-50.197-3.803-3.612-9.045-5.293-14.239-4.566-10.724 1.953-19.316 16.702-20.727 35.327-8.921-.314-16.631 6.176-17.844 15.02-1.152 8.724 1.722 17.499 7.81 23.852 6.783 6.975 16.202 10.752 25.924 10.394h2.373v12.016h-19.615c-1.659 0-3.004 1.345-3.004 3.004s1.345 3.004 3.004 3.004h408.812c1.659 0 3.004-1.345 3.004-3.004s-1.345-3.004-3.004-3.004h-11.024v-18.474c8.531-.781 21.448-5.167 25.233-18.024 8.021-.691 14.089-5.768 14.089-12.196 0-6.909-7.029-12.346-15.951-12.346s-15.951 5.437-15.951 12.346c0 5.768 4.866 10.424 11.655 12.016-3.635 9.073-13.939 11.386-19.075 11.957zm-36.679-37.249c0-3.425 4.566-6.338 9.943-6.338s9.913 3.004 9.913 6.338-4.536 6.338-9.913 6.338-9.943-2.884-9.943-6.338zm-365.315 35.537c-4.796-5.006-7.119-11.886-6.338-18.775 1.562-9.012 9.012-10.214 13.218-10.063 2.447.202 4.595-1.618 4.797-4.065.004-.047.007-.094.009-.141.991-17.874 8.832-29.89 15.891-31.151 3.428-.325 6.828.86 9.312 3.244 7.87 6.579 15.801 23.251 15.771 45.601 0 16.432-15.621 21.599-22.62 23.101v-42.357c0-1.659-1.345-3.004-3.004-3.004s-3.004 1.345-3.004 3.004v26.345c-6.008.18-11.085-5.678-11.145-5.738-.553-.682-1.376-1.088-2.253-1.111-1.659 0-3.004 1.345-3.004 3.004.014.695.269 1.364.721 1.893.33.36 6.699 7.931 15.44 7.931h.33v10.574c-12.736.72-20.125-4.027-24.121-8.292zm332.812 16.612h-31.572v-10.604h31.572zm-62.783-60.981v44.369h-19.105v-44.369zm31.211 44.369v-44.369h19.105v44.369zm-6.008-9.853h-19.195v-34.516h19.105zm-19.105 6.008h6.579v20.367h-6.669zm12.586 0h6.519v20.367h-6.519zm54.523 3.845h-16.882v-44.369h16.882zm0-66.959h-16.882v-44.369h16.882zm-73.207-44.369v44.429h-19.105v-44.429zm6.008 0h19.105v44.429h-19.105zm25.113 0h19.105v44.429h-19.105zm42.056-22.53h-16.882v-44.429h16.882zm-73.177-44.429v44.429h-19.105v-44.429zm6.008 0h19.105v44.429h-19.105zm25.113 0h19.105v44.429h-19.105zm42.056-22.53h-16.882v-44.429h16.882zm-73.177-44.429v44.429h-19.105v-44.429zm6.008 0h19.105v44.429h-19.105zm25.113 0h19.105v44.429h-19.105zm42.056-22.529h-16.882v-44.429h16.882zm-73.177-44.429v44.429h-19.105v-44.429zm6.008 0h19.105v44.429h-19.105zm25.113 0h19.105v44.429h-19.105zm20.066-52.991h-71.194l35.597-24.032zm-78.103 6.008h84.833v3.725h-84.652zm-9.553 9.733h103.457v14.269h-103.277zm9.553 20.277h84.652v10.965h-84.472zm-15.02 16.973h16.852v44.429h-16.852zm10.454 50.437h94.265v10.514h-94.205zm-10.454 16.521h16.852v44.429h-16.852zm10.454 50.437h94.265v10.514h-94.205zm-10.454 16.522h16.852v44.429h-16.852zm10.454 50.437h94.265v10.514h-94.205zm-10.454 16.522h16.852v44.429h-16.852zm10.454 50.437h94.265v10.514h-94.205zm-10.454 16.522h16.852v44.369h-16.852zm10.514 50.377h31.422v10.514h-31.422zm-7.45 16.522h108.774v3.635h-108.774zm-39.863-6.008h-9.913v-29.709h9.913zm-75.1-29.71v29.709h-18.384v-29.709zm6.008 0h11.295v29.709h-11.205zm17.303 0h12.016v29.709h-12.016zm18.024 0h17.693v29.709h-17.543zm33.615-24.482h-9.913v-30.761h9.913zm-15.921-30.971v30.971h-77.413v-30.761zm15.921-24.513h-9.913v-30.761h9.913zm-15.921-30.971v30.971h-77.413v-30.761zm-9.583-115.984h9.733v34.125h-9.733zm-33.795 0h9.613v34.125h-9.613zm-33.915 0h9.733v34.125h-9.853zm-14.149 26.045h8.081v9.463c.017 2.56 2.096 4.626 4.656 4.626h12.467c2.555 0 4.626-2.071 4.626-4.626v-9.463h12.016v9.463c0 2.555 2.071 4.626 4.626 4.626h12.497c2.555 0 4.626-2.071 4.626-4.626v-9.463h12.016v9.463c0 2.555 2.071 4.626 4.626 4.626h12.467c2.56 0 4.64-2.066 4.656-4.626v-9.463h9.913v65.637h-9.913v-32.443c-.016-2.565-2.091-4.64-4.656-4.656h-80.026c-2.565.016-4.64 2.091-4.656 4.656v32.443h-8.021v-65.637zm91.652 65.637h-77.623v-31.091h77.563zm-100.814 6.008h125.717v12.497h-125.777zm9.012 18.504h8.081v30.971h-7.931zm-9.012 36.979h125.717v12.497h-125.777zm9.012 18.505h8.081v30.971h-7.931zm-9.012 36.979h125.717v12.467h-125.777zm9.012 18.475h8.081v29.709h-7.931zm-9.012 35.717h125.717v3.485h-125.777zm304.454-84.833c-4.176-3.965-6.008-10.033-5.437-18.024 1.232-17.814 7.059-32.894 15.591-40.283 2.552-2.548 6.007-3.984 9.613-3.995 9.012.661 19.676 16.672 21.028 41.395.114 2.478 2.208 4.397 4.686 4.296 4.776-.24 16.071.601 18.294 13.668 1.015 5.169-.751 10.492-4.656 14.029-5.942 4.941-13.658 7.212-21.328 6.278 5.263-4.811 8.487-11.453 9.012-18.565 0-1.659-1.345-3.004-3.004-3.004s-3.004 1.345-3.004 3.004c0 .601-.391 14.299-17.754 20.307v-42.356c0-1.659-1.345-3.004-3.004-3.004s-3.004 1.345-3.004 3.004v28.868c-6.197.309-12.287-1.693-17.093-5.617zm36.409 39.683c0-3.425 4.566-6.338 9.943-6.338s9.943 3.004 9.943 6.338-4.566 6.338-9.943 6.338-10.003-2.914-10.003-6.338z"
                  fill="url(#Contour-50_1_)"></path>
        </g>
    </g>
</svg>
