<!-- icon666.com - MILLIONS vector ICONS FREE -->
<svg id="Capa_1" enable-background="new 0 0 610.049 610.049" viewBox="0 0 610.049 610.049"
     xmlns="http://www.w3.org/2000/svg" xmlns:xlink="http://www.w3.org/1999/xlink">
    <linearGradient id="Contour_1_" gradientTransform="matrix(2.522 0 0 -2.522 3.152 1672.98)"
                    gradientUnits="userSpaceOnUse" x1="70.301" x2="189.631" y1="483.733" y2="603.062">
        <stop offset="0" stop-color="#ffb56b"></stop>
        <stop offset="1" stop-color="#bd5e00"></stop>
    </linearGradient>
    <linearGradient id="lg1">
        <stop offset="0" stop-color="#3d1f00"></stop>
        <stop offset="1" stop-color="#693400"></stop>
    </linearGradient>
    <linearGradient id="Contour-2_1_" gradientTransform="matrix(2.522 0 0 -2.522 3.152 1672.98)"
                    gradientUnits="userSpaceOnUse" x1="126.661" x2="131.699" xlink:href="#lg1" y1="422.49"
                    y2="427.528"></linearGradient>
    <linearGradient id="Contour-3_1_" gradientTransform="matrix(2.522 0 0 -2.522 3.152 1672.98)"
                    gradientUnits="userSpaceOnUse" x1="14.165" x2="19.203" xlink:href="#lg1" y1="562.225"
                    y2="567.275"></linearGradient>
    <linearGradient id="Contour-4_1_" gradientTransform="matrix(2.522 0 0 -2.522 3.152 1672.98)"
                    gradientUnits="userSpaceOnUse" x1="208.969" x2="214.007" xlink:href="#lg1" y1="627.468"
                    y2="632.518"></linearGradient>
    <linearGradient id="Contour-5_1_" gradientTransform="matrix(2.522 0 0 -2.522 3.152 1672.98)"
                    gradientUnits="userSpaceOnUse" x1="82.528" x2="84.85" xlink:href="#lg1" y1="657.748"
                    y2="660.071"></linearGradient>
    <linearGradient id="Contour-6_1_" gradientTransform="matrix(2.522 0 0 -2.522 3.152 1672.98)"
                    gradientUnits="userSpaceOnUse" x1="85.088" x2="87.375" xlink:href="#lg1" y1="660.309"
                    y2="662.596"></linearGradient>
    <linearGradient id="Contour-7_1_" gradientTransform="matrix(2.522 0 0 -2.522 3.152 1672.98)"
                    gradientUnits="userSpaceOnUse" x1="87.711" x2="89.986" xlink:href="#lg1" y1="657.781"
                    y2="660.068"></linearGradient>
    <linearGradient id="Contour-8_1_" gradientTransform="matrix(2.522 0 0 -2.522 3.152 1672.98)"
                    gradientUnits="userSpaceOnUse" x1="85.139" x2="87.426" xlink:href="#lg1" y1="655.22"
                    y2="657.495"></linearGradient>
    <linearGradient id="Contour-9_1_" gradientTransform="matrix(2.522 0 0 -2.522 3.152 1672.98)"
                    gradientUnits="userSpaceOnUse" x1="232.446" x2="234.768" xlink:href="#lg1" y1="510.224"
                    y2="512.559"></linearGradient>
    <linearGradient id="Contour-10_1_" gradientTransform="matrix(2.522 0 0 -2.522 3.152 1672.98)"
                    gradientUnits="userSpaceOnUse" x1="235.033" x2="237.307" xlink:href="#lg1" y1="512.783"
                    y2="515.057"></linearGradient>
    <linearGradient id="Contour-11_1_" gradientTransform="matrix(2.522 0 0 -2.522 3.152 1672.98)"
                    gradientUnits="userSpaceOnUse" x1="237.624" x2="239.911" xlink:href="#lg1" y1="510.275"
                    y2="512.561"></linearGradient>
    <linearGradient id="Contour-12_1_" gradientTransform="matrix(2.522 0 0 -2.522 3.152 1672.98)"
                    gradientUnits="userSpaceOnUse" x1="235.037" x2="237.312" xlink:href="#lg1" y1="507.728"
                    y2="510.015"></linearGradient>
    <linearGradient id="Contour-13_1_" gradientTransform="matrix(2.522 0 0 -2.522 3.152 1672.98)"
                    gradientUnits="userSpaceOnUse" x1="-.532" x2="1.803" xlink:href="#lg1" y1="453.793"
                    y2="456.116"></linearGradient>
    <linearGradient id="Contour-14_1_" gradientTransform="matrix(2.522 0 0 -2.522 3.152 1672.98)"
                    gradientUnits="userSpaceOnUse" x1="2.063" x2="4.338" xlink:href="#lg1" y1="456.331"
                    y2="458.618"></linearGradient>
    <linearGradient id="Contour-15_1_" gradientTransform="matrix(2.522 0 0 -2.522 3.152 1672.98)"
                    gradientUnits="userSpaceOnUse" x1="4.655" x2="6.93" xlink:href="#lg1" y1="453.835"
                    y2="456.121"></linearGradient>
    <linearGradient id="Contour-16_1_" gradientTransform="matrix(2.522 0 0 -2.522 3.152 1672.98)"
                    gradientUnits="userSpaceOnUse" x1="2.068" x2="4.343" xlink:href="#lg1" y1="451.288"
                    y2="453.563"></linearGradient>
    <linearGradient id="lg2">
        <stop offset="0" stop-color="#964b00"></stop>
        <stop offset="1" stop-color="#bd732a"></stop>
    </linearGradient>
    <linearGradient id="Contour-18_1_" gradientTransform="matrix(2.522 0 0 -2.522 3.152 1672.98)"
                    gradientUnits="userSpaceOnUse" x1="96.212" x2="155.109" xlink:href="#lg2" y1="465.205"
                    y2="524.115"></linearGradient>
    <linearGradient id="Contour-21_1_" gradientTransform="matrix(2.522 0 0 -2.522 3.152 1672.98)"
                    gradientUnits="userSpaceOnUse" x1="104.636" x2="111.532" xlink:href="#lg2" y1="504.567"
                    y2="511.463"></linearGradient>
    <linearGradient id="Contour-23_1_" gradientTransform="matrix(2.522 0 0 -2.522 3.152 1672.98)"
                    gradientUnits="userSpaceOnUse" x1="114.108" x2="119.661" xlink:href="#lg2" y1="505.1"
                    y2="510.665"></linearGradient>
    <linearGradient id="Contour-25_1_" gradientTransform="matrix(2.522 0 0 -2.522 3.152 1672.98)"
                    gradientUnits="userSpaceOnUse" x1="104.633" x2="111.529" xlink:href="#lg2" y1="478.176"
                    y2="485.072"></linearGradient>
    <linearGradient id="Contour-27_1_" gradientTransform="matrix(2.522 0 0 -2.522 3.152 1672.98)"
                    gradientUnits="userSpaceOnUse" x1="113.809" x2="119.537" xlink:href="#lg2" y1="478.863"
                    y2="484.603"></linearGradient>
    <linearGradient id="Contour-28_1_" gradientTransform="matrix(2.522 0 0 -2.522 3.152 1672.98)"
                    gradientUnits="userSpaceOnUse" x1="99.471" x2="106.343" xlink:href="#lg2" y1="529.074"
                    y2="535.946"></linearGradient>
    <linearGradient id="Contour-30_1_" gradientTransform="matrix(2.522 0 0 -2.522 3.152 1672.98)"
                    gradientUnits="userSpaceOnUse" x1="112.718" x2="118.101" xlink:href="#lg2" y1="529.501"
                    y2="534.884"></linearGradient>
    <linearGradient id="Contour-32_1_" gradientTransform="matrix(2.522 0 0 -2.522 3.152 1672.98)"
                    gradientUnits="userSpaceOnUse" x1="128.324" x2="135.206" xlink:href="#lg2" y1="453.633"
                    y2="460.503"></linearGradient>
    <linearGradient id="Contour-34_1_" gradientTransform="matrix(2.522 0 0 -2.522 3.152 1672.98)"
                    gradientUnits="userSpaceOnUse" x1="116.6" x2="121.974" xlink:href="#lg2" y1="454.669"
                    y2="460.055"></linearGradient>
    <linearGradient id="Contour-37_1_" gradientTransform="matrix(2.522 0 0 -2.522 3.152 1672.98)"
                    gradientUnits="userSpaceOnUse" x1="88.678" x2="93.624" xlink:href="#lg2" y1="518.944"
                    y2="523.902"></linearGradient>
    <linearGradient id="Contour-38_1_" gradientTransform="matrix(2.522 0 0 -2.522 3.152 1672.98)"
                    gradientUnits="userSpaceOnUse" x1="88.678" x2="93.624" xlink:href="#lg2" y1="465.347"
                    y2="470.305"></linearGradient>
    <linearGradient id="Contour-40_1_" gradientTransform="matrix(2.522 0 0 -2.522 3.152 1672.98)"
                    gradientUnits="userSpaceOnUse" x1="129.289" x2="134.241" xlink:href="#lg2" y1="545.84"
                    y2="550.792"></linearGradient>
    <linearGradient id="Contour-41_1_" gradientTransform="matrix(2.522 0 0 -2.522 3.152 1672.98)"
                    gradientUnits="userSpaceOnUse" x1="163.385" x2="168.343" xlink:href="#lg2" y1="499.703"
                    y2="504.649"></linearGradient>
    <linearGradient id="Contour-42_1_" gradientTransform="matrix(2.522 0 0 -2.522 3.152 1672.98)"
                    gradientUnits="userSpaceOnUse" x1="65.655" x2="70.601" xlink:href="#lg2" y1="483.975"
                    y2="488.933"></linearGradient>
    <linearGradient id="Contour-43_1_" gradientTransform="matrix(2.522 0 0 -2.522 3.152 1672.98)"
                    gradientUnits="userSpaceOnUse" x1="92.721" x2="137.456" xlink:href="#lg2" y1="570.479"
                    y2="615.214"></linearGradient>
    <linearGradient id="Contour-45_1_" gradientTransform="matrix(2.522 0 0 -2.522 3.152 1672.98)"
                    gradientUnits="userSpaceOnUse" x1="44.325" x2="76.113" xlink:href="#lg2" y1="566.303"
                    y2="598.092"></linearGradient>
    <linearGradient id="Contour-47_1_" gradientTransform="matrix(2.522 0 0 -2.522 3.152 1672.98)"
                    gradientUnits="userSpaceOnUse" x1="158.817" x2="198.543" xlink:href="#lg2" y1="561.007"
                    y2="600.732"></linearGradient>
    <linearGradient id="Contour-49_1_" gradientTransform="matrix(2.522 0 0 -2.522 3.152 1672.98)"
                    gradientUnits="userSpaceOnUse" x1="101.199" x2="135.461" xlink:href="#lg1" y1="477.568"
                    y2="511.841"></linearGradient>
    <linearGradient id="Contour-50_1_" gradientTransform="matrix(2.522 0 0 -2.522 3.152 1672.98)"
                    gradientUnits="userSpaceOnUse" x1="78.686" x2="150.163" xlink:href="#lg1" y1="465.125"
                    y2="536.59"></linearGradient>
    <linearGradient id="Contour-51_1_" gradientTransform="matrix(2.522 0 0 -2.522 3.152 1672.98)"
                    gradientUnits="userSpaceOnUse" x1="141.433" x2="148.067" xlink:href="#lg1" y1="518.115"
                    y2="524.737"></linearGradient>
    <linearGradient id="Contour-52_1_" gradientTransform="matrix(2.522 0 0 -2.522 3.152 1672.98)"
                    gradientUnits="userSpaceOnUse" x1="87.968" x2="94.607" xlink:href="#lg1" y1="518.115"
                    y2="524.742"></linearGradient>
    <linearGradient id="Contour-53_1_" gradientTransform="matrix(2.522 0 0 -2.522 3.152 1672.98)"
                    gradientUnits="userSpaceOnUse" x1="141.293" x2="147.927" xlink:href="#lg1" y1="464.096"
                    y2="470.718"></linearGradient>
    <linearGradient id="Contour-54_1_" gradientTransform="matrix(2.522 0 0 -2.522 3.152 1672.98)"
                    gradientUnits="userSpaceOnUse" x1="87.84" x2="94.462" xlink:href="#lg1" y1="464.098"
                    y2="470.72"></linearGradient>
    <linearGradient id="Contour-55_1_" gradientTransform="matrix(2.522 0 0 -2.522 3.152 1672.98)"
                    gradientUnits="userSpaceOnUse" x1="91.005" x2="143.316" xlink:href="#lg1" y1="570.408"
                    y2="622.719"></linearGradient>
    <linearGradient id="Contour-56_1_" gradientTransform="matrix(2.522 0 0 -2.522 3.152 1672.98)"
                    gradientUnits="userSpaceOnUse" x1="105.238" x2="129.166" xlink:href="#lg1" y1="584.497"
                    y2="608.425"></linearGradient>
    <linearGradient id="Contour-57_1_" gradientTransform="matrix(2.522 0 0 -2.522 3.152 1672.98)"
                    gradientUnits="userSpaceOnUse" x1="102.425" x2="131.979" xlink:href="#lg1" y1="581.684"
                    y2="611.238"></linearGradient>
    <linearGradient id="Contour-58_1_" gradientTransform="matrix(2.522 0 0 -2.522 3.152 1672.98)"
                    gradientUnits="userSpaceOnUse" x1="102.112" x2="108.388" xlink:href="#lg1" y1="618.882"
                    y2="625.147"></linearGradient>
    <linearGradient id="Contour-59_1_" gradientTransform="matrix(2.522 0 0 -2.522 3.152 1672.98)"
                    gradientUnits="userSpaceOnUse" x1="126.051" x2="132.328" xlink:href="#lg1" y1="618.882"
                    y2="625.147"></linearGradient>
    <linearGradient id="Contour-60_1_" gradientTransform="matrix(2.522 0 0 -2.522 3.152 1672.98)"
                    gradientUnits="userSpaceOnUse" x1="136.324" x2="142.6" xlink:href="#lg1" y1="575.856"
                    y2="582.133"></linearGradient>
    <linearGradient id="Contour-61_1_" gradientTransform="matrix(2.522 0 0 -2.522 3.152 1672.98)"
                    gradientUnits="userSpaceOnUse" x1="113.897" x2="120.174" xlink:href="#lg1" y1="565.874"
                    y2="572.151"></linearGradient>
    <linearGradient id="Contour-62_1_" gradientTransform="matrix(2.522 0 0 -2.522 3.152 1672.98)"
                    gradientUnits="userSpaceOnUse" x1="141.832" x2="148.109" xlink:href="#lg1" y1="600.23"
                    y2="606.507"></linearGradient>
    <linearGradient id="Contour-63_1_" gradientTransform="matrix(2.522 0 0 -2.522 3.152 1672.98)"
                    gradientUnits="userSpaceOnUse" x1="86.512" x2="92.789" xlink:href="#lg1" y1="600.215"
                    y2="606.492"></linearGradient>
    <linearGradient id="Contour-64_1_" gradientTransform="matrix(2.522 0 0 -2.522 3.152 1672.98)"
                    gradientUnits="userSpaceOnUse" x1="91.767" x2="98.044" xlink:href="#lg1" y1="575.856"
                    y2="582.133"></linearGradient>
    <linearGradient id="Contour-65_2_" gradientTransform="matrix(2.522 0 0 -2.522 3.152 1672.98)"
                    gradientUnits="userSpaceOnUse" x1="157.953" x2="199.412" xlink:href="#lg1" y1="560.158"
                    y2="601.616"></linearGradient>
    <linearGradient id="Contour-66_2_" gradientTransform="matrix(2.522 0 0 -2.522 3.152 1672.98)"
                    gradientUnits="userSpaceOnUse" x1="167.401" x2="189.625" xlink:href="#lg1" y1="570.898"
                    y2="593.111"></linearGradient>
    <linearGradient id="Contour-67_2_" gradientTransform="matrix(2.522 0 0 -2.522 3.152 1672.98)"
                    gradientUnits="userSpaceOnUse" x1="43.53" x2="77.01" xlink:href="#lg1" y1="565.524"
                    y2="599.004"></linearGradient>
    <linearGradient id="Contour-68_2_" gradientTransform="matrix(2.522 0 0 -2.522 3.152 1672.98)"
                    gradientUnits="userSpaceOnUse" x1="52.616" x2="68.37" xlink:href="#lg1" y1="574.585"
                    y2="590.351"></linearGradient>
    <linearGradient id="Contour-69_2_" gradientTransform="matrix(2.522 0 0 -2.522 3.152 1672.98)"
                    gradientUnits="userSpaceOnUse" x1="159.899" x2="168.298" xlink:href="#lg1" y1="497.976"
                    y2="506.375"></linearGradient>
    <linearGradient id="Contour-70_2_" gradientTransform="matrix(2.522 0 0 -2.522 3.152 1672.98)"
                    gradientUnits="userSpaceOnUse" x1="150.563" x2="190.673" xlink:href="#lg1" y1="491.588"
                    y2="531.71"></linearGradient>
    <linearGradient id="Contour-71_1_" gradientTransform="matrix(2.522 0 0 -2.522 3.152 1672.98)"
                    gradientUnits="userSpaceOnUse" x1="66.163" x2="75.501" xlink:href="#lg1" y1="481.797"
                    y2="491.135"></linearGradient>
    <linearGradient id="Contour-72_1_" gradientTransform="matrix(2.522 0 0 -2.522 3.152 1672.98)"
                    gradientUnits="userSpaceOnUse" x1="53.899" x2="79.786" xlink:href="#lg1" y1="510.938"
                    y2="536.837"></linearGradient>
    <g>
        <g id="Icon_35">
            <path id="Contour_18_"
                  d="m162.335 397.187c-1.736-3.263-5.37-5.043-9.012-4.416-17.754 3.004-68.761 4.566-72.726-74.889-4.806-96.338 111.988-260.866 283.486-228.153 137.733 26.285 34.906 157.319 119.258 190.393 49.416 19.346 94.055 118.567-15.621 204.752-59.328 46.591-211.54 87.776-305.385-87.687z"
                  fill="url(#Contour_1_)"></path>
            <path id="Contour-2_18_"
                  d="m328.966 610.049c-4.977 0-9.012-4.035-9.012-9.012s4.035-9.012 9.012-9.012 9.012 4.035 9.012 9.012-4.034 9.012-9.012 9.012zm0-12.016c-1.659 0-3.004 1.345-3.004 3.004s1.345 3.004 3.004 3.004 3.004-1.345 3.004-3.004-1.345-3.004-3.004-3.004z"
                  fill="url(#Contour-2_1_)"></path>
            <path id="Contour-3_18_"
                  d="m45.18 257.652c-4.977 0-9.012-4.035-9.012-9.012s4.035-9.012 9.012-9.012 9.012 4.035 9.012 9.012-4.035 9.012-9.012 9.012zm0-12.016c-1.659 0-3.004 1.345-3.004 3.004s1.345 3.004 3.004 3.004 3.004-1.345 3.004-3.004c-.016-1.647-1.357-2.974-3.004-2.974z"
                  fill="url(#Contour-3_1_)"></path>
            <path id="Contour-4_18_"
                  d="m536.572 93.033c-4.977 0-9.012-4.035-9.012-9.012s4.035-9.012 9.012-9.012 9.012 4.035 9.012 9.012-4.035 9.012-9.012 9.012zm0-12.016c-1.659 0-3.004 1.345-3.004 3.004s1.345 3.004 3.004 3.004 3.004-1.345 3.004-3.004-1.345-3.004-3.004-3.004z"
                  fill="url(#Contour-4_1_)"></path>
            <g id="Group_18_">
                <path id="Contour-5_18_"
                      d="m218.84 11.115c0-1.659-1.345-3.004-3.004-3.004h-3.244c-1.659 0-3.004 1.345-3.004 3.004s1.345 3.004 3.004 3.004h3.244c1.659 0 3.004-1.345 3.004-3.004z"
                      fill="url(#Contour-5_1_)"></path>
                <path id="Contour-6_18_"
                      d="m220.703 9.252c1.659 0 3.004-1.345 3.004-3.004v-3.244c0-1.659-1.345-3.004-3.004-3.004s-3.004 1.345-3.004 3.004v3.244c0 1.659 1.345 3.004 3.004 3.004z"
                      fill="url(#Contour-6_1_)"></path>
                <path id="Contour-7_18_"
                      d="m228.814 8.111h-3.244c-1.659 0-3.004 1.345-3.004 3.004s1.345 3.004 3.004 3.004h3.244c1.659 0 3.004-1.345 3.004-3.004s-1.345-3.004-3.004-3.004z"
                      fill="url(#Contour-7_1_)"></path>
                <path id="Contour-8_18_"
                      d="m220.703 12.977c-1.659 0-3.004 1.345-3.004 3.004v3.244c0 1.659 1.345 3.004 3.004 3.004s3.004-1.345 3.004-3.004v-3.244c0-1.659-1.345-3.004-3.004-3.004z"
                      fill="url(#Contour-8_1_)"></path>
            </g>
            <g id="Group-2_18_">
                <path id="Contour-9_18_"
                      d="m596.982 383.158c0-1.659-1.345-3.004-3.004-3.004h-3.244c-1.659 0-3.004 1.345-3.004 3.004s1.345 3.004 3.004 3.004h3.244c1.659 0 3.004-1.345 3.004-3.004z"
                      fill="url(#Contour-9_1_)"></path>
                <path id="Contour-10_18_"
                      d="m598.814 381.296c1.659 0 3.004-1.345 3.004-3.004v-3.214c-.111-1.576-1.424-2.798-3.004-2.794-1.58-.004-2.893 1.217-3.004 2.794v3.214c0 1.659 1.345 3.004 3.004 3.004z"
                      fill="url(#Contour-10_1_)"></path>
                <path id="Contour-11_18_"
                      d="m606.925 380.154h-3.244c-1.659 0-3.004 1.345-3.004 3.004s1.345 3.004 3.004 3.004h3.244c1.659 0 3.004-1.345 3.004-3.004s-1.345-3.004-3.004-3.004z"
                      fill="url(#Contour-11_1_)"></path>
                <path id="Contour-12_18_"
                      d="m598.814 385.021c-1.659 0-3.004 1.345-3.004 3.004v3.244c.126 1.565 1.434 2.769 3.004 2.764 1.57.005 2.878-1.199 3.004-2.764v-3.244c0-1.659-1.345-3.004-3.004-3.004z"
                      fill="url(#Contour-12_1_)"></path>
            </g>
            <g id="Group-3_18_">
                <path id="Contour-13_18_"
                      d="m9.372 525.517c0-1.659-1.345-3.004-3.004-3.004h-3.244c-1.659 0-3.004 1.345-3.004 3.004s1.345 3.004 3.004 3.004h3.244c1.66 0 3.004-1.345 3.004-3.004z"
                      fill="url(#Contour-13_1_)"></path>
                <path id="Contour-14_18_"
                      d="m11.235 523.655c1.659 0 3.004-1.345 3.004-3.004v-3.244c-.126-1.565-1.434-2.769-3.004-2.764-1.57-.005-2.878 1.199-3.004 2.764v3.244c0 1.659 1.345 3.004 3.004 3.004z"
                      fill="url(#Contour-14_1_)"></path>
                <path id="Contour-15_18_"
                      d="m19.316 522.513h-3.244c-1.659 0-3.004 1.345-3.004 3.004s1.345 3.004 3.004 3.004h3.244c1.659 0 3.004-1.345 3.004-3.004s-1.345-3.004-3.004-3.004z"
                      fill="url(#Contour-15_1_)"></path>
                <path id="Contour-16_18_"
                      d="m11.235 527.38c-1.659 0-3.004 1.345-3.004 3.004v3.244c.126 1.565 1.434 2.769 3.004 2.764 1.57.005 2.878-1.199 3.004-2.764v-3.244c0-1.659-1.345-3.004-3.004-3.004z"
                      fill="url(#Contour-16_1_)"></path>
            </g>
            <path id="Contour-17_18_"
                  d="m379.163 512.33c4.645 0 8.411-3.766 8.411-8.411v-28.478c0-.78-.632-1.412-1.412-1.412h-14.539c-.78 0-1.412-.632-1.412-1.412v-16.942c0-.78.632-1.412 1.412-1.412h14.539c.768 0 1.396-.614 1.412-1.382v-15.02c-.016-.768-.644-1.382-1.412-1.382h-14.539c-.78 0-1.412-.632-1.412-1.412v-16.973c.016-.768.644-1.382 1.412-1.382h14.539c.78 0 1.412-.632 1.412-1.412v-15.53c0-.78-.632-1.412-1.412-1.412h-14.539c-.768 0-1.396-.614-1.412-1.382v-16.973c0-.78.632-1.412 1.412-1.412h14.539c.763.017 1.395-.589 1.412-1.351 0-.01 0-.02 0-.03v-30.7c0-4.645-3.766-8.411-8.411-8.411h-157.409c-4.645 0-8.411 3.766-8.411 8.411v30.761c0 .763.618 1.382 1.382 1.382h.03 14.569c.768.016 1.382.644 1.382 1.412v16.973c-.016.756-.625 1.366-1.382 1.382h-14.569c-.734.031-1.321.618-1.352 1.352v15.501c0 .78.632 1.412 1.412 1.412h14.509c.756.016 1.366.625 1.382 1.382v16.973c0 .768-.614 1.396-1.382 1.412h-14.569c-.768 0-1.396.614-1.412 1.382v15.02c.016.768.644 1.382 1.412 1.382h14.569c.768.016 1.382.644 1.382 1.412v16.942c0 .768-.614 1.396-1.382 1.412h-14.569c-.78 0-1.412.632-1.412 1.412v28.478c.016 4.639 3.773 8.395 8.411 8.411z"
                  fill="#fff"></path>
            <path id="Contour-18_18_"
                  d="m258.042 338.099v173.78h3.395 121.451l4.686-7.961v-31.932l-17.934.631v-16.943l17.934-2.793v-14.99l-17.934-2.794 1.442-18.354 16.492-1.412-1.442-16.912-16.492-1.382 1.442-18.385 16.492-1.381v-32.984l-8.681-6.188z"
                  fill="url(#Contour-18_1_)"></path>
            <path id="Contour-19_18_"
                  d="m265.102 381.656h47.253c3.899 0 7.059 3.161 7.059 7.059v72.997c0 3.899-3.161 7.059-7.059 7.059h-47.253c-3.899 0-7.059-3.161-7.059-7.059v-72.997c-.001-3.898 3.16-7.059 7.059-7.059z"
                  fill="#fff"></path>
            <path id="Contour-20_18_"
                  d="m319.414 381.746h14.78v18.474c0 2.041-1.654 3.695-3.695 3.695h-7.39c-2.041 0-3.695-1.654-3.695-3.695z"
                  fill="#fff"></path>
            <path id="Contour-21_18_"
                  d="m268.346 381.746h14.78v18.474c-.048 1.982-1.652 3.573-3.635 3.605h-7.45c-2.041 0-3.695-1.654-3.695-3.695z"
                  fill="url(#Contour-21_1_)"></path>
            <path id="Contour-22_18_"
                  d="m295.382 381.746h14.78v18.474c0 2.041-1.654 3.695-3.695 3.695h-7.39c-2.041 0-3.695-1.654-3.695-3.695z"
                  fill="#fff"></path>
            <path id="Contour-23_18_"
                  d="m294.21 381.746h7.39v19.556c0 1.443-1.17 2.613-2.613 2.613h-2.163c-1.443 0-2.613-1.17-2.613-2.613v-19.556z"
                  fill="url(#Contour-23_1_)"></path>
            <path id="Contour-24_18_"
                  d="m323.109 446.062h7.45c2.041 0 3.695 1.654 3.695 3.695v18.474h-14.78v-18.474c0-2.018 1.618-3.662 3.635-3.695z"
                  fill="#fff"></path>
            <path id="Contour-25_18_"
                  d="m272.041 446.062h7.45c2.041 0 3.695 1.654 3.695 3.695v18.474h-14.84v-18.474c0-2.041 1.654-3.695 3.695-3.695z"
                  fill="url(#Contour-25_1_)"></path>
            <path id="Contour-26_18_"
                  d="m296.073 446.062h7.45c2.041 0 3.695 1.654 3.695 3.695v18.474h-14.84v-18.474c0-2.041 1.654-3.695 3.695-3.695z"
                  fill="#fff"></path>
            <path id="Contour-27_18_"
                  d="m296.013 446.062h2.794c1.543 0 2.794 1.251 2.794 2.794v19.406h-8.381v-19.406c-.001-1.543 1.25-2.794 2.793-2.794z"
                  fill="url(#Contour-27_1_)"></path>
            <path id="Contour-28_17_"
                  d="m253.566 338.099v-16.041c.077-.676.688-1.161 1.364-1.084.006.001.012.001.018.002h15.531c.675-.087 1.292.389 1.38 1.063.001.006.002.012.002.018v16.041h-18.295z"
                  fill="url(#Contour-28_1_)"></path>
            <path id="Contour-29_16_"
                  d="m289.945 338.099v-16.041c.108-.679.729-1.154 1.412-1.081h15.471c.677-.071 1.288.407 1.382 1.081v16.041z"
                  fill="#fff"></path>
            <path id="Contour-30_15_"
                  d="m289.284 339.3v-16.612c0-.631.33-1.111.751-1.111h8.411c.421 0 .751.481.751 1.111v16.612z"
                  fill="url(#Contour-30_1_)"></path>
            <path id="Contour-31_13_"
                  d="m326.353 338.099v-16.041c.108-.679.729-1.154 1.412-1.081h15.44c.683-.072 1.304.403 1.412 1.081v16.041z"
                  fill="#fff"></path>
            <path id="Contour-32_13_"
                  d="m344.617 511.969v16.071c-.108.679-.728 1.154-1.412 1.081h-15.44c-.683.073-1.304-.403-1.412-1.081v-16.071z"
                  fill="url(#Contour-32_1_)"></path>
            <path id="Contour-33_12_"
                  d="m308.209 511.969v16.071c-.108.666-.71 1.137-1.382 1.081h-15.32c-.683.073-1.304-.403-1.412-1.081v-16.071z"
                  fill="#fff"></path>
            <path id="Contour-34_9_"
                  d="m308.9 510.918v16.612c0 .631-.33 1.111-.751 1.111h-8.411c-.421 0-.781-.481-.781-1.111v-16.612z"
                  fill="url(#Contour-34_1_)"></path>
            <path id="Contour-35_8_"
                  d="m271.801 511.969v16.071c-.093.674-.705 1.153-1.382 1.081h-15.471c-.677.071-1.288-.407-1.382-1.081v-16.071z"
                  fill="#fff"></path>
            <circle id="Contour-36_7_" cx="368.228" cy="357.865" fill="#fff" r="8.832"></circle>
            <circle id="Contour-37_7_" cx="233.049" cy="357.865" fill="url(#Contour-37_1_)" r="8.832"></circle>
            <circle id="Contour-38_6_" cx="233.049" cy="493.044" fill="url(#Contour-38_1_)" r="8.832"></circle>
            <circle id="Contour-39_6_" cx="367.898" cy="494.095" fill="#fff" r="8.832"></circle>
            <circle id="Contour-40_6_" cx="335.485" cy="290.035" fill="url(#Contour-40_1_)" r="8.832"></circle>
            <circle id="Contour-41_6_" cx="421.489" cy="406.409" fill="url(#Contour-41_1_)" r="8.832"></circle>
            <circle id="Contour-42_6_" cx="174.982" cy="446.062" fill="url(#Contour-42_1_)" r="8.832"></circle>
            <path id="Contour-43_4_"
                  d="m365.555 191.023c-3.849 5.24-8.386 9.938-13.488 13.969 4.263-1.627 9.037.51 10.664 4.772 1.627 4.263-.51 9.037-4.772 10.664-4.263 1.627-9.037-.51-10.664-4.772-1.011-2.649-.593-5.631 1.107-7.9-32.948 22.914-78.233 14.781-101.147-18.167-6.741-9.693-11.019-20.882-12.463-32.6-3.26 3.12-8.432 3.007-11.553-.253-3.12-3.26-3.007-8.432.253-11.553 2.542-2.433 6.356-2.965 9.467-1.321.487.258.95.559 1.382.901.23-5.069.975-10.102 2.223-15.02l.871-.33c-.773.267-1.567.468-2.373.601l-20.247 3.004c-.504.084-.907.464-1.021.961l-6.008 25.714c-.117.504.086 1.027.511 1.322l16.912 11.565c6.817 4.7 8.905 13.833 4.806 21.028l-10.184 17.754c-.297.424-.297.988 0 1.412l16.462 20.637c.322.404.858.57 1.352.421l19.556-6.008c8.093-2.467 16.706 1.8 19.646 9.733l7.51 19.045c.195.474.659.783 1.172.781h26.375c.516.011.983-.301 1.172-.781l7.54-19.045c3.041-7.749 11.539-11.847 19.496-9.402l19.586 6.008c.494.141 1.025-.024 1.352-.421l16.432-20.637c.297-.424.297-.988 0-1.412l-10.214-17.754c-4.092-7.202-1.991-16.338 4.836-21.028l16.882-11.565s0 0 .21-.24l-25.023 16.282zm-117.155 27.427c-3.194 3.212-8.386 3.226-11.598.032s-3.226-8.386-.032-11.598 8.386-3.226 11.598-.032l.032.032c3.169 3.213 3.133 8.386-.08 11.555-.003.003-.007.007-.01.01h.09zm56.204 25.564c-3.202 3.203-8.395 3.204-11.598.002s-3.204-8.394-.002-11.598c3.202-3.203 8.394-3.204 11.598-.002.001.001.002.002.002.002 3.177 3.181 3.175 8.335-.006 11.513-.028.028-.056.055-.084.083z"
                  fill="url(#Contour-43_1_)"></path>
            <path id="Contour-44_4_"
                  d="m383.759 131.304h-13.308l-7.961-1.232c-1.534-.247-3.023-.723-4.416-1.412h-.27c-3.007-1.516-5.457-3.945-6.999-6.939l.991-2.163-2.433-2.193c-.256-1.325-.347-2.678-.27-4.025l1.502-20.427c.046-.522-.243-1.016-.721-1.232l-23.762-11.445c-.457-.242-1.018-.157-1.382.21l-6.969 4.266c-4.115 3.965-7.991 6.008-10.093 8.561-1.839 2.404-4.761 3.724-7.78 3.515-4.206.27-8.531.631-12.016-2.433l-15.02-13.908c-.378-.363-.944-.448-1.412-.21l-23.731 11.445c-.478.215-.767.71-.721 1.232l1.502 20.427v.751.811c.3 4.504-1.73 8.846-5.377 11.505-.571.451-1.142.841-1.682 1.202-.771.51-1.585.953-2.433 1.322-.512.188-1.033.348-1.562.481l-.781.27c-1.248 4.918-1.993 9.951-2.223 15.02 3.002 2.47 3.867 6.704 2.073 10.153-.421.777-.969 1.478-1.622 2.073 4.91 39.831 41.179 68.14 81.01 63.231 11.718-1.444 22.907-5.722 32.6-12.463.204-.31.435-.602.691-.871.857-.835 1.881-1.48 3.004-1.893 5.102-4.03 9.639-8.729 13.488-13.969l2.613-11.625 21.028-18.475c.26-.296.37-.694.3-1.081zm-54.793-35.357c4.529-.017 8.214 3.642 8.231 8.171s-3.642 8.214-8.171 8.231-8.214-3.642-8.231-8.171c0-.01 0-.02 0-.03.001-4.517 3.654-8.184 8.171-8.201zm-60.38 0c4.529-.017 8.214 3.642 8.231 8.171s-3.642 8.214-8.171 8.231-8.214-3.642-8.231-8.171c0-.01 0-.02 0-.03 0-4.517 3.654-8.184 8.171-8.201zm30.04 112.349c-21.916 0-39.683-17.767-39.683-39.683s17.767-39.683 39.683-39.683 39.683 17.767 39.683 39.683c0 21.881-17.712 39.633-39.593 39.683zm75.791-51.398c-3.194 3.212-8.386 3.226-11.598.032s-3.226-8.386-.032-11.598 8.386-3.226 11.598-.032c.011.011.022.022.032.032 3.219 3.163 3.263 8.336.1 11.555-.003.003-.007.007-.01.01h-.09z"
                  fill="#fff"></path>
            <path id="Contour-45_4_"
                  d="m204.001 203.49 7.9-6.008c.527-.397.754-1.078.571-1.712l-4.206-15.02c-.175-.633-.727-1.089-1.382-1.142l-9.883-1.021c-6.624-.672-11.619-6.321-11.475-12.977l.24-9.943c-.001-.661-.389-1.261-.991-1.532l-14.359-6.008c-.607-.269-1.318-.124-1.772.36l-6.939 7.059c-4.668 4.808-12.254 5.201-17.393.901l-7.63-6.368c-.492-.433-1.204-.505-1.772-.18l-13.698 7.45c-.577.308-.901.944-.811 1.592l1.202 9.883c.825 6.603-3.573 12.729-10.093 14.059l-9.763 1.983c-.636.138-1.124.65-1.232 1.292l-2.674 15.35c-.102.651.194 1.301.751 1.652l8.471 5.197c5.681 3.477 7.724 10.744 4.686 16.672l-4.506 9.012c-.299.578-.215 1.28.21 1.772l10.334 11.686c.422.511 1.125.693 1.742.451l9.342-3.364c6.259-2.271 13.21.662 15.951 6.729l4.115 9.012c.271.596.878.965 1.532.931l15.591-.781c.65-.031 1.212-.462 1.412-1.081l3.184-9.402c2.145-6.306 8.769-9.912 15.23-8.291l9.643 2.433c.63.146 1.287-.089 1.682-.601l9.012-12.677c.357-.548.357-1.255 0-1.802l-5.377-8.351c-3.68-5.668-2.296-13.222 3.155-17.215zm-47.043 25.474c-13.853.68-25.634-9.999-26.315-23.852-.68-13.853 9.999-25.634 23.852-26.315 13.853-.68 25.634 9.998 26.315 23.851.696 13.836-9.956 25.616-23.791 26.312-.021.002-.041.003-.061.004z"
                  fill="url(#Contour-45_1_)"></path>
            <path id="Contour-46_4_"
                  d="m207.786 178.767s-13.308.631-19.015-3.304c-5.708-3.935-3.995-21.328-3.995-21.328l-14.359-6.008-9.012 9.913c-22.53.014-40.783 18.29-40.768 40.82.014 22.53 18.29 40.783 40.82 40.768 18.933-.012 35.369-13.049 39.691-31.482l12.256-11.205zm-50.828 50.197c-13.853.68-25.634-9.999-26.315-23.852-.68-13.853 9.999-25.634 23.852-26.315 13.853-.68 25.634 9.998 26.315 23.851.696 13.836-9.956 25.616-23.791 26.312-.021.002-.041.003-.061.004z"
                  fill="#fff"></path>
            <path id="Contour-47_4_"
                  d="m509.896 215.175 13.878-8.351c.57-.34.87-.999.751-1.652l-3.274-19.496c-.1-.646-.591-1.161-1.232-1.292l-15.831-3.364c-6.026-1.266-10.059-6.962-9.252-13.067l2.103-16.071c.1-.65-.211-1.295-.781-1.622l-17.303-9.583c-.531-.376-1.241-.376-1.772 0l-12.527 10.304c-4.756 3.9-11.71 3.495-15.981-.931l-11.235-11.625c-.47-.455-1.162-.595-1.772-.36l-18.264 7.54c-.621.233-1.021.84-.991 1.502l.24 17.663c.085 5.326-3.948 9.817-9.252 10.304l-17.573 1.652c-.655.052-1.207.508-1.382 1.142l-5.527 18.985c-.192.634.037 1.32.571 1.712l12.797 9.913c4.88 3.764 6.033 10.654 2.644 15.801l-8.862 13.548c-.373.543-.373 1.259 0 1.802l11.415 16.131c.377.537 1.045.787 1.682.631l15.771-3.815c5.981-1.452 12.074 1.934 13.999 7.78l5.047 15.41c.218.619.787 1.046 1.442 1.081l19.736 1.142c.654.034 1.261-.335 1.532-.931l6.819-14.689c2.625-5.548 9.062-8.159 14.81-6.008l15.02 5.647c.628.22 1.326.043 1.772-.451l13.187-14.689c.449-.491.545-1.21.24-1.802l-7.24-14.479c-2.745-5.549-.739-12.274 4.595-15.412zm-19.706-7.66c-1.179 20.189-18.502 35.601-38.691 34.421-20.189-1.179-35.601-18.502-34.422-38.691 1.179-20.188 18.499-35.598 38.687-34.422 20.19 1.177 35.603 18.498 34.426 38.687z"
                  fill="url(#Contour-47_1_)"></path>
            <path id="Contour-48_4_"
                  d="m462.734 153.444-9.192.961-16.101-15.981-21.208 9.012-.781 24.693-7.029 5.347-20.127 2.403-5.437 20.157 17.724 15.26.931 4.896-11.565 20.037 11.776 16.312 23.822-4.145c27.325 10.27 57.801-3.556 68.07-30.881 10.267-27.326-3.558-57.802-30.883-68.071zm-11.325 88.407c-20.186-1.232-35.552-18.594-34.321-38.781 1.232-20.186 18.594-35.552 38.781-34.321 20.181 1.231 35.545 18.585 34.322 38.766-1.208 20.163-18.528 35.533-38.691 34.336z"
                  fill="#fff"></path>
            <g id="Group-4_15_">
                <path id="Contour-49_4_"
                      d="m337.197 378.742h-71.194c-6.118.211-10.968 5.233-10.965 11.355v70.293c0 6.304 5.111 11.415 11.415 11.415h70.293c6.304 0 11.415-5.111 11.415-11.415v-70.293c.005-6.121-4.845-11.144-10.964-11.355zm-6.008 6.008v15.471c0 .382-.309.691-.691.691h-7.39c-.382 0-.691-.309-.691-.691v-15.471zm-25.203 0v15.471c0 .382-.309.691-.691.691h-7.39c-.382 0-.691-.309-.691-.691v-15.471zm-25.203 0v15.471c0 .382-.309.691-.691.691h-7.39c-.382 0-.691-.309-.691-.691v-15.471zm-8.772 80.567v-15.471c0-.382.309-.691.691-.691h7.39c.382 0 .691.309.691.691v15.471zm25.203 0v-15.471c0-.382.309-.691.691-.691h7.39c.382 0 .691.309.691.691v15.471zm25.204 0v-15.471c0-.382.309-.691.691-.691h7.45c.382 0 .691.309.691.691v15.471zm19.736-4.866c-.007 2.801-2.164 5.128-4.957 5.347v-15.951c0-3.7-2.999-6.699-6.699-6.699h-7.39c-3.7 0-6.699 2.999-6.699 6.699v16.011h-4.416v-16.011c0-3.7-2.999-6.699-6.699-6.699h-7.39c-3.7 0-6.699 2.999-6.699 6.699v16.011h-4.416v-16.011c0-3.7-2.999-6.699-6.699-6.699h-7.39c-3.7 0-6.699 2.999-6.699 6.699v16.011c-2.793-.219-4.949-2.546-4.957-5.347v-70.293c-.056-2.848 2.117-5.245 4.957-5.467v15.41c0 3.7 2.999 6.699 6.699 6.699h7.39c3.7 0 6.699-2.999 6.699-6.699v-15.41h4.416v15.471c0 3.7 2.999 6.699 6.699 6.699h7.39c3.7 0 6.699-2.999 6.699-6.699v-15.472h4.416v15.471c0 3.7 2.999 6.699 6.699 6.699h7.45c3.7 0 6.699-2.999 6.699-6.699v-15.471c2.793.219 4.949 2.546 4.957 5.347z"
                      fill="url(#Contour-49_1_)"></path>
                <path id="Contour-50_3_"
                      d="m379.163 335.095h-31.542v-13.037c-.098-2.345-2.071-4.17-4.416-4.085h-15.44c-2.345-.085-4.318 1.741-4.416 4.085v13.037h-12.016v-13.037c-.098-2.333-2.052-4.153-4.386-4.085h-4.836v-24.933h22.019c1.659 6.323 8.129 10.103 14.452 8.444s10.103-8.129 8.444-14.452-8.129-10.103-14.452-8.444c-4.132 1.084-7.36 4.312-8.444 8.444h-52.9c-3.318 0-6.008-2.69-6.008-6.008v-35.357c0-1.659-1.345-3.004-3.004-3.004s-3.004 1.345-3.004 3.004v35.357c0 6.636 5.38 12.016 12.016 12.016h24.843v24.933h-4.566c-2.345-.085-4.318 1.741-4.416 4.085v13.037h-12.016v-13.037c-.074-2.338-2.03-4.173-4.368-4.099-.076.002-.152.007-.228.013h-15.531c-2.338-.084-4.301 1.742-4.386 4.08v.005 13.037h-28.808c-6.293.017-11.385 5.122-11.385 11.415v30.761c-.05 2.422 1.873 4.425 4.295 4.475.03.001.061.001.091.001h12.947v13.758h-12.947c-2.364.015-4.291 1.902-4.356 4.266v15.501c-.017 2.422 1.934 4.399 4.356 4.416h.03 12.947v13.758h-12.977c-2.422.016-4.372 1.993-4.356 4.415v.031 15.02c0 2.422 1.964 4.386 4.386 4.386h12.947v13.758h-12.977c-2.41.017-4.356 1.975-4.356 4.386v28.478c0 6.293 5.092 11.399 11.385 11.415h28.808v12.016c.081 2.338 2.043 4.167 4.38 4.086h.005 15.501c2.338.084 4.301-1.742 4.386-4.08 0-.002 0-.004 0-.005v-12.016h12.016v12.016c.041 2.355 1.984 4.232 4.34 4.19.096-.002.191-.007.286-.015h15.471c2.334.068 4.288-1.753 4.386-4.085v-12.016h12.016v12.016c.098 2.345 2.071 4.17 4.416 4.085h15.44c2.345.085 4.318-1.741 4.416-4.085v-12.016h31.542c6.304 0 11.415-5.111 11.415-11.415v-28.478c0-2.439-1.977-4.416-4.416-4.416h-12.977v-13.758h12.947c2.427 0 4.399-1.959 4.416-4.386v-15.02c0-2.422-1.963-4.386-4.386-4.386-.01 0-.02 0-.03 0h-12.947v-13.758h12.947c2.439 0 4.416-1.977 4.416-4.416v-15.622c0-2.439-1.977-4.416-4.416-4.416h-12.947v-13.608h12.947c2.422.017 4.399-1.934 4.416-4.356 0-.01 0-.02 0-.03v-30.85c0-6.305-5.111-11.415-11.415-11.415zm-43.678-50.888c3.219 0 5.828 2.609 5.828 5.828s-2.609 5.828-5.828 5.828-5.828-2.609-5.828-5.828 2.609-5.828 5.828-5.828zm-6.008 39.773h12.256v11.115h-12.376zm-36.408 0h12.256v11.115h-12.376zm-36.378 0h12.226v11.115h-12.347zm12.226 201.537h-12.347v-10.183h12.226zm36.408 0h-12.376v-10.183h12.256zm36.408 0h-12.376v-10.183h12.256zm42.897-149.779h-12.947c-2.439 0-4.416 1.977-4.416 4.416v16.972c0 2.422 1.964 4.386 4.386 4.386h.03 12.947v12.316h-12.947c-2.439 0-4.416 1.977-4.416 4.416v16.942c0 2.439 1.977 4.416 4.416 4.416h12.947v11.746h-12.947c-2.439 0-4.416 1.977-4.416 4.416v16.942c0 2.439 1.977 4.416 4.416 4.416h12.947v26.886c-.016 2.979-2.428 5.391-5.407 5.407h-157.469c-2.975-.016-5.377-2.433-5.377-5.407v-26.886h12.947c2.427-.016 4.386-1.989 4.386-4.416v-16.942c0-2.427-1.959-4.399-4.386-4.416h-12.917v-11.746h12.917c2.427-.017 4.386-1.989 4.386-4.416v-16.942c0-2.427-1.959-4.399-4.386-4.416h-12.917v-12.316h12.917c2.422 0 4.386-1.964 4.386-4.386v-16.973c0-2.427-1.959-4.399-4.386-4.416h-12.917v-29.137c0-2.975 2.403-5.391 5.377-5.407h157.409c2.979.016 5.391 2.428 5.407 5.407z"
                      fill="url(#Contour-50_1_)"></path>
                <path id="Contour-51_3_"
                      d="m368.228 346.029c-6.537 0-11.836 5.299-11.836 11.836s5.299 11.836 11.836 11.836 11.836-5.299 11.836-11.836-5.299-11.836-11.836-11.836zm0 17.663c-3.219 0-5.828-2.609-5.828-5.828s2.609-5.828 5.828-5.828 5.828 2.609 5.828 5.828c.033 3.202-2.535 5.824-5.737 5.858-.03 0-.06 0-.091 0z"
                      fill="url(#Contour-51_1_)"></path>
                <path id="Contour-52_3_"
                      d="m233.41 346.029c-6.537-.017-11.849 5.269-11.866 11.806s5.269 11.849 11.806 11.866 11.849-5.269 11.866-11.806c0-.01 0-.02 0-.03-.017-6.518-5.288-11.803-11.806-11.836zm0 17.663c-3.219.017-5.841-2.579-5.858-5.798s2.579-5.841 5.798-5.858 5.841 2.579 5.858 5.798v.03c.017 3.219-2.579 5.841-5.798 5.858z"
                      fill="url(#Contour-52_1_)"></path>
                <path id="Contour-53_3_"
                      d="m356.062 494.095c0 6.537 5.299 11.836 11.836 11.836s11.836-5.299 11.836-11.836-5.299-11.836-11.836-11.836c-.01 0-.02 0-.03 0-6.52 0-11.806 5.286-11.806 11.806zm11.806-5.827c3.219-.017 5.841 2.579 5.858 5.798s-2.579 5.841-5.798 5.858-5.841-2.579-5.858-5.798c0-.01 0-.02 0-.03 0-3.207 2.591-5.812 5.798-5.828z"
                      fill="url(#Contour-53_1_)"></path>
                <path id="Contour-54_3_"
                      d="m233.049 482.26c-6.537 0-11.836 5.299-11.836 11.836s5.299 11.836 11.836 11.836 11.836-5.299 11.836-11.836c-.017-6.53-5.306-11.82-11.836-11.836zm0 17.633c-3.219 0-5.828-2.609-5.828-5.828s2.609-5.828 5.828-5.828 5.828 2.609 5.828 5.828v.03c0 3.202-2.596 5.798-5.798 5.798-.01 0-.02 0-.03 0z"
                      fill="url(#Contour-54_1_)"></path>
                <path id="Contour-55_3_"
                      d="m206.644 163.657 16.882 11.565c5.636 3.837 7.353 11.374 3.935 17.273l-10.214 17.754c-.883 1.523-.74 3.432.36 4.806l16.462 20.607c1.081 1.374 2.898 1.936 4.566 1.412l19.586-6.008c6.456-1.93 13.319 1.378 15.831 7.63l7.51 19.075c.651 1.618 2.221 2.677 3.965 2.674h26.375c1.741-.005 3.308-1.061 3.965-2.674l7.54-19.075c2.523-6.242 9.376-9.545 15.831-7.63l19.586 6.008c1.668.515 3.48-.045 4.566-1.412l16.462-20.607c1.087-1.368 1.23-3.261.36-4.776l-10.214-17.784c-3.329-5.858-1.635-13.288 3.905-17.123l16.912-11.565c1.425-1.008 2.111-2.77 1.742-4.476l-6.008-25.714c-.383-1.701-1.763-2.998-3.485-3.274l-20.247-3.004c-6.668-1.03-11.434-6.998-10.965-13.728l1.472-20.427c.141-1.748-.816-3.4-2.403-4.146l-23.731-11.445c-1.574-.765-3.456-.491-4.746.691l-15.02 13.908c-4.967 4.57-12.607 4.57-17.573 0l-15.02-13.908c-1.298-1.167-3.17-1.439-4.746-.691l-23.641 11.205c-1.581.752-2.536 2.4-2.403 4.146l1.502 20.427c.461 6.781-4.387 12.769-11.115 13.728l-20.247 3.004c-1.733.265-3.127 1.564-3.515 3.274l-6.008 25.714c-.375 1.789.421 3.621 1.986 4.566zm9.763-27.697 19.075-3.004c9.757-1.534 16.722-10.273 16.041-20.127l-1.382-19.226 21.599-10.424 14.119 13.187c7.288 6.664 18.456 6.664 25.744 0l14.149-13.097 21.629 10.424-1.412 19.226c-.681 9.853 6.284 18.592 16.041 20.127l19.075 3.004 5.347 23.401-15.921 10.904c-8.149 5.623-10.63 16.553-5.708 25.143l9.613 16.732-15.02 18.745-18.474-5.647c-9.451-2.851-19.511 2.003-23.161 11.175l-7.089 18.024h-24.032l-7.089-18.024c-3.662-9.176-13.732-14.029-23.191-11.175l-18.444 5.647-15.02-18.745 9.763-16.732c4.973-8.619 2.473-19.613-5.738-25.233l-15.891-10.814z"
                      fill="url(#Contour-55_1_)"></path>
                <path id="Contour-56_3_"
                      d="m298.716 211.3c23.575.017 42.7-19.081 42.717-42.657s-19.081-42.7-42.657-42.717-42.7 19.081-42.717 42.657v.03c.034 23.55 19.108 42.638 42.657 42.687zm0-79.335c20.257-.017 36.692 16.392 36.709 36.649s-16.392 36.692-36.649 36.709-36.692-16.392-36.709-36.649c0-.02 0-.04 0-.06.034-20.227 16.423-36.616 36.649-36.649z"
                      fill="url(#Contour-56_1_)"></path>
                <path id="Contour-57_3_"
                      d="m298.716 221.334c29.116.017 52.733-23.573 52.75-52.69.017-29.116-23.573-52.733-52.69-52.75-29.116-.017-52.733 23.573-52.75 52.69v.03c.033 29.091 23.599 52.67 52.69 52.72zm0-99.432c25.798-.017 46.725 20.884 46.742 46.682s-20.884 46.725-46.682 46.742-46.725-20.884-46.742-46.682c0-.01 0-.02 0-.03.033-25.773 20.909-46.663 46.682-46.712z"
                      fill="url(#Contour-57_1_)"></path>
                <path id="Contour-58_3_"
                      d="m268.586 115.353c6.188.017 11.218-4.987 11.235-11.175s-4.987-11.218-11.175-11.235-11.218 4.987-11.235 11.175v.03c.017 6.17 5.006 11.172 11.175 11.205zm0-16.402c2.87-.017 5.21 2.297 5.227 5.167s-2.297 5.21-5.167 5.227-5.21-2.297-5.227-5.167c0-.01 0-.02 0-.03.017-2.852 2.316-5.164 5.167-5.197z"
                      fill="url(#Contour-58_1_)"></path>
                <path id="Contour-59_2_"
                      d="m328.966 115.353c6.188.017 11.218-4.987 11.235-11.175s-4.987-11.218-11.175-11.235-11.218 4.987-11.235 11.175v.03c.017 6.17 5.006 11.172 11.175 11.205zm0-16.402c2.87-.017 5.21 2.297 5.227 5.167s-2.297 5.21-5.167 5.227-5.21-2.297-5.227-5.167c0-.01 0-.02 0-.03.017-2.852 2.316-5.164 5.167-5.197z"
                      fill="url(#Contour-59_1_)"></path>
                <path id="Contour-60_2_"
                      d="m346.99 220.583c2.089 2.104 4.935 3.284 7.9 3.274 6.188-.008 11.198-5.032 11.19-11.22-.004-2.955-1.175-5.79-3.259-7.886-4.426-4.238-11.405-4.238-15.831 0-4.372 4.356-4.384 11.432-.027 15.804.009.009.018.018.027.028zm4.236-11.566c2.173-1.875 5.454-1.634 7.33.539 1.683 1.951 1.683 4.84 0 6.791-2.173 1.875-5.455 1.634-7.33-.539-1.683-1.951-1.683-4.84 0-6.791z"
                      fill="url(#Contour-60_1_)"></path>
                <path id="Contour-61_2_"
                      d="m290.816 230.316c-4.366 4.374-4.366 11.457 0 15.831 4.795 3.911 11.854 3.195 15.765-1.6 3.383-4.148 3.36-10.109-.054-14.231-4.41-4.162-11.301-4.162-15.711 0zm11.565 11.565c-2.011 2.024-5.283 2.034-7.307.023-.982-.975-1.531-2.304-1.525-3.688-.017-2.837 2.27-5.15 5.107-5.167h.06c2.854-.013 5.177 2.29 5.19 5.144.006 1.384-.543 2.712-1.525 3.688z"
                      fill="url(#Contour-61_1_)"></path>
                <path id="Contour-62_2_"
                      d="m368.709 162.456c6.188-.008 11.198-5.032 11.19-11.22-.004-2.955-1.175-5.79-3.259-7.885-4.426-4.238-11.405-4.238-15.831 0-4.366 4.374-4.366 11.457 0 15.831 2.097 2.092 4.937 3.27 7.9 3.274zm-3.665-15.02c.977-.962 2.294-1.501 3.665-1.502 2.87-.05 5.236 2.236 5.286 5.106s-2.236 5.236-5.106 5.286-5.236-2.236-5.286-5.106c-.001-.04-.001-.08-.001-.119-.015-1.363.502-2.679 1.442-3.665z"
                      fill="url(#Contour-62_1_)"></path>
                <path id="Contour-63_2_"
                      d="m239.087 156.448c2.686-5.575.345-12.272-5.23-14.958-5.324-2.566-11.725-.555-14.626 4.594-2.837 5.518-.664 12.292 4.855 15.129 1.566.805 3.298 1.231 5.059 1.243 4.17-.008 7.996-2.319 9.942-6.008zm-12.346-.601c-1.21-.623-2.119-1.705-2.523-3.004-.42-1.313-.301-2.74.33-3.965.625-1.208 1.707-2.116 3.004-2.523.503-.17 1.031-.251 1.562-.24.826-.004 1.64.191 2.373.571 1.209.632 2.124 1.709 2.553 3.004.395 1.243.287 2.591-.3 3.755-1.286 2.547-4.394 3.569-6.941 2.283-.019-.01-.039-.02-.058-.03z"
                      fill="url(#Contour-63_1_)"></path>
                <path id="Contour-64_2_"
                      d="m234.611 220.583c2.089 2.104 4.935 3.284 7.9 3.274 6.188-.008 11.198-5.032 11.19-11.22-.004-2.955-1.175-5.79-3.259-7.886-4.426-4.238-11.405-4.238-15.831 0-4.372 4.356-4.384 11.432-.027 15.804.009.009.018.018.027.028zm4.236-11.566c1.875-2.173 5.157-2.414 7.33-.539s2.414 5.157.539 7.33c-.166.193-.346.373-.539.539-2.173 1.875-5.455 1.634-7.33-.539-1.684-1.951-1.684-4.84 0-6.791z"
                      fill="url(#Contour-64_1_)"></path>
                <path id="Contour-65_1_"
                      d="m527.5 204.692-3.274-19.496c-.288-1.876-1.715-3.375-3.575-3.755l-15.861-3.364c-4.415-.971-7.384-5.12-6.879-9.613l2.133-16.071c.238-1.876-.69-3.708-2.343-4.626l-17.273-9.583c-1.651-.929-3.702-.75-5.167.451l-12.527 10.153c-3.562 2.972-8.818 2.67-12.016-.691l-11.235-11.655c-1.301-1.386-3.332-1.807-5.077-1.051l-18.294 7.51c-1.739.727-2.859 2.441-2.824 4.326l.24 17.663c.048 3.75-2.786 6.911-6.519 7.27l-17.603 1.652c-1.881.169-3.46 1.485-3.965 3.304l-5.527 18.985c-.542 1.813.092 3.773 1.592 4.927l12.827 9.913c3.54 2.861 4.39 7.913 1.983 11.776l-9.012 13.548c-1.051 1.562-1.051 3.605 0 5.167l11.415 16.131c1.077 1.553 3 2.282 4.836 1.832l16.101-3.815c4.445-1.078 8.976 1.428 10.424 5.768l5.047 15.41c.647 1.735 2.266 2.916 4.115 3.004l19.736 1.142h.27c1.787.006 3.416-1.025 4.176-2.643l6.819-14.72c1.946-4.138 6.73-6.106 11.025-4.536l15.2 5.647c1.772.659 3.767.157 5.017-1.262l13.187-14.72c1.285-1.386 1.562-3.429.691-5.107l-7.24-14.509c-2.034-4.102-.585-9.078 3.334-11.445l13.878-8.381c1.565-.944 2.415-2.728 2.165-4.536zm-19.136 7.9c-6.544 4.049-8.97 12.389-5.617 19.316l6.819 13.638-12.016 13.278-14.269-5.317c-7.245-2.585-15.273.722-18.595 7.66l-6.398 13.818-17.844-1.021-4.746-14.479c-2.495-7.273-10.08-11.486-17.573-9.763l-14.81 3.605-10.304-14.569 8.351-12.767c4.116-6.474 2.691-15.01-3.304-19.796l-12.016-9.342 4.987-17.123 16.642-1.562c6.864-.669 12.08-6.471 12.016-13.368l-.24-16.702 16.522-6.789 10.574 10.965c5.403 5.468 14.064 5.974 20.067 1.172l11.776-9.673 15.591 8.651-1.983 15.02c-.897 7.628 4.105 14.703 11.595 16.402l15.02 3.154 3.004 17.603z"
                      fill="url(#Contour-65_2_)"></path>
                <path id="Contour-66_1_"
                      d="m455.915 165.76c-21.815-1.719-40.893 14.573-42.612 36.388s14.573 40.893 36.388 42.612c.542.043 1.084.074 1.627.095h2.373c20.969-.044 38.279-16.406 39.502-37.34 1.197-21.81-15.472-40.481-37.278-41.755zm31.271 41.485c-1.095 18.516-16.993 32.638-35.509 31.543s-32.638-16.993-31.543-35.509c1.051-17.771 15.786-31.634 33.588-31.602h2.013c18.518 1.063 32.668 16.936 31.605 35.454-.001.018-.002.036-.003.053z"
                      fill="url(#Contour-66_2_)"></path>
                <path id="Contour-67_1_"
                      d="m203.52 218.93c-2.735-4.28-1.744-9.941 2.283-13.037l7.931-6.008c1.503-1.139 2.158-3.08 1.652-4.896l-4.236-15.02c-.51-1.822-2.083-3.145-3.965-3.334l-9.883-.991c-5.057-.544-8.863-4.858-8.772-9.943l.21-9.943c.061-1.89-1.05-3.623-2.794-4.356l-14.359-6.008c-1.738-.763-3.769-.355-5.077 1.021l-6.969 7.029c-3.562 3.628-9.312 3.916-13.218.661l-7.63-6.368c-1.452-1.22-3.504-1.423-5.167-.511l-13.698 7.45c-1.655.902-2.585 2.727-2.343 4.596l1.202 9.883c.606 5.045-2.747 9.715-7.72 10.754l-9.733 1.983c-1.87.362-3.319 1.847-3.635 3.725l-2.704 15.35c-.335 1.862.513 3.738 2.133 4.716l8.471 5.197c4.317 2.689 5.868 8.228 3.575 12.767l-4.506 8.832c-.839 1.673-.565 3.689.691 5.077l10.334 11.716c1.25 1.419 3.244 1.92 5.017 1.262l9.342-3.364c4.782-1.709 10.078.521 12.196 5.137l4.115 9.012c.745 1.635 2.379 2.681 4.176 2.674h.24l15.591-.781c1.855-.072 3.482-1.259 4.115-3.004l3.184-9.402c1.655-4.8 6.695-7.547 11.625-6.338l9.643 2.433c1.832.458 3.758-.244 4.866-1.772l9.012-12.677c1.068-1.557 1.068-3.61 0-5.167zm-8.141 21.899-8.712-2.193c-7.967-1.968-16.118 2.479-18.775 10.244l-3.004 8.501-13.668.691-3.665-8.201c-2.56-5.667-8.201-9.309-14.419-9.312-1.803.002-3.592.317-5.287.931l-8.441 3.004-9.012-10.244 4.085-7.991c3.709-7.333 1.19-16.284-5.798-20.607l-7.66-4.716 2.403-13.458 8.802-1.802c7.933-1.719 13.296-9.141 12.437-17.213l-1.111-9.012 12.016-6.519 6.879 5.768c6.338 5.219 15.609 4.75 21.388-1.081l6.278-6.429 12.617 5.257-.21 9.012c-.142 8.207 5.99 15.173 14.149 16.071l9.012.901 3.695 13.157-7.149 5.437c-6.484 4.999-8.086 14.118-3.695 21.028l4.836 7.57z"
                      fill="url(#Contour-67_2_)"></path>
                <path id="Contour-68_1_"
                      d="m174.592 183.033c-11.514-10.42-29.295-9.533-39.714 1.981-10.42 11.514-9.533 29.295 1.981 39.714 5.163 4.672 11.876 7.263 18.839 7.27h1.412c15.51-.762 27.466-13.953 26.704-29.463-.366-7.458-3.684-14.463-9.221-19.472v-.03zm-17.784 42.927c-12.184.801-22.711-8.428-23.512-20.612s8.428-22.711 20.612-23.512c.235-.015.471-.027.707-.035h1.142c12.211.053 22.066 9.995 22.013 22.206-.051 11.727-9.25 21.374-20.961 21.983v-.03z"
                      fill="url(#Contour-68_2_)"></path>
                <path id="Contour-69_1_"
                      d="m410.104 409.413c1.659 6.306 8.116 10.072 14.421 8.413 6.306-1.659 10.072-8.116 8.413-14.421s-8.116-10.072-14.421-8.413c-4.116 1.083-7.33 4.297-8.413 8.413h-10.003c-1.659 0-3.004 1.345-3.004 3.004s1.345 3.004 3.004 3.004zm11.385-8.802c3.219 0 5.828 2.609 5.828 5.828s-2.609 5.828-5.828 5.828-5.828-2.609-5.828-5.828c0-.01 0-.02 0-.03 0-3.202 2.596-5.798 5.798-5.798z"
                      fill="url(#Contour-69_2_)"></path>
                <path id="Contour-70_1_"
                      d="m446.362 295.472c-1.659 0-3.004 1.345-3.004 3.004v138.574c0 3.318-2.69 6.008-6.008 6.008h-37.249c-1.659 0-3.004 1.345-3.004 3.004s1.345 3.004 3.004 3.004h37.249c6.636 0 12.016-5.38 12.016-12.016v-138.574c0-1.659-1.345-3.004-3.004-3.004z"
                      fill="url(#Contour-70_2_)"></path>
                <path id="Contour-71"
                      d="m201.117 443.058h-14.75c-1.659-6.323-8.129-10.103-14.452-8.444s-10.103 8.129-8.444 14.452 8.129 10.103 14.452 8.444c4.132-1.084 7.36-4.312 8.444-8.444h14.75c1.659 0 3.004-1.345 3.004-3.004s-1.345-3.004-3.004-3.004zm-26.135 8.831c-3.219 0-5.828-2.609-5.828-5.828s2.609-5.828 5.828-5.828 5.828 2.609 5.828 5.828-2.609 5.828-5.828 5.828z"
                      fill="url(#Contour-71_1_)"></path>
                <path id="Contour-72"
                      d="m201.117 403.405h-31.932c-3.318 0-6.008-2.69-6.008-6.008v-118.357c0-1.659-1.345-3.004-3.004-3.004s-3.004 1.345-3.004 3.004v118.357c0 6.636 5.38 12.016 12.016 12.016h31.962c1.659 0 3.004-1.345 3.004-3.004s-1.345-3.004-3.004-3.004z"
                      fill="url(#Contour-72_1_)"></path>
            </g>
        </g>
    </g>
</svg>
