<!-- icon666.com - MILLIONS vector ICONS FREE -->
<svg id="Capa_1" enable-background="new 0 0 609.809 609.809" viewBox="0 0 609.809 609.809"
     xmlns="http://www.w3.org/2000/svg" xmlns:xlink="http://www.w3.org/1999/xlink">
    <linearGradient id="Contour_1_" gradientTransform="matrix(2.522 0 0 -2.522 3.335 1677.175)"
                    gradientUnits="userSpaceOnUse" x1="70.244" x2="189.585" y1="485.488" y2="604.818">
        <stop offset="0" stop-color="#ffb56b"></stop>
        <stop offset="1" stop-color="#bd5e00"></stop>
    </linearGradient>
    <linearGradient id="lg1">
        <stop offset="0" stop-color="#3d1f00"></stop>
        <stop offset="1" stop-color="#693400"></stop>
    </linearGradient>
    <linearGradient id="Contour-2_1_" gradientTransform="matrix(2.522 0 0 -2.522 3.335 1677.175)"
                    gradientUnits="userSpaceOnUse" x1="13.988" x2="19.027" xlink:href="#lg1" y1="508.978"
                    y2="514.016"></linearGradient>
    <linearGradient id="Contour-3_1_" gradientTransform="matrix(2.522 0 0 -2.522 3.335 1677.175)"
                    gradientUnits="userSpaceOnUse" x1="109.908" x2="114.946" xlink:href="#lg1" y1="658.888"
                    y2="663.926"></linearGradient>
    <linearGradient id="Contour-4_1_" gradientTransform="matrix(2.522 0 0 -2.522 3.335 1677.175)"
                    gradientUnits="userSpaceOnUse" x1="234.365" x2="239.403" xlink:href="#lg1" y1="512.206"
                    y2="517.244"></linearGradient>
    <linearGradient id="Contour-5_1_" gradientTransform="matrix(2.522 0 0 -2.522 3.335 1677.175)"
                    gradientUnits="userSpaceOnUse" x1="-.658" x2="1.677" xlink:href="#lg1" y1="618.372"
                    y2="620.695"></linearGradient>
    <linearGradient id="Contour-6_1_" gradientTransform="matrix(2.522 0 0 -2.522 3.335 1677.175)"
                    gradientUnits="userSpaceOnUse" x1="1.946" x2="4.221" xlink:href="#lg1" y1="620.913"
                    y2="623.187"></linearGradient>
    <linearGradient id="Contour-7_1_" gradientTransform="matrix(2.522 0 0 -2.522 3.335 1677.175)"
                    gradientUnits="userSpaceOnUse" x1="4.555" x2="6.829" xlink:href="#lg1" y1="618.399"
                    y2="620.674"></linearGradient>
    <linearGradient id="Contour-8_1_" gradientTransform="matrix(2.522 0 0 -2.522 3.335 1677.175)"
                    gradientUnits="userSpaceOnUse" x1="1.946" x2="4.221" xlink:href="#lg1" y1="615.864"
                    y2="618.151"></linearGradient>
    <linearGradient id="Contour-9_1_" gradientTransform="matrix(2.522 0 0 -2.522 3.335 1677.175)"
                    gradientUnits="userSpaceOnUse" x1="204.491" x2="206.826" xlink:href="#lg1" y1="610.088"
                    y2="612.411"></linearGradient>
    <linearGradient id="Contour-10_1_" gradientTransform="matrix(2.522 0 0 -2.522 3.335 1677.175)"
                    gradientUnits="userSpaceOnUse" x1="207.087" x2="209.362" xlink:href="#lg1" y1="612.626"
                    y2="614.913"></linearGradient>
    <linearGradient id="Contour-11_1_" gradientTransform="matrix(2.522 0 0 -2.522 3.335 1677.175)"
                    gradientUnits="userSpaceOnUse" x1="209.704" x2="211.979" xlink:href="#lg1" y1="610.116"
                    y2="612.391"></linearGradient>
    <linearGradient id="Contour-12_1_" gradientTransform="matrix(2.522 0 0 -2.522 3.335 1677.175)"
                    gradientUnits="userSpaceOnUse" x1="207.087" x2="209.362" xlink:href="#lg1" y1="607.59"
                    y2="609.865"></linearGradient>
    <linearGradient id="Contour-13_1_" gradientTransform="matrix(2.522 0 0 -2.522 3.335 1677.175)"
                    gradientUnits="userSpaceOnUse" x1="126.19" x2="128.512" xlink:href="#lg1" y1="426.338"
                    y2="428.661"></linearGradient>
    <linearGradient id="Contour-14_1_" gradientTransform="matrix(2.522 0 0 -2.522 3.335 1677.175)"
                    gradientUnits="userSpaceOnUse" x1="128.78" x2="131.054" xlink:href="#lg1" y1="428.894"
                    y2="431.169"></linearGradient>
    <linearGradient id="Contour-15_1_" gradientTransform="matrix(2.522 0 0 -2.522 3.335 1677.175)"
                    gradientUnits="userSpaceOnUse" x1="131.371" x2="133.658" xlink:href="#lg1" y1="426.386"
                    y2="428.673"></linearGradient>
    <linearGradient id="Contour-16_1_" gradientTransform="matrix(2.522 0 0 -2.522 3.335 1677.175)"
                    gradientUnits="userSpaceOnUse" x1="128.784" x2="131.059" xlink:href="#lg1" y1="423.839"
                    y2="426.126"></linearGradient>
    <linearGradient id="lg2">
        <stop offset="0" stop-color="#964b00"></stop>
        <stop offset="1" stop-color="#bd732a"></stop>
    </linearGradient>
    <linearGradient id="Contour-18_1_" gradientTransform="matrix(2.522 0 0 -2.522 3.335 1677.175)"
                    gradientUnits="userSpaceOnUse" x1="107.133" x2="134.384" xlink:href="#lg2" y1="578.922"
                    y2="606.172"></linearGradient>
    <linearGradient id="Contour-19_1_" gradientTransform="matrix(2.522 0 0 -2.522 3.335 1677.175)"
                    gradientUnits="userSpaceOnUse" x1="90.206" x2="136.602" xlink:href="#lg2" y1="562.359"
                    y2="608.755"></linearGradient>
    <linearGradient id="Contour-22_1_" gradientTransform="matrix(2.522 0 0 -2.522 3.335 1677.175)"
                    gradientUnits="userSpaceOnUse" x1="97.26" x2="134.205" xlink:href="#lg2" y1="494.394"
                    y2="531.34"></linearGradient>
    <linearGradient id="Contour-24_1_" gradientTransform="matrix(2.522 0 0 -2.522 3.335 1677.175)"
                    gradientUnits="userSpaceOnUse" x1="90.856" x2="174.361" xlink:href="#lg2" y1="422.399"
                    y2="505.892"></linearGradient>
    <linearGradient id="Contour-25_1_" gradientTransform="matrix(2.522 0 0 -2.522 3.335 1677.175)"
                    gradientUnits="userSpaceOnUse" x1="89.269" x2="150.286" xlink:href="#lg1" y1="561.349"
                    y2="622.354"></linearGradient>
    <linearGradient id="Contour-26_1_" gradientTransform="matrix(2.522 0 0 -2.522 3.335 1677.175)"
                    gradientUnits="userSpaceOnUse" x1="107.027" x2="134.867" xlink:href="#lg1" y1="578.522"
                    y2="606.362"></linearGradient>
    <linearGradient id="Contour-27_1_" gradientTransform="matrix(2.522 0 0 -2.522 3.335 1677.175)"
                    gradientUnits="userSpaceOnUse" x1="95.054" x2="145.017" xlink:href="#lg1" y1="566.944"
                    y2="616.918"></linearGradient>
    <linearGradient id="Contour-28_1_" gradientTransform="matrix(2.522 0 0 -2.522 3.335 1677.175)"
                    gradientUnits="userSpaceOnUse" x1="131.1" x2="142.313" xlink:href="#lg1" y1="531.206"
                    y2="542.408"></linearGradient>
    <linearGradient id="Contour-29_1_" gradientTransform="matrix(2.522 0 0 -2.522 3.335 1677.175)"
                    gradientUnits="userSpaceOnUse" x1="89.596" x2="99.183" xlink:href="#lg1" y1="536.819"
                    y2="546.406"></linearGradient>
    <linearGradient id="Contour-30_1_" gradientTransform="matrix(2.522 0 0 -2.522 3.335 1677.175)"
                    gradientUnits="userSpaceOnUse" x1="139.036" x2="148.622" xlink:href="#lg1" y1="536.819"
                    y2="546.406"></linearGradient>
    <linearGradient id="Contour-31_1_" gradientTransform="matrix(2.522 0 0 -2.522 3.335 1677.175)"
                    gradientUnits="userSpaceOnUse" x1="93.621" x2="111.522" xlink:href="#lg1" y1="521.169"
                    y2="539.069"></linearGradient>
    <linearGradient id="Contour-32_1_" gradientTransform="matrix(2.522 0 0 -2.522 3.335 1677.175)"
                    gradientUnits="userSpaceOnUse" x1="73.276" x2="166.164" xlink:href="#lg1" y1="422.904"
                    y2="515.792"></linearGradient>
    <linearGradient id="Contour-33_1_" gradientTransform="matrix(2.522 0 0 -2.522 3.335 1677.175)"
                    gradientUnits="userSpaceOnUse" x1="154.328" x2="175.469" xlink:href="#lg1" y1="462.058"
                    y2="483.199"></linearGradient>
    <linearGradient id="Contour-34_1_" gradientTransform="matrix(2.522 0 0 -2.522 3.335 1677.175)"
                    gradientUnits="userSpaceOnUse" x1="106.36" x2="125.226" xlink:href="#lg1" y1="457.245"
                    y2="476.111"></linearGradient>
    <g>
        <g id="Icon_12">
            <path id="Contour_24_"
                  d="m162.395 396.947c-1.736-3.263-5.37-5.043-9.012-4.416-17.724 3.004-68.761 4.566-72.726-74.889-4.806-96.338 111.989-260.867 283.486-228.153 137.733 26.285 34.906 157.319 119.288 190.393 49.386 19.346 94.025 118.567-15.651 204.752-59.238 46.591-211.57 87.775-305.385-87.687z"
                  fill="url(#Contour_1_)"></path>
            <path id="Contour-2_24_"
                  d="m45.06 396.015c-4.977 0-9.012-4.035-9.012-9.012s4.035-9.012 9.012-9.012 9.012 4.035 9.012 9.012-4.035 9.012-9.012 9.012zm0-12.016c-1.659 0-3.004 1.345-3.004 3.004s1.345 3.004 3.004 3.004 3.004-1.345 3.004-3.004c-.016-1.647-1.357-2.974-3.004-2.974z"
                  fill="url(#Contour-2_1_)"></path>
            <path id="Contour-3_24_"
                  d="m286.881 18.024c-4.977 0-9.012-4.035-9.012-9.012s4.034-9.012 9.012-9.012 9.012 4.035 9.012 9.012-4.035 9.012-9.012 9.012zm0-12.016c-1.659 0-3.004 1.345-3.004 3.004s1.345 3.004 3.004 3.004 3.004-1.345 3.004-3.004-1.345-3.004-3.004-3.004z"
                  fill="url(#Contour-3_1_)"></path>
            <path id="Contour-4_24_"
                  d="m600.797 387.965c-4.977 0-9.012-4.035-9.012-9.012s4.035-9.012 9.012-9.012 9.012 4.035 9.012 9.012-4.035 9.012-9.012 9.012zm0-12.016c-1.659 0-3.004 1.345-3.004 3.004s1.345 3.004 3.004 3.004 3.004-1.345 3.004-3.004c-.017-1.647-1.357-2.974-3.004-2.974z"
                  fill="url(#Contour-4_1_)"></path>
            <g id="Group_24_">
                <path id="Contour-5_24_"
                      d="m9.252 114.602c0-1.659-1.345-3.004-3.004-3.004h-3.244c-1.659 0-3.004 1.345-3.004 3.004s1.345 3.004 3.004 3.004h3.244c1.659 0 3.004-1.345 3.004-3.004z"
                      fill="url(#Contour-5_1_)"></path>
                <path id="Contour-6_24_"
                      d="m11.115 112.77c1.659 0 3.004-1.345 3.004-3.004v-3.244c-.126-1.565-1.434-2.769-3.004-2.764-1.57-.005-2.878 1.199-3.004 2.764v3.244c0 1.659 1.345 3.004 3.004 3.004z"
                      fill="url(#Contour-6_1_)"></path>
                <path id="Contour-7_24_"
                      d="m19.195 111.598h-3.244c-1.565.126-2.769 1.434-2.764 3.004-.005 1.57 1.199 2.878 2.764 3.004h3.244c1.659 0 3.004-1.345 3.004-3.004s-1.344-3.004-3.004-3.004z"
                      fill="url(#Contour-7_1_)"></path>
                <path id="Contour-8_24_"
                      d="m11.115 116.465c-1.659 0-3.004 1.345-3.004 3.004v3.244c.126 1.565 1.434 2.769 3.004 2.764 1.57.005 2.878-1.199 3.004-2.764v-3.244c0-1.66-1.345-3.004-3.004-3.004z"
                      fill="url(#Contour-8_1_)"></path>
            </g>
            <g id="Group-2_24_">
                <path id="Contour-9_24_"
                      d="m526.659 135.51c0-1.659-1.345-3.004-3.004-3.004h-3.244c-1.659 0-3.004 1.345-3.004 3.004s1.345 3.004 3.004 3.004h3.244c1.659 0 3.004-1.345 3.004-3.004z"
                      fill="url(#Contour-9_1_)"></path>
                <path id="Contour-10_24_"
                      d="m528.521 133.647c1.659 0 3.004-1.345 3.004-3.004v-3.244c-.126-1.565-1.434-2.769-3.004-2.764-1.57-.005-2.878 1.199-3.004 2.764v3.244c0 1.659 1.345 3.004 3.004 3.004z"
                      fill="url(#Contour-10_1_)"></path>
                <path id="Contour-11_24_"
                      d="m536.602 132.506h-3.244c-1.565.126-2.769 1.434-2.764 3.004-.005 1.57 1.199 2.878 2.764 3.004h3.244c1.659 0 3.004-1.345 3.004-3.004s-1.345-3.004-3.004-3.004z"
                      fill="url(#Contour-11_1_)"></path>
                <path id="Contour-12_24_"
                      d="m528.521 137.342c-1.659 0-3.004 1.345-3.004 3.004v3.244c.126 1.565 1.434 2.769 3.004 2.764 1.57.005 2.878-1.199 3.004-2.764v-3.244c0-1.659-1.345-3.004-3.004-3.004z"
                      fill="url(#Contour-12_1_)"></path>
            </g>
            <g id="Group-3_24_">
                <path id="Contour-13_24_"
                      d="m329.177 598.935c0-1.659-1.345-3.004-3.004-3.004h-3.244c-1.659 0-3.004 1.345-3.004 3.004s1.345 3.004 3.004 3.004h3.244c1.659 0 3.004-1.345 3.004-3.004z"
                      fill="url(#Contour-13_1_)"></path>
                <path id="Contour-14_24_"
                      d="m331.009 597.072c1.659 0 3.004-1.345 3.004-3.004v-3.214c-.111-1.576-1.424-2.798-3.004-2.794-1.58-.004-2.893 1.217-3.004 2.794v3.214c0 1.659 1.345 3.004 3.004 3.004z"
                      fill="url(#Contour-14_1_)"></path>
                <path id="Contour-15_24_"
                      d="m339.12 595.931h-3.244c-1.659 0-3.004 1.345-3.004 3.004s1.345 3.004 3.004 3.004h3.244c1.659 0 3.004-1.345 3.004-3.004s-1.345-3.004-3.004-3.004z"
                      fill="url(#Contour-15_1_)"></path>
                <path id="Contour-16_24_"
                      d="m331.009 600.797c-1.659 0-3.004 1.345-3.004 3.004v3.244c.126 1.565 1.434 2.769 3.004 2.764 1.57.005 2.878-1.199 3.004-2.764v-3.244c0-1.659-1.345-3.004-3.004-3.004z"
                      fill="url(#Contour-16_1_)"></path>
            </g>
            <circle id="Contour-17_24_" cx="304.844" cy="183.093" fill="#fff" r="105.26"></circle>
            <path id="Contour-18_24_"
                  d="m300.068 121.541v15.771s-25.684 15.32-17.033 34.996c8.411 19.075 33.464 20.367 33.464 20.367s6.308 20.187-9.012 19.135c-15.32-1.051-13.518-10.244-13.518-10.244l-15.951.21s4.927 21.028 20.577 24.362l1.262 17.363 15.02 1.172 2.553-17.363s18.024-9.012 17.603-24.783c-.623-14.042-9.887-26.226-23.251-30.581-11.806-4.206-17.784-15.02-3.455-18.535 0 0 8.501 2.553 9.402 8.531l15.981-.601s-3.605-16.552-13.308-19.826-5.047-19.977-5.047-19.977h-15.287z"
                  fill="url(#Contour-18_1_)"></path>
            <path id="Contour-19_24_"
                  d="m410.344 204.271s-61.071 81.678-129.472 59.209c-35.907-12.093-59.687-46.239-58.578-84.112.751-24.272 10.184-55.424 40.734-90.33-15.024 5.845-28.485 15.1-39.322 27.036-24.032 26.705-41.515 72.997-5.317 127.069 62.003 92.582 191.745 25.864 191.955-38.872z"
                  fill="url(#Contour-19_1_)"></path>
            <path id="Contour-20_24_" d="m262.548 417.404 28.328 60.41 65.967 2.313-10.694-63.084-41.244-28.568z"
                  fill="#fff"></path>
            <path id="Contour-21_24_"
                  d="m262.548 417.554c12.947-1.111 21.809-16.282 21.809-33.374v-79.576c-.008-.829.658-1.509 1.487-1.517.075-.001.151.004.225.015 12.944 1.956 26.108 1.956 39.052 0 .819-.133 1.59.423 1.723 1.242.012.076.019.153.019.23v79.425c0 17.093 8.862 32.263 21.809 33.374z"
                  fill="#fff"></path>
            <path id="Contour-22_24_"
                  d="m309.681 304.904v76.121c0 20.097 1.412 39.743 24.032 53.892l-64.706 15.681-6.459-33.044s24.032-4.776 22.199-47.733c-1.232-21.668-1.363-43.385-.391-65.066l12.016-.871z"
                  fill="url(#Contour-22_1_)"></path>
            <path id="Contour-23_24_"
                  d="m343.355 421.639c9.893-10.137 23.305-16.085 37.46-16.612 18.094-.389 34.998 8.987 44.249 24.543.155.254.403.437.691.511.312.062.637-.003.901-.18 11.592-7.774 26.407-8.914 39.052-3.004 18.805 8.531 21.028 27.036 21.028 34.726-.001.357.152.696.421.931.257.248.605.378.961.36 26.555-1.262 31.632 23.041 31.692 23.341 3.004 17.573-4.296 27.817-10.935 33.344-6.474 5.145-14.532 7.884-22.8 7.75h-361.53c-8.257.159-16.314-2.548-22.8-7.66-6.639-5.527-13.938-15.771-10.935-33.344 0-.3 5.137-24.603 31.692-23.341.356.014.703-.116.961-.36.268-.235.422-.575.421-.931 0-7.6 2.193-26.195 21.028-34.726 12.645-5.91 27.46-4.77 39.052 3.004.265.177.589.242.901.18.288-.074.536-.257.691-.511 9.211-15.611 26.127-25.039 44.249-24.663 14.16.506 27.579 6.456 37.46 16.612 3.943 3.993 7.228 8.586 9.733 13.608.394.73 1.305 1.003 2.035.61.124-.067.238-.151.338-.249 5.617-7.66 26.705-31.662 51.789-.33.516.65 1.461.758 2.11.242.174-.138.315-.313.413-.512 2.512-4.922 5.775-9.422 9.672-13.339z"
                  fill="#fff"></path>
            <path id="Contour-24_24_"
                  d="m343.806 453.301c7.028-11.457 18.246-19.723 31.271-23.041 23.641-5.617 39.893 8.411 45.781 14.78.182.209.444.329.721.33.303-.001.594-.12.811-.33 9.089-9.563 22.602-13.529 35.417-10.394 19.075 4.416 24.753 21.629 26.315 28.808.076.343.281.643.571.841.291.168.633.221.961.15 24.272-6.368 33.825 15.651 33.915 15.921 6.278 16.101 1.592 27.246-3.424 33.735-4.893 6.123-11.803 10.307-19.496 11.806l-348.462 1.593c-1.131-11.772 3.902-23.292 13.308-30.46 10.503-8.095 24.546-9.92 36.769-4.776.267.121.574.121.841 0 .265-.104.465-.326.541-.601 2.824-8.201 12.016-27.607 36.048-31.962 13.171-2.158 26.667.855 37.67 8.411 4.446 3.032 8.389 6.742 11.686 10.995.448.638 1.329.792 1.967.344.201-.141.362-.332.466-.555 3.635-8.351 18.324-35.207 47.733-10.394.596.503 1.487.427 1.989-.17.142-.168.242-.367.294-.581 1.349-5.112 3.476-9.985 6.307-14.45z"
                  fill="url(#Contour-24_1_)"></path>
            <g id="Group-4_20_">
                <path id="Contour-25_24_"
                      d="m305.415 293.279c60.108 0 108.834-48.727 108.834-108.834 0-60.108-48.727-108.834-108.834-108.834s-108.834 48.727-108.834 108.834c.066 60.08 48.754 108.768 108.834 108.834zm0-211.661c56.789 0 102.826 46.037 102.826 102.826s-46.037 102.826-102.826 102.826-102.826-46.037-102.826-102.826c.049-56.768 46.057-102.776 102.826-102.826z"
                      fill="url(#Contour-25_1_)"></path>
                <path id="Contour-26_23_"
                      d="m285.048 221.213c3.502 3.299 7.732 5.727 12.346 7.089v11.716c.017 2.892 2.365 5.227 5.257 5.227h11.355c2.892 0 5.24-2.335 5.257-5.227v-12.256c11.745-4.176 19.461-15.446 19.105-27.907.323-6.667-1.815-13.221-6.008-18.414-5.265-5.349-11.876-9.178-19.135-11.085-3.228-.77-6.284-2.135-9.012-4.025-1.106-.994-1.675-2.455-1.532-3.935-.078-1.438.469-2.841 1.502-3.845 1.132-1.043 2.638-1.585 4.176-1.502 1.305-.071 2.591.346 3.605 1.172.71.697 1.227 1.567 1.502 2.523.629 2.236 2.635 3.804 4.957 3.875h11.535c1.535-.002 2.993-.671 3.995-1.832.965-1.117 1.412-2.59 1.232-4.055-.634-6.009-3.38-11.598-7.75-15.771-2.335-2.206-5.08-3.931-8.081-5.077v-12.016c0-2.903-2.354-5.257-5.257-5.257h-11.355c-3.051.085-5.456 2.627-5.372 5.679.004.13.012.26.025.389v10.904c-3.485 1.374-6.669 3.414-9.372 6.008-5.229 5.247-8.056 12.423-7.81 19.826-.247 6.3 1.9 12.46 6.008 17.243 5.165 5.042 11.552 8.655 18.535 10.484 3.368.861 6.566 2.283 9.463 4.206 1.15 1.022 1.761 2.52 1.652 4.055.121 2.303-.716 4.554-2.313 6.218-1.574 1.607-3.762 2.46-6.008 2.343-2.208.128-4.375-.641-6.008-2.133-1.161-1.16-1.911-2.669-2.133-4.296-.343-2.53-2.493-4.424-5.047-4.446h-12.016c-2.887-.016-5.24 2.311-5.256 5.198-.001.271.018.542.059.81.299 4.566 3.063 13.608 7.899 18.114zm8.381-18.023c.535 2.724 1.924 5.208 3.965 7.089 2.74 2.576 6.395 3.949 10.153 3.815 3.853.111 7.577-1.391 10.274-4.145 2.703-2.783 4.156-6.546 4.025-10.424.104-3.298-1.287-6.466-3.785-8.621-3.523-2.504-7.473-4.347-11.655-5.437-5.964-1.544-11.441-4.572-15.921-8.802-3.083-3.69-4.641-8.418-4.356-13.218-.249-5.788 1.929-11.417 6.008-15.531 2.209-2.124 4.825-3.78 7.69-4.866 2.108-.693 3.544-2.647 3.575-4.866v-11.716h9.853v12.016c.027 2.208 1.431 4.165 3.515 4.896 2.412.877 4.62 2.237 6.489 3.995 3.216 2.97 5.333 6.94 6.008 11.265h-10.093c-.57-1.852-1.604-3.527-3.004-4.866-2.095-1.84-4.814-2.807-7.6-2.704-3.087-.089-6.082 1.057-8.321 3.184-4.53 4.597-4.476 11.995.12 16.525.04.039.08.078.12.117 3.294 2.391 7.001 4.153 10.935 5.197 6.203 1.622 11.876 4.831 16.462 9.312 3.283 4.085 4.922 9.249 4.596 14.479.262 6.444-2.254 12.69-6.909 17.153-2.473 2.414-5.477 4.214-8.772 5.257-2.134.716-3.581 2.705-3.605 4.957v12.016h-9.793v-11.565c-.001-2.365-1.59-4.435-3.875-5.047-3.868-1.072-7.415-3.072-10.334-5.828-3.235-3.94-5.37-8.666-6.188-13.698z"
                      fill="url(#Contour-26_1_)"></path>
                <path id="Contour-27_23_"
                      d="m306.046 273.363c49.224.017 89.142-39.874 89.158-89.098.017-49.224-39.874-89.142-89.098-89.158-49.201-.017-89.108 39.837-89.158 89.038-.017 49.233 39.864 89.168 89.098 89.218zm0-172.219c45.906-.017 83.134 37.184 83.15 83.09.017 45.906-37.184 83.134-83.09 83.15s-83.134-37.184-83.15-83.09c0-.05 0-.1 0-.15.05-45.874 37.216-83.054 83.09-83.12z"
                      fill="url(#Contour-27_1_)"></path>
                <path id="Contour-28_22_"
                      d="m351.136 299.227c0-1.659-1.345-3.004-3.004-3.004s-3.004 1.345-3.004 3.004v48.064c0 1.659 1.345 3.004 3.004 3.004s3.004-1.345 3.004-3.004z"
                      fill="url(#Contour-28_1_)"></path>
                <path id="Contour-29_21_"
                      d="m244.404 291.206c0-1.659-1.345-3.004-3.004-3.004s-3.004 1.345-3.004 3.004v39.863c0 1.659 1.345 3.004 3.004 3.004s3.004-1.345 3.004-3.004z"
                      fill="url(#Contour-29_1_)"></path>
                <path id="Contour-30_20_"
                      d="m369.1 291.206c0-1.659-1.345-3.004-3.004-3.004s-3.004 1.345-3.004 3.004v39.863c0 1.659 1.345 3.004 3.004 3.004s3.004-1.345 3.004-3.004z"
                      fill="url(#Contour-30_1_)"></path>
                <path id="Contour-31_17_"
                      d="m259.034 381.025c0 1.659 1.345 3.004 3.004 3.004s3.004-1.345 3.004-3.004v-81.798c0-1.659-1.345-3.004-3.004-3.004s-3.004 1.345-3.004 3.004z"
                      fill="url(#Contour-31_1_)"></path>
                <path id="Contour-32_17_"
                      d="m522.693 485.835c-3.375-15.43-17.257-26.27-33.044-25.804-.391-9.012-3.665-27.036-22.74-35.717-12.975-6.059-28.123-5.213-40.344 2.253-9.952-15.626-27.35-24.912-45.871-24.482-12.118.412-23.801 4.615-33.404 12.016-9.973-1.953-17.603-14.78-17.603-30.04v-79.455c.002-2.489-2.014-4.507-4.503-4.509-.253 0-.505.021-.754.063-12.589 1.852-25.381 1.852-37.97 0-1.294-.216-2.616.159-3.605 1.021-.995.859-1.566 2.11-1.562 3.425v79.425c0 15.621-7.87 28.568-18.024 30.22-1.322-1.021-2.613-2.043-4.025-3.004-8.811-5.708-19.007-8.916-29.499-9.282-18.532-.418-35.924 8.922-45.811 24.603-12.224-7.431-27.355-8.254-40.313-2.193-19.045 8.651-22.32 26.705-22.71 35.717h-.421c-27.216 0-32.593 25.504-32.653 25.864-3.214 18.985 4.746 30.04 12.016 36.048 7.014 5.593 15.753 8.576 24.723 8.441h361.409c8.97.135 17.708-2.849 24.723-8.441 7.239-5.949 15.2-17.124 11.985-36.169zm-235.332-101.806v-77.623c12.06 1.644 24.288 1.644 36.348 0v77.653c0 16.492 7.54 30.04 18.294 34.756l-.811.751c-3.509 3.6-6.538 7.639-9.012 12.016-8.681-10.184-17.874-15.2-27.276-15.02-12.376.27-21.809 9.673-26.345 15.32-2.504-4.486-5.595-8.618-9.192-12.286l-.661-.601c10.935-4.445 18.655-18.293 18.655-34.966zm219.501 133.407c-5.928 4.706-13.31 7.202-20.878 7.059h-361.44c-7.62.183-15.062-2.316-21.028-7.059-6.008-5.017-12.647-14.359-9.913-30.46 2.782-12.599 14.14-21.433 27.036-21.028h1.832c1.113.002 2.186-.416 3.004-1.172.816-.793 1.299-1.867 1.352-3.004 0-6.999 2.013-24.182 19.226-31.962 11.66-5.476 25.335-4.45 36.048 2.704.956.631 2.126.847 3.244.601 1.079-.243 2.012-.915 2.583-1.862 8.628-14.701 24.533-23.585 41.575-23.221 9.395.319 18.525 3.196 26.405 8.321 3.275 2.102 6.298 4.571 9.012 7.36 3.72 3.777 6.822 8.115 9.192 12.857.698 1.436 2.103 2.396 3.695 2.523 1.555.137 3.069-.546 3.995-1.802 3.184-4.356 11.836-14.539 23.101-14.78 7.931-.15 16.041 4.716 24.032 14.569 1.561 1.938 4.397 2.244 6.336.684.504-.406.915-.916 1.204-1.495 2.336-4.627 5.376-8.863 9.012-12.557 9.347-9.573 22.017-15.187 35.387-15.681 17.037-.311 32.926 8.557 41.605 23.221.57.961 1.519 1.638 2.613 1.862 1.099.244 2.25.026 3.184-.601 10.719-7.136 24.385-8.161 36.048-2.704 17.213 7.78 19.195 24.963 19.225 31.992.037 1.14.523 2.22 1.352 3.004.87.788 2.011 1.208 3.184 1.172 13.417-1.285 25.681 7.652 28.568 20.818 2.856 16.282-3.753 25.625-9.791 30.641z"
                      fill="url(#Contour-32_1_)"></path>
                <path id="Contour-33_16_"
                      d="m453.932 471.926c-7.957-1.905-16.345.167-22.5 5.557-.543.497-1.309.669-2.013.451-.75-.266-1.308-.903-1.472-1.682-3.158-12.809-13.13-22.827-25.924-26.045-8.803-2.108-18.085-.547-25.714 4.326-8.031 5.098-13.721 13.164-15.831 22.44-.101.22-.172.452-.21.691v.18.391c0 1.659 1.345 3.004 3.004 3.004 1.313-.026 2.456-.902 2.824-2.163 1.647-8.042 6.48-15.075 13.398-19.496 6.243-3.973 13.827-5.251 21.028-3.545 10.626 2.719 18.893 11.067 21.509 21.719.638 2.835 2.73 5.121 5.497 6.008 2.676.83 5.591.204 7.69-1.652 4.701-4.116 11.107-5.695 17.183-4.236 11.205 3.057 17.978 14.437 15.32 25.744-.078.192-.129.394-.15.601 0 1.659 1.345 3.004 3.004 3.004 1.441.032 2.702-.964 3.004-2.373 3.382-14.474-5.303-29.028-19.647-32.924z"
                      fill="url(#Contour-33_1_)"></path>
                <path id="Contour-34_12_"
                      d="m338.099 497.069c-4.496-8.774-13.454-14.361-23.311-14.539-10.384.023-19.897 5.809-24.693 15.02-.14.347-.468.581-.841.601-.304-.009-.584-.166-.751-.421-3.7-5.314-9.746-8.505-16.222-8.561h-.21c-8.557.089-16.227 5.297-19.466 13.218-.157.381-.239.789-.24 1.202 0 1.659 1.345 3.004 3.004 3.004 1.205-.001 2.294-.722 2.764-1.832 2.343-5.736 7.893-9.511 14.089-9.583 4.544.04 8.787 2.28 11.385 6.008 1.336 1.987 3.617 3.127 6.008 3.004 2.43-.159 4.603-1.57 5.738-3.725 3.753-7.117 11.09-11.621 19.135-11.746h.21c7.59.125 14.504 4.389 18.024 11.115.648 1.527 2.412 2.239 3.939 1.591 1.079-.458 1.792-1.501 1.829-2.673-.016-.508-.161-1.005-.421-1.442z"
                      fill="url(#Contour-34_1_)"></path>
            </g>
        </g>
    </g>
</svg>
