<!-- icon666.com - MILLIONS vector ICONS FREE -->
<svg id="Capa_1" enable-background="new 0 0 610.049 610.049" viewBox="0 0 610.049 610.049"
     xmlns="http://www.w3.org/2000/svg" xmlns:xlink="http://www.w3.org/1999/xlink">
    <linearGradient id="Contour_1_" gradientTransform="matrix(2.522 0 0 -2.522 3.152 1677.175)"
                    gradientUnits="userSpaceOnUse" x1="70.545" x2="189.875" y1="485.485" y2="604.815">
        <stop offset="0" stop-color="#ffb56b"></stop>
        <stop offset="1" stop-color="#bd5e00"></stop>
    </linearGradient>
    <linearGradient id="lg1">
        <stop offset="0" stop-color="#3d1f00"></stop>
        <stop offset="1" stop-color="#693400"></stop>
    </linearGradient>
    <linearGradient id="Contour-2_1_" gradientTransform="matrix(2.522 0 0 -2.522 3.152 1677.175)"
                    gradientUnits="userSpaceOnUse" x1="-.156" x2="4.882" xlink:href="#lg1" y1="449.598"
                    y2="454.636"></linearGradient>
    <linearGradient id="Contour-3_1_" gradientTransform="matrix(2.522 0 0 -2.522 3.152 1677.175)"
                    gradientUnits="userSpaceOnUse" x1="91.416" x2="96.466" xlink:href="#lg1" y1="658.885"
                    y2="663.923"></linearGradient>
    <linearGradient id="Contour-4_1_" gradientTransform="matrix(2.522 0 0 -2.522 3.152 1677.175)"
                    gradientUnits="userSpaceOnUse" x1="234.481" x2="239.519" xlink:href="#lg1" y1="530.668"
                    y2="535.718"></linearGradient>
    <linearGradient id="Contour-5_1_" gradientTransform="matrix(2.522 0 0 -2.522 3.152 1677.175)"
                    gradientUnits="userSpaceOnUse" x1="13.739" x2="16.062" xlink:href="#lg1" y1="582.846"
                    y2="585.169"></linearGradient>
    <linearGradient id="Contour-6_1_" gradientTransform="matrix(2.522 0 0 -2.522 3.152 1677.175)"
                    gradientUnits="userSpaceOnUse" x1="16.29" x2="18.565" xlink:href="#lg1" y1="585.429"
                    y2="587.715"></linearGradient>
    <linearGradient id="Contour-7_1_" gradientTransform="matrix(2.522 0 0 -2.522 3.152 1677.175)"
                    gradientUnits="userSpaceOnUse" x1="18.912" x2="21.198" xlink:href="#lg1" y1="582.903"
                    y2="585.177"></linearGradient>
    <linearGradient id="Contour-8_1_" gradientTransform="matrix(2.522 0 0 -2.522 3.152 1677.175)"
                    gradientUnits="userSpaceOnUse" x1="16.295" x2="18.57" xlink:href="#lg1" y1="580.386"
                    y2="582.661"></linearGradient>
    <linearGradient id="Contour-9_1_" gradientTransform="matrix(2.522 0 0 -2.522 3.152 1677.175)"
                    gradientUnits="userSpaceOnUse" x1="201.562" x2="203.885" xlink:href="#lg1" y1="638.435"
                    y2="640.769"></linearGradient>
    <linearGradient id="Contour-10_1_" gradientTransform="matrix(2.522 0 0 -2.522 3.152 1677.175)"
                    gradientUnits="userSpaceOnUse" x1="204.152" x2="206.427" xlink:href="#lg1" y1="640.99"
                    y2="643.277"></linearGradient>
    <linearGradient id="Contour-11_1_" gradientTransform="matrix(2.522 0 0 -2.522 3.152 1677.175)"
                    gradientUnits="userSpaceOnUse" x1="206.746" x2="209.033" xlink:href="#lg1" y1="638.479"
                    y2="640.766"></linearGradient>
    <linearGradient id="Contour-12_1_" gradientTransform="matrix(2.522 0 0 -2.522 3.152 1677.175)"
                    gradientUnits="userSpaceOnUse" x1="204.157" x2="206.432" xlink:href="#lg1" y1="635.947"
                    y2="638.222"></linearGradient>
    <linearGradient id="Contour-13_1_" gradientTransform="matrix(2.522 0 0 -2.522 3.152 1677.175)"
                    gradientUnits="userSpaceOnUse" x1="138.217" x2="140.539" xlink:href="#lg1" y1="426.341"
                    y2="428.663"></linearGradient>
    <linearGradient id="Contour-14_1_" gradientTransform="matrix(2.522 0 0 -2.522 3.152 1677.175)"
                    gradientUnits="userSpaceOnUse" x1="140.781" x2="143.068" xlink:href="#lg1" y1="428.911"
                    y2="431.186"></linearGradient>
    <linearGradient id="Contour-15_1_" gradientTransform="matrix(2.522 0 0 -2.522 3.152 1677.175)"
                    gradientUnits="userSpaceOnUse" x1="143.401" x2="145.688" xlink:href="#lg1" y1="426.386"
                    y2="428.673"></linearGradient>
    <linearGradient id="Contour-16_1_" gradientTransform="matrix(2.522 0 0 -2.522 3.152 1677.175)"
                    gradientUnits="userSpaceOnUse" x1="140.829" x2="143.115" xlink:href="#lg1" y1="423.813"
                    y2="426.1"></linearGradient>
    <linearGradient id="lg2">
        <stop offset="0" stop-color="#964b00"></stop>
        <stop offset="1" stop-color="#bd732a"></stop>
    </linearGradient>
    <linearGradient id="Contour-18_1_" gradientTransform="matrix(2.522 0 0 -2.522 3.152 1677.175)"
                    gradientUnits="userSpaceOnUse" x1="89.002" x2="169.792" xlink:href="#lg2" y1="478.911"
                    y2="559.701"></linearGradient>
    <linearGradient id="Contour-19_1_" gradientTransform="matrix(2.522 0 0 -2.522 3.152 1677.175)"
                    gradientUnits="userSpaceOnUse" x1="132.015" x2="150.78" xlink:href="#lg2" y1="603.219"
                    y2="621.983"></linearGradient>
    <linearGradient id="Contour-20_1_" gradientTransform="matrix(2.522 0 0 -2.522 3.152 1677.175)"
                    gradientUnits="userSpaceOnUse" x1="110.114" x2="128.318" xlink:href="#lg2" y1="607.695"
                    y2="625.9"></linearGradient>
    <linearGradient id="Contour-22_1_" gradientTransform="matrix(2.522 0 0 -2.522 3.152 1677.175)"
                    gradientUnits="userSpaceOnUse" x1="141.645" x2="149.101" xlink:href="#lg2" y1="571.793"
                    y2="579.249"></linearGradient>
    <linearGradient id="Contour-24_1_" gradientTransform="matrix(2.522 0 0 -2.522 3.152 1677.175)"
                    gradientUnits="userSpaceOnUse" x1="127.841" x2="145.36" xlink:href="#lg2" y1="577.924"
                    y2="595.443"></linearGradient>
    <linearGradient id="Contour-25_1_" gradientTransform="matrix(2.522 0 0 -2.522 3.152 1677.175)"
                    gradientUnits="userSpaceOnUse" x1="119.599" x2="134.713" xlink:href="#lg2" y1="586.094"
                    y2="601.22"></linearGradient>
    <linearGradient id="Contour-27_1_" gradientTransform="matrix(2.522 0 0 -2.522 3.152 1677.175)"
                    gradientUnits="userSpaceOnUse" x1="54.793" x2="78.604" xlink:href="#lg2" y1="501.569"
                    y2="525.38"></linearGradient>
    <linearGradient id="Contour-30_1_" gradientTransform="matrix(2.522 0 0 -2.522 3.152 1677.175)"
                    gradientUnits="userSpaceOnUse" x1="54.793" x2="78.604" xlink:href="#lg2" y1="479.284"
                    y2="503.096"></linearGradient>
    <linearGradient id="Contour-32_1_" gradientTransform="matrix(2.522 0 0 -2.522 3.152 1677.175)"
                    gradientUnits="userSpaceOnUse" x1="51.029" x2="74.841" xlink:href="#lg2" y1="490.432"
                    y2="514.244"></linearGradient>
    <linearGradient id="Contour-34_1_" gradientTransform="matrix(2.522 0 0 -2.522 3.152 1677.175)"
                    gradientUnits="userSpaceOnUse" x1="51.024" x2="74.846" xlink:href="#lg2" y1="468.137"
                    y2="491.947"></linearGradient>
    <linearGradient id="Contour-35_1_" gradientTransform="matrix(2.522 0 0 -2.522 3.152 1677.175)"
                    gradientUnits="userSpaceOnUse" x1="54.793" x2="78.604" xlink:href="#lg2" y1="457.048"
                    y2="480.859"></linearGradient>
    <linearGradient id="Contour-37_1_" gradientTransform="matrix(2.522 0 0 -2.522 3.152 1677.175)"
                    gradientUnits="userSpaceOnUse" x1="175.482" x2="191.06" xlink:href="#lg2" y1="483.419"
                    y2="498.997"></linearGradient>
    <linearGradient id="Contour-38_1_" gradientTransform="matrix(2.522 0 0 -2.522 3.152 1677.175)"
                    gradientUnits="userSpaceOnUse" x1="164.129" x2="196.194" xlink:href="#lg2" y1="471.744"
                    y2="503.809"></linearGradient>
    <linearGradient id="Contour-39_1_" gradientTransform="matrix(2.522 0 0 -2.522 3.152 1677.175)"
                    gradientUnits="userSpaceOnUse" x1="111.982" x2="143.014" xlink:href="#lg2" y1="515.13"
                    y2="546.162"></linearGradient>
    <linearGradient id="Contour-40_1_" gradientTransform="matrix(2.522 0 0 -2.522 3.152 1677.175)"
                    gradientUnits="userSpaceOnUse" x1="46.025" x2="55.839" xlink:href="#lg2" y1="535.72"
                    y2="545.534"></linearGradient>
    <linearGradient id="Contour-41_1_" gradientTransform="matrix(2.522 0 0 -2.522 3.152 1677.175)"
                    gradientUnits="userSpaceOnUse" x1="59.538" x2="64.361" xlink:href="#lg2" y1="557.135"
                    y2="561.946"></linearGradient>
    <linearGradient id="Contour-42_1_" gradientTransform="matrix(2.522 0 0 -2.522 3.152 1677.175)"
                    gradientUnits="userSpaceOnUse" x1="175.389" x2="191.704" xlink:href="#lg1" y1="483.157"
                    y2="499.483"></linearGradient>
    <linearGradient id="Contour-43_1_" gradientTransform="matrix(2.522 0 0 -2.522 3.152 1677.175)"
                    gradientUnits="userSpaceOnUse" x1="55.277" x2="194.622" xlink:href="#lg1" y1="440.853"
                    y2="580.21"></linearGradient>
    <linearGradient id="Contour-44_1_" gradientTransform="matrix(2.522 0 0 -2.522 3.152 1677.175)"
                    gradientUnits="userSpaceOnUse" x1="166.634" x2="199.328" xlink:href="#lg1" y1="474.674"
                    y2="507.367"></linearGradient>
    <linearGradient id="Contour-45_1_" gradientTransform="matrix(2.522 0 0 -2.522 3.152 1677.175)"
                    gradientUnits="userSpaceOnUse" x1="111.551" x2="144.255" xlink:href="#lg1" y1="514.264"
                    y2="546.968"></linearGradient>
    <linearGradient id="Contour-46_1_" gradientTransform="matrix(2.522 0 0 -2.522 3.152 1677.175)"
                    gradientUnits="userSpaceOnUse" x1="57.97" x2="66.509" xlink:href="#lg1" y1="555.352"
                    y2="563.88"></linearGradient>
    <linearGradient id="Contour-47_1_" gradientTransform="matrix(2.522 0 0 -2.522 3.152 1677.175)"
                    gradientUnits="userSpaceOnUse" x1="43.578" x2="57.202" xlink:href="#lg1" y1="534.046"
                    y2="547.671"></linearGradient>
    <g>
        <g id="Icon_17">
            <path id="Contour_31_"
                  d="m162.966 396.947c-1.736-3.263-5.37-5.043-9.012-4.416-17.754 3.004-68.791 4.566-72.726-74.889-4.807-96.338 111.988-260.867 283.486-228.153 137.733 26.285 34.876 157.319 119.258 190.393 49.416 19.346 94.055 118.567-15.621 204.752-59.358 46.591-211.57 87.775-305.385-87.687z"
                  fill="url(#Contour_1_)"></path>
            <path id="Contour-2_31_"
                  d="m9.132 545.854c-4.977 0-9.012-4.035-9.012-9.012s4.035-9.012 9.012-9.012 9.012 4.035 9.012 9.012-4.035 9.012-9.012 9.012zm0-12.016c-1.659 0-3.004 1.345-3.004 3.004s1.345 3.004 3.004 3.004 3.004-1.345 3.004-3.004c-.033-1.636-1.368-2.944-3.004-2.944z"
                  fill="url(#Contour-2_1_)"></path>
            <path id="Contour-3_31_"
                  d="m240.078 18.024c-4.977 0-9.012-4.035-9.012-9.012s4.035-9.012 9.012-9.012 9.012 4.035 9.012 9.012-4.034 9.012-9.012 9.012zm0-12.016c-1.659 0-3.004 1.345-3.004 3.004s1.345 3.004 3.004 3.004 3.004-1.345 3.004-3.004-1.344-3.004-3.004-3.004z"
                  fill="url(#Contour-3_1_)"></path>
            <path id="Contour-4_31_"
                  d="m600.917 341.373c-4.977 0-9.012-4.035-9.012-9.012s4.035-9.012 9.012-9.012 9.012 4.035 9.012 9.012-4.035 9.012-9.012 9.012zm0-12.016c-1.659 0-3.004 1.345-3.004 3.004s1.345 3.004 3.004 3.004 3.004-1.345 3.004-3.004-1.345-3.004-3.004-3.004z"
                  fill="url(#Contour-4_1_)"></path>
            <g id="Group_31_">
                <path id="Contour-5_31_"
                      d="m45.18 204.271c0-1.659-1.345-3.004-3.004-3.004h-3.004c-1.659 0-3.004 1.345-3.004 3.004s1.345 3.004 3.004 3.004h3.004c1.659 0 3.004-1.345 3.004-3.004z"
                      fill="url(#Contour-5_1_)"></path>
                <path id="Contour-6_31_"
                      d="m47.102 202.258c1.659 0 3.004-1.345 3.004-3.004v-3.244c-.126-1.565-1.434-2.769-3.004-2.764-1.57-.005-2.878 1.199-3.004 2.764v3.244c.001 1.659 1.345 3.004 3.004 3.004z"
                      fill="url(#Contour-6_1_)"></path>
                <path id="Contour-7_31_"
                      d="m55.213 201.267h-3.244c-1.659 0-3.004 1.345-3.004 3.004s1.345 3.004 3.004 3.004h3.244c1.659 0 3.004-1.345 3.004-3.004s-1.345-3.004-3.004-3.004z"
                      fill="url(#Contour-7_1_)"></path>
                <path id="Contour-8_31_"
                      d="m47.102 205.983c-1.659 0-3.004 1.345-3.004 3.004v3.214c.111 1.576 1.424 2.798 3.004 2.794 1.58.004 2.893-1.217 3.004-2.794v-3.214c0-1.659-1.344-3.004-3.004-3.004z"
                      fill="url(#Contour-8_1_)"></path>
            </g>
            <g id="Group-2_31_">
                <path id="Contour-9_31_"
                      d="m519.089 63.985c0-1.659-1.345-3.004-3.004-3.004h-3.244c-1.659 0-3.004 1.345-3.004 3.004s1.345 3.004 3.004 3.004h3.244c1.659 0 3.004-1.345 3.004-3.004z"
                      fill="url(#Contour-9_1_)"></path>
                <path id="Contour-10_31_"
                      d="m520.921 62.122c1.659 0 3.004-1.345 3.004-3.004v-3.244c-.126-1.565-1.434-2.769-3.004-2.764-1.57-.005-2.878 1.199-3.004 2.764v3.244c0 1.659 1.345 3.004 3.004 3.004z"
                      fill="url(#Contour-10_1_)"></path>
                <path id="Contour-11_31_"
                      d="m529.032 60.981h-3.214c-1.659 0-3.004 1.345-3.004 3.004s1.345 3.004 3.004 3.004h3.244c1.659 0 3.004-1.345 3.004-3.004s-1.345-3.004-3.004-3.004z"
                      fill="url(#Contour-11_1_)"></path>
                <path id="Contour-12_31_"
                      d="m520.921 65.847c-1.659 0-3.004 1.345-3.004 3.004v3.244c.126 1.565 1.434 2.769 3.004 2.764 1.57.005 2.878-1.199 3.004-2.764v-3.244c0-1.659-1.345-3.004-3.004-3.004z"
                      fill="url(#Contour-12_1_)"></path>
            </g>
            <g id="Group-3_31_">
                <path id="Contour-13_31_"
                      d="m359.307 598.935c0-1.659-1.345-3.004-3.004-3.004h-3.214c-1.659 0-3.004 1.345-3.004 3.004s1.345 3.004 3.004 3.004h3.214c1.659 0 3.004-1.345 3.004-3.004z"
                      fill="url(#Contour-13_1_)"></path>
                <path id="Contour-14_31_"
                      d="m361.169 597.072c1.659 0 3.004-1.345 3.004-3.004v-3.214c0-1.659-1.345-3.004-3.004-3.004s-3.004 1.345-3.004 3.004v3.214c0 1.659 1.345 3.004 3.004 3.004z"
                      fill="url(#Contour-14_1_)"></path>
                <path id="Contour-15_31_"
                      d="m369.28 595.931h-3.244c-1.659 0-3.004 1.345-3.004 3.004s1.345 3.004 3.004 3.004h3.244c1.659 0 3.004-1.345 3.004-3.004s-1.345-3.004-3.004-3.004z"
                      fill="url(#Contour-15_1_)"></path>
                <path id="Contour-16_31_"
                      d="m361.169 600.797c-1.659 0-3.004 1.345-3.004 3.004v3.244c0 1.659 1.345 3.004 3.004 3.004s3.004-1.345 3.004-3.004v-3.244c0-1.659-1.345-3.004-3.004-3.004z"
                      fill="url(#Contour-16_1_)"></path>
            </g>
            <path id="Contour-17_31_"
                  d="m296.583 168.914-22.199-52.149s19.856-22.049 72.096-9.733c0 0 44.249-2.013 46.412 10.754l-23.731 50.587 7.991 34.906s86.725 55.484 94.205 167.803l-57.889 118.988-52.87 17.423-60.831-1.472s-94.626-11.385-95.377-97.269l-16.792-40.614s7.45-58.097 39.052-101.204c23.311-31.752 61.341-61.221 61.341-61.221z"
                  fill="#fff"></path>
            <path id="Contour-18_31_"
                  d="m263.57 226.861s-112.499 166.271 45.27 230.946c30.04 12.286 179.278 8.621 129.171-185.676 18.344 29.035 29.659 61.95 33.044 96.128l-57.647 121.931-41.695 13.788-14.119 4.536-57.767-2.493s-87.686-10.093-93.844-90.63l-18.384-47.253 14.84-55.724 33.645-58.277z"
                  fill="url(#Contour-18_1_)"></path>
            <path id="Contour-19_31_"
                  d="m335.785 111.147s46.171-.391 39.773 15.981-20.968 47.102-20.968 47.102l15.711-7.72 22.65-48.574-14.78-8.832-34.876-2.644z"
                  fill="url(#Contour-19_1_)"></path>
            <path id="Contour-20_31_"
                  d="m297.334 160.923s-13.999-38.151-9.973-41.034c14.212-8.174 30.067-13.079 46.412-14.359l-16.131-3.395s-35.717 3.815-43.257 16.462z"
                  fill="url(#Contour-20_1_)"></path>
            <path id="Contour-21_31_"
                  d="m377.09 203.28c-13.918 4.239-28.327 6.653-42.867 7.18-14.489-.539-28.847-2.952-42.717-7.18-5.347-1.772-9.012-4.025-9.012-9.012.004-.688.085-1.373.24-2.043 1.213-4.69 5.999-7.509 10.689-6.296.307.079.61.176.907.288 12.819 4.755 26.319 7.422 39.983 7.9 13.674-.476 27.184-3.143 40.013-7.9 4.531-1.714 9.594.57 11.308 5.101.112.297.208.6.288.907.156.67.236 1.355.24 2.043-.09 4.986-2.733 6.398-9.072 9.012z"
                  fill="#fff"></path>
            <path id="Contour-22_31_"
                  d="m360.178 207.515c3.888 7.951 6.764 16.357 8.561 25.023 2.794 13.518 2.794 15.02 5.467 15.44 2.674.421 6.008-8.231 6.008-8.231l-11.505-34.035z"
                  fill="url(#Contour-22_1_)"></path>
            <path id="Contour-23_31_"
                  d="m373.936 185.346c-13.295 4.215-27.097 6.619-41.034 7.149-13.937-.53-27.739-2.935-41.034-7.149-5.137-1.802-8.591-4.055-8.591-9.012-.006-.687.065-1.372.21-2.043.995-4.504 5.452-7.348 9.955-6.354.394.087.782.203 1.159.346 12.238 4.747 25.183 7.417 38.301 7.9 13.118-.48 26.064-3.15 38.301-7.9 4.29-1.647 9.103.496 10.75 4.786.153.397.274.806.364 1.222.156.67.236 1.355.24 2.043 0 4.956-2.553 6.368-8.621 9.012z"
                  fill="#fff"></path>
            <path id="Contour-24_31_"
                  d="m381.146 201.477s-21.418 5.047-35.267 6.699c-10.036.806-20.134.301-30.04-1.502-3.845-.781-6.519-2.043-6.909-5.467-.06-.469-.06-.943 0-1.412.451-3.287 3.481-5.587 6.768-5.136.25.034.498.084.742.15 4.746 1.111 17.874.421 29.139-.901s21.569-3.364 25.924-5.527c3.214-1.622 10.153-3.004 11.355.451.18.451 3.004 3.364 3.004 3.845v-.421c.655 3.78-1.267 7.539-4.716 9.221z"
                  fill="url(#Contour-24_1_)"></path>
            <path id="Contour-25_31_"
                  d="m290.305 183.844s21.659 7.69 35.477 9.312 30.04-4.115 30.04-4.115c3.815-.811 6.519-2.073 6.909-5.467.06-.479.06-.963 0-1.442-.471-3.285-3.516-5.565-6.8-5.094-.301.043-.599.109-.89.198-4.746 1.111-18.024.421-29.109-.901s-21.599-3.364-25.954-5.557c-3.184-1.592-10.123-3.004-11.355.481-.15.451-3.004 3.364-3.004 3.845v-.421c-.602 3.748 1.294 7.454 4.686 9.161z"
                  fill="url(#Contour-25_1_)"></path>
            <path id="Contour-26_30_"
                  d="m92.343 368.138h124.215c3.069 0 5.557 2.488 5.557 5.557v16.852c0 3.069-2.488 5.557-5.557 5.557h-124.215c-3.069 0-5.557-2.488-5.557-5.557v-16.852c-.001-3.069 2.487-5.557 5.557-5.557z"
                  fill="#fff"></path>
            <path id="Contour-27_30_"
                  d="m124.125 371.082h94.505c2.372 0 4.296 1.923 4.296 4.296v13.458c0 2.372-1.923 4.296-4.296 4.296h-94.505c-2.372 0-4.296-1.923-4.296-4.296v-13.458c0-2.372 1.923-4.296 4.296-4.296z"
                  fill="url(#Contour-27_1_)"></path>
            <path id="Contour-28_29_"
                  d="m92.343 424.343h124.215c3.069 0 5.557 2.488 5.557 5.557v16.852c0 3.069-2.488 5.557-5.557 5.557h-124.215c-3.069 0-5.557-2.488-5.557-5.557v-16.852c-.001-3.069 2.487-5.557 5.557-5.557z"
                  fill="#fff"></path>
            <path id="Contour-29_27_"
                  d="m92.343 480.547h124.215c3.069 0 5.557 2.488 5.557 5.557v16.852c0 3.069-2.488 5.557-5.557 5.557h-124.215c-3.069 0-5.557-2.488-5.557-5.557v-16.852c-.001-3.068 2.487-5.557 5.557-5.557z"
                  fill="#fff"></path>
            <path id="Contour-30_26_"
                  d="m124.125 427.287h94.505c2.372 0 4.296 1.923 4.296 4.296v13.458c0 2.372-1.923 4.296-4.296 4.296h-94.505c-2.372 0-4.296-1.923-4.296-4.296v-13.458c0-2.373 1.923-4.296 4.296-4.296z"
                  fill="url(#Contour-30_1_)"></path>
            <path id="Contour-31_23_"
                  d="m240.92 422.721h-124.215c-3.069 0-5.557-2.488-5.557-5.557v-16.852c0-3.069 2.488-5.557 5.557-5.557h124.215c3.069 0 5.557 2.488 5.557 5.557v16.852c0 3.069-2.488 5.557-5.557 5.557z"
                  fill="#fff"></path>
            <path id="Contour-32_23_"
                  d="m209.137 421.219h-94.505c-2.372 0-4.296-1.923-4.296-4.296v-13.458c0-2.372 1.923-4.296 4.296-4.296h94.505c2.372 0 4.296 1.923 4.296 4.296v13.458c0 2.373-1.923 4.296-4.296 4.296z"
                  fill="url(#Contour-32_1_)"></path>
            <path id="Contour-33_22_"
                  d="m240.92 480.397h-124.215c-3.069 0-5.557-2.488-5.557-5.557v-16.852c0-3.069 2.488-5.557 5.557-5.557h124.215c3.069 0 5.557 2.488 5.557 5.557v16.852c0 3.069-2.488 5.557-5.557 5.557z"
                  fill="#fff"></path>
            <path id="Contour-34_18_"
                  d="m209.137 477.453h-94.505c-2.372 0-4.296-1.923-4.296-4.296v-13.457c0-2.372 1.923-4.296 4.296-4.296h94.505c2.372 0 4.296 1.923 4.296 4.296v13.458c0 2.372-1.923 4.295-4.296 4.295z"
                  fill="url(#Contour-34_1_)"></path>
            <path id="Contour-35_15_"
                  d="m124.125 483.371h94.505c2.372 0 4.296 1.923 4.296 4.296v13.458c0 2.372-1.923 4.296-4.296 4.296h-94.505c-2.372 0-4.296-1.923-4.296-4.296v-13.458c0-2.373 1.923-4.296 4.296-4.296z"
                  fill="url(#Contour-35_1_)"></path>
            <circle id="Contour-36_14_" cx="463.815" cy="438.341" fill="#fff" r="67.68"></circle>
            <path id="Contour-37_13_"
                  d="m454.743 399.71 1.532 10.033s-15.35 10.003-7.39 23.882c7.961 13.878 23.251 9.673 23.251 9.673s5.708 13.398-4.025 14.209-9.312-6.368-9.312-6.368l-10.093 1.682s5.167 12.887 15.02 14.629l2.493 10.935 10.184-1.923v-11.265s10.574-7.57 8.772-17.483c-1.781-8.861-8.864-15.692-17.784-17.153-7.901-1.502-12.767-7.75-3.995-11.415 0 0 5.647.781 6.789 4.476l10.093-1.953s-2.704-11.205-9.192-12.346c-6.489-1.142-6.368-11.115-6.368-11.115z"
                  fill="url(#Contour-37_1_)"></path>
            <path id="Contour-38_12_"
                  d="m532.907 441.406s-30.821 57.947-76.451 50.347c-23.969-4.155-42.414-23.477-45.45-47.613-1.893-15.501 1.051-36.048 17.033-61.371 0 0-62.092 49.055-13.278 102.135s124.334-2.284 118.146-43.498z"
                  fill="url(#Contour-38_1_)"></path>
            <path id="Contour-39_11_"
                  d="m316.26 268.556v16.372s-28.328 20.187-20.277 41.335c7.36 19.286 39.502 24.242 39.502 24.242s7.18 20.487-10.814 21.629c-7.266.645-13.919-4.097-15.681-11.175l-18.865.18s8.561 22.71 25.924 28.688l.751 19.316 17.483-1.202v-16.071s24.032-11.115 23.401-29.649c-.684-16.631-11.613-31.092-27.426-36.288-13.938-4.987-21.028-17.754-3.995-21.899 0 0 10.063 3.004 11.085 10.093l16.792-.571s.481-18.775-10.995-22.68-8.802-20.728-8.802-20.728z"
                  fill="url(#Contour-39_1_)"></path>
            <path id="Contour-40_9_"
                  d="m129.802 292.558c-3.687 10.036-11.544 17.981-21.539 21.779 0 0 21.569 5.437 22.41 23.101 0 0 5.678-24.032 24.633-24.873.03 0-21.328-2.764-25.504-20.007z"
                  fill="url(#Contour-40_1_)"></path>
            <path id="Contour-41_9_" d="m159.632 256.06-12.557 9.673 13.218 9.492 11.445-9.132z"
                  fill="url(#Contour-41_1_)"></path>
            <g id="Group-4_25_">
                <path id="Contour-42_9_"
                      d="m481.719 433.806c-4.008-3.022-8.765-4.892-13.758-5.407-1.953-.171-3.857-.701-5.617-1.562-.21 0-.691-.421-.871-1.592-.145-.619-.001-1.271.391-1.772.441-.557 1.094-.906 1.802-.961.56-.151 1.158-.064 1.652.24.359.259.64.613.811 1.021.839 1.796 2.754 2.832 4.716 2.553l7.33-1.142c2.415-.337 4.1-2.569 3.763-4.984-.028-.204-.071-.405-.128-.603-1.69-5.974-6.386-10.625-12.376-12.256l-1.081-6.999c-.35-2.414-2.591-4.086-5.004-3.736-.024.004-.048.007-.073.011l-7.21 1.111c-1.285.209-2.398 1.01-3.004 2.163-.557 1.082-.736 2.319-.511 3.515l.961 6.218c-1.954 1.24-3.673 2.816-5.077 4.656-2.987 4.078-4.151 9.211-3.214 14.179.464 4.284 2.549 8.228 5.828 11.025 3.911 2.835 8.502 4.586 13.308 5.077 2.078.208 4.108.756 6.008 1.622.574.358.934.976.961 1.652.254 1.174.015 2.401-.661 3.395-1.507 1.718-4.007 2.155-6.008 1.051-.682-.475-1.172-1.178-1.382-1.983-.655-2.054-2.705-3.327-4.836-3.004l-7.72 1.202c-2.411.365-4.071 2.615-3.706 5.026.03.2.074.397.131.591 1.281 4.435 3.854 8.388 7.39 11.355 2.454 1.682 5.24 2.819 8.171 3.334l1.021 6.669c.16 1.2.8 2.284 1.772 3.004.765.54 1.677.834 2.613.841h.631l7.21-1.111c1.199-.164 2.281-.802 3.004-1.772.707-.946 1-2.139.811-3.304l-1.081-7.059c7.055-4.145 10.764-12.26 9.282-20.307-.487-4.637-2.722-8.912-6.249-11.957zm-2.403 23.431c-1.208 1.614-2.77 2.929-4.566 3.845-1.706.853-2.666 2.711-2.373 4.596l1.021 6.639-4.146.631-.961-6.278c-.323-1.975-1.917-3.496-3.905-3.725-2.382-.281-4.66-1.137-6.639-2.493-1.962-1.737-3.477-3.922-4.416-6.368l4.536-.691c.687 1.534 1.777 2.852 3.154 3.815 2.22 1.523 4.956 2.096 7.6 1.592 2.753-.346 5.236-1.828 6.849-4.085 1.597-2.256 2.215-5.062 1.712-7.78-.277-2.468-1.658-4.677-3.755-6.008-2.568-1.285-5.346-2.099-8.201-2.403-3.753-.38-7.354-1.68-10.484-3.785-2.096-1.898-3.404-4.514-3.665-7.33-.693-3.353.06-6.843 2.073-9.613 1.091-1.469 2.484-2.688 4.085-3.575 1.641-.879 2.554-2.694 2.283-4.536l-.991-6.398 4.146-.631.991 6.549c.298 1.854 1.729 3.321 3.575 3.665 1.476.295 2.876.888 4.115 1.742 1.774 1.192 3.179 2.857 4.055 4.806l-4.386.691c-.618-1.008-1.449-1.869-2.433-2.523-1.729-1.102-3.815-1.499-5.828-1.111-2.247.267-4.292 1.425-5.678 3.214-1.376 1.816-1.932 4.125-1.532 6.368.264 2.354 1.577 4.463 3.575 5.738 2.44 1.312 5.114 2.128 7.87 2.403 3.904.396 7.639 1.793 10.844 4.055 2.279 2.124 3.7 5.01 3.995 8.111.772 3.817-.148 7.782-2.52 10.873z"
                      fill="url(#Contour-42_1_)"></path>
                <path id="Contour-43_7_"
                      d="m521.612 481.148c23.179-31.699 16.272-76.187-15.428-99.366-9.28-6.785-20.066-11.22-31.435-12.923-2.909-29.528-11.047-58.304-24.032-84.983-20.878-43.798-55.514-72.096-66.749-80.447 3.35-1.732 5.399-5.243 5.257-9.012-.005-.921-.116-1.838-.33-2.734-.719-3.112-2.759-5.755-5.587-7.24l-.601-.24c1.65-2.057 2.513-4.634 2.433-7.27.006-.91-.095-1.817-.3-2.704-.686-3.172-2.729-5.884-5.587-7.42-1.567-.824-3.306-1.266-5.077-1.292 5.527-10.604 17.033-33.044 21.208-43.408 1.245-2.993.543-6.443-1.772-8.712-5.557-6.008-21.539-9.282-39.052-9.282-26.075-9.763-68.461-3.455-79.876 8.201-2.827 2.453-3.844 6.399-2.553 9.913 4.176 10.424 15.651 32.804 21.028 43.408-1.66.06-3.284.502-4.746 1.292-2.823 1.519-4.858 4.178-5.587 7.3-.181.89-.271 1.796-.27 2.704-.047 2.766.951 5.447 2.794 7.51-2.828 1.484-4.868 4.128-5.587 7.24-.215.896-.325 1.813-.33 2.734-.023 3.676 1.88 7.095 5.017 9.012-36.972 26.735-65.899 63.101-83.631 105.139-7.747 18.06-12.808 37.158-15.02 56.685h-93.456c-4.721.016-8.545 3.84-8.561 8.561v16.702c0 4.728 3.833 8.561 8.561 8.561h15.921c-.31.868-.472 1.782-.481 2.704v16.852c.003.922.166 1.837.481 2.704h-15.921c-4.721.017-8.545 3.84-8.561 8.561v16.852c.016 4.721 3.84 8.545 8.561 8.561h15.921c-.315.867-.478 1.781-.481 2.704v16.822c.003.922.166 1.837.481 2.704h-15.921c-4.721.017-8.545 3.84-8.561 8.561v16.852c.016 4.721 3.84 8.545 8.561 8.561h423.562c1.659 0 3.004-1.345 3.004-3.004s-1.345-3.004-3.004-3.004h-26.345c12.821-4.835 23.958-13.3 32.052-24.359zm-242.782-364.864c6.969-7.149 32.323-12.827 54.883-10.754-5.237.757-10.409 1.912-15.471 3.455-3.797 1.182-5.93 5.206-4.776 9.012l9.282 28.508c.562 1.561 2.284 2.37 3.845 1.808 1.151-.415 1.935-1.486 1.983-2.709.029-.27.029-.541 0-.811l-9.342-28.628c-.195-.663.18-1.36.841-1.562 25.023-7.75 61.912-5.077 69.092 2.613.724.584.969 1.579.601 2.433-4.866 12.016-20.577 42.206-23.491 47.703-10.389 3.821-21.32 5.961-32.383 6.338-11.21-.384-22.285-2.565-32.804-6.459-3.004-6.008-18.595-35.537-23.401-47.583-.331-.33-.752-1.441 1.141-3.364zm9.883 59.119c.302-1.463 1.237-2.717 2.553-3.425 1.299-.687 2.83-.786 4.206-.27 12.211 4.868 25.165 7.611 38.301 8.111 13.126-.499 26.07-3.242 38.271-8.111 1.387-.513 2.926-.415 4.236.27 1.316.707 2.251 1.961 2.553 3.425.096.465.146.937.15 1.412 0 3.004-.931 4.506-6.699 7.089-12.221 4.445-25.065 6.938-38.06 7.39-13.347-.464-26.533-3.07-39.052-7.72-6.008-2.163-6.699-4.896-6.699-6.759.018-.48.099-.954.24-1.412zm4.536 13.848c13.137 4.871 26.972 7.599 40.974 8.081 14.013-.479 27.858-3.207 41.004-8.081 1.671-.597 3.517-.455 5.077.391 1.313.681 2.266 1.897 2.613 3.334.044.449.044.902 0 1.352 0 2.704-.571 3.485-6.999 6.008-13.588 4.128-27.654 6.481-41.846 6.999-14.199-.547-28.27-2.899-41.876-6.999-5.798-1.953-6.939-3.725-6.939-6.008-.044-.449-.044-.902 0-1.352.347-1.437 1.301-2.654 2.613-3.334.919-.508 1.954-.767 3.004-.751.716-.002 1.428.119 2.103.36zm73.688 19.886c4.094 9.413 7.4 19.149 9.883 29.109.991 7.029.601 7.931-1.742 9.312-.398.228-.822.409-1.262.541-1.418.429-2.953.221-4.206-.571-1.569-.865-2.671-2.385-3.004-4.145-2.072-11.057-5.429-21.835-10.003-32.113 3.995-.691 7.33-1.442 10.334-2.163zm-160.623 101.655c28.628-67.469 78.734-100.814 84.562-104.509 14.073 4.278 28.647 6.692 43.348 7.18 5.47-.04 10.93-.461 16.342-1.262 4.757 10.273 8.208 21.102 10.274 32.233.636 3.443 2.742 6.438 5.768 8.201 1.75 1.087 3.767 1.669 5.828 1.682 1.101-.006 2.195-.178 3.244-.511.893-.264 1.751-.638 2.553-1.111 6.248-3.665 5.497-9.012 4.596-15.561-2.479-10.088-5.785-19.954-9.883-29.499l4.686-1.352c5.587 3.995 45.27 33.404 67.62 80.176 12.526 25.693 20.476 53.374 23.491 81.798-5.107-.339-10.235-.107-15.29.691-38.722 5.912-65.319 42.095-59.406 80.817 2.138 14.005 8.422 27.049 18.042 37.45-5.299 2.709-10.779 5.048-16.402 6.999-60.32 10.844-90.48-25.624-90.78-25.984-.554-.72-1.405-1.151-2.313-1.172-1.659 0-3.004 1.345-3.004 3.004.012.681.256 1.338.691 1.862 1.051 1.322 22.139 27.036 64.766 30.04-26.386 4.298-53.379 3.029-79.245-3.725-14.18-3.562-27.804-9.05-40.494-16.312 2.373-1.594 3.802-4.261 3.815-7.119v-16.822c-.033-4.745-3.906-8.565-8.651-8.532-.01 0-.02 0-.031 0h-15.831c.31-.868.472-1.782.481-2.704v-16.85c-.005-.922-.168-1.836-.481-2.704h15.831c4.733 0 8.575-3.828 8.591-8.561v-16.852c-.017-4.733-3.858-8.561-8.591-8.561h-15.831c.315-.867.478-1.781.481-2.704v-16.822c-.016-4.745-3.876-8.578-8.621-8.562-.02 0-.04 0-.061 0h-24.663c2.223-18.719 7.13-37.02 14.568-54.342zm18.294 172.609h11.625c14.777 9.482 31.016 16.465 48.064 20.667 1.953.511 3.875.991 5.828 1.442h-65.457c.262-.827.404-1.686.421-2.553v-16.852c-.009-.922-.171-1.836-.481-2.704zm-10.244-27.937h26.075c1.415 0 2.567 1.138 2.583 2.553v16.822c-.016 1.415-1.168 2.553-2.583 2.553h-124.125c-1.41 0-2.553-1.143-2.553-2.553v-16.822c0-1.41 1.143-2.553 2.553-2.553zm-22.65-56.234h48.725c1.415 0 2.567 1.138 2.583 2.553v16.852c-.016 1.415-1.168 2.553-2.583 2.553h-124.125c-1.41 0-2.553-1.143-2.553-2.553v-16.852c.016-1.403 1.15-2.537 2.553-2.553zm-99.371-6.159c-1.41 0-2.553-1.143-2.553-2.553v-16.822c0-1.41 1.143-2.553 2.553-2.553h124.065c1.41 0 2.553 1.143 2.553 2.553v16.822c0 1.41-1.143 2.553-2.553 2.553zm0 56.235c-1.41 0-2.553-1.143-2.553-2.553v-16.853c0-1.41 1.143-2.553 2.553-2.553h124.065c1.41 0 2.553 1.143 2.553 2.553v16.852c0 1.41-1.143 2.553-2.553 2.553h-124.065zm2.283 56.205h-2.283c-1.41 0-2.553-1.143-2.553-2.553v-16.852c0-1.41 1.143-2.553 2.553-2.553h124.065c1.41 0 2.553 1.143 2.553 2.553v16.852c0 1.41-1.143 2.553-2.553 2.553zm283.786 0c1.953-.451 3.875-.931 5.828-1.442 4.506-1.172 8.772-2.523 12.947-3.995h.24c6.602-2.29 13.028-5.061 19.225-8.291 6.576 5.965 14.206 10.651 22.5 13.818zm95.797-2.103c-18.683 2.894-37.698-2.515-52.059-14.81-1.603-1.364-3.137-2.808-4.596-4.326-24.942-25.823-24.228-66.977 1.596-91.919 9.657-9.327 21.965-15.436 35.233-17.486 3.331-.503 6.695-.754 10.063-.751 1.592 0 3.184 0 4.746.18 2.015.144 4.02.395 6.008.751 35.4 6.084 59.165 39.713 53.081 75.112-4.73 27.525-26.506 48.956-54.102 53.248h.03z"
                      fill="url(#Contour-43_1_)"></path>
                <path id="Contour-44_7_"
                      d="m522.333 429.99c-3.715-24.475-22.501-43.923-46.832-48.484-1.953-.36-3.965-.631-6.008-.811-4.588-.389-9.206-.238-13.758.451-31.809 4.908-53.618 34.672-48.71 66.482 1.913 12.399 7.776 23.85 16.718 32.65 1.483 1.459 3.048 2.833 4.686 4.115 10.246 8.168 22.945 12.644 36.048 12.707 3.017-.003 6.03-.234 9.012-.691 31.851-4.916 53.69-34.716 48.785-66.568zm-15.441 39.833c-17.066 23.303-49.792 28.359-73.095 11.292-.108-.079-.215-.158-.322-.238-1.647-1.241-3.221-2.575-4.716-3.995-21.008-19.823-21.968-52.923-2.145-73.931 7.99-8.467 18.576-14.027 30.082-15.798 2.656-.393 5.336-.594 8.021-.601 1.622 0 3.244 0 4.836.24 2.021.195 4.027.516 6.008.961 28.255 5.996 46.299 33.762 40.303 62.017-1.537 7.245-4.595 14.08-8.972 20.053z"
                      fill="url(#Contour-44_1_)"></path>
                <path id="Contour-45_7_"
                      d="m298.506 383.759c4.148 3.946 9.187 6.832 14.689 8.411v14.269c-.017 3.119 2.498 5.661 5.617 5.678h13.458c3.112 0 5.645-2.505 5.678-5.617v-15.02c13.786-4.724 22.941-17.813 22.65-32.383.393-7.772-2.088-15.418-6.969-21.478-4.566-5.257-12.016-9.643-22.38-13.037-3.818-.958-7.424-2.618-10.634-4.896-1.435-1.278-2.171-3.165-1.983-5.077-.096-1.848.617-3.646 1.953-4.927 1.435-1.322 3.339-2.014 5.287-1.923 1.718-.08 3.399.513 4.686 1.652.934.89 1.6 2.025 1.923 3.274.69 2.441 2.901 4.138 5.437 4.176h13.668c1.655.072 3.247-.641 4.296-1.923 1.061-1.199 1.554-2.797 1.352-4.386-.807-7.023-4.087-13.529-9.252-18.354-2.806-2.638-6.117-4.682-9.733-6.008v-14.93c.017-3.119-2.498-5.661-5.617-5.678h-13.458c-1.67-.026-3.254.743-4.266 2.073-.989 1.379-1.487 3.051-1.412 4.746v13.248c-4.204 1.574-8.039 3.998-11.265 7.119-6.113 6.082-9.439 14.421-9.192 23.041-.353 7.306 2.073 14.475 6.789 20.067 4.446 4.957 11.535 9.012 21.659 12.316 4.045 1.052 7.884 2.778 11.355 5.107 1.479 1.32 2.266 3.249 2.133 5.227.099 2.885-.987 5.685-3.004 7.75-1.957 2.012-4.674 3.103-7.48 3.004-2.751.148-5.446-.816-7.48-2.674-1.492-1.45-2.437-3.371-2.674-5.437-.372-2.728-2.685-4.772-5.437-4.806h-14.209c-3.119-.023-5.666 2.486-5.69 5.605-.002.245.012.49.042.734.691 5.226 3.846 15.8 9.463 21.057zm10.063-21.538c.513 3.254 2.062 6.257 4.416 8.561 3.142 2.939 7.325 4.506 11.625 4.356 4.385.125 8.626-1.571 11.716-4.686 3.121-3.203 4.793-7.546 4.626-12.016.149-3.747-1.409-7.359-4.236-9.823-4.065-2.853-8.6-4.968-13.398-6.248-9.012-3.004-15.38-6.519-19.045-10.634-3.717-4.479-5.595-10.201-5.257-16.011-.215-6.995 2.508-13.76 7.51-18.655 2.652-2.63 5.823-4.676 9.312-6.008 2.241-.783 3.754-2.883 3.785-5.257v-13.428c-.045-.268-.045-.543 0-.811h12.647v14.72c-.007 2.391 1.499 4.524 3.755 5.317 2.922 1.067 5.599 2.711 7.87 4.836 4.042 3.761 6.636 8.822 7.33 14.299h-12.977c-.642-2.296-1.899-4.374-3.635-6.008-2.394-2.05-5.472-3.123-8.621-3.004-3.515-.128-6.935 1.159-9.493 3.575-2.532 2.412-3.919 5.787-3.815 9.282-.19 3.65 1.292 7.187 4.025 9.613 3.839 2.771 8.157 4.808 12.737 6.008 9.222 3.004 15.861 6.789 19.676 11.235 3.93 4.961 5.898 11.195 5.527 17.513.446 12.183-7.203 23.198-18.775 27.036-2.311.735-3.894 2.863-3.935 5.287v14.87h-12.737v-14.24c-.017-2.543-1.723-4.764-4.176-5.437-4.646-1.314-8.903-3.737-12.406-7.059-3.905-3.635-6.819-12.166-7.54-17.183z"
                      fill="url(#Contour-45_1_)"></path>
                <path id="Contour-46_7_"
                      d="m143.2 269.127c7.341-.355 13.58 5.307 13.936 12.648.001.02.002.039.003.059 0 1.659 1.345 3.004 3.004 3.004s3.004-1.345 3.004-3.004c0-7.383 5.985-13.368 13.368-13.368h.481c1.659 0 3.004-1.345 3.004-3.004s-1.345-3.004-3.004-3.004c-7.363.323-13.598-5.375-13.938-12.737 0-1.659-1.345-3.004-3.004-3.004s-3.004 1.345-3.004 3.004c0 7.366-5.971 13.338-13.338 13.338h-.512c-1.659 0-3.004 1.345-3.004 3.004s1.345 3.004 3.004 3.004zm16.942-9.433c1.559 2.337 3.61 4.305 6.008 5.768-2.457 1.618-4.512 3.776-6.008 6.308-1.564-2.341-3.613-4.318-6.008-5.798 2.458-1.604 4.514-3.752 6.008-6.278z"
                      fill="url(#Contour-46_1_)"></path>
                <path id="Contour-47_6_"
                      d="m100.754 316.65c14.052-.645 25.967 10.221 26.615 24.272 0 1.659 1.345 3.004 3.004 3.004s3.004-1.345 3.004-3.004c0-14.085 11.418-25.504 25.504-25.504h.09.661c1.659 0 3.004-1.345 3.004-3.004s-1.345-3.004-3.004-3.004h-.15c-14.052.645-25.967-10.221-26.615-24.272-.08-1.6-1.402-2.856-3.004-2.854-1.659 0-3.004 1.345-3.004 3.004 0 14.069-11.405 25.474-25.474 25.474h-.631c-1.659 0-3.004 1.345-3.004 3.004s1.345 3.004 3.004 3.004zm29.409-18.745c3.165 6.459 8.474 11.619 15.02 14.599-6.678 3.263-11.995 8.772-15.02 15.561-3.245-6.446-8.598-11.588-15.17-14.569 6.739-3.242 12.113-8.765 15.17-15.591z"
                      fill="url(#Contour-47_1_)"></path>
            </g>
        </g>
    </g>
</svg>
