<!-- icon666.com - MILLIONS vector ICONS FREE -->
<svg id="Capa_1" enable-background="new 0 0 609.809 609.809" viewBox="0 0 609.809 609.809"
     xmlns="http://www.w3.org/2000/svg" xmlns:xlink="http://www.w3.org/1999/xlink">
    <linearGradient id="Contour_1_" gradientTransform="matrix(2.522 0 0 -2.522 3.335 1677.175)"
                    gradientUnits="userSpaceOnUse" x1="69.633" x2="188.963" y1="484.872" y2="604.202">
        <stop offset="0" stop-color="#ffb56b"></stop>
        <stop offset="1" stop-color="#bd5e00"></stop>
    </linearGradient>
    <linearGradient id="lg1">
        <stop offset="0" stop-color="#3d1f00"></stop>
        <stop offset="1" stop-color="#693400"></stop>
    </linearGradient>
    <linearGradient id="Contour-2_1_" gradientTransform="matrix(2.522 0 0 -2.522 3.335 1677.175)"
                    gradientUnits="userSpaceOnUse" x1="-.273" x2="4.765" xlink:href="#lg1" y1="470.378"
                    y2="475.428"></linearGradient>
    <linearGradient id="Contour-3_1_" gradientTransform="matrix(2.522 0 0 -2.522 3.335 1677.175)"
                    gradientUnits="userSpaceOnUse" x1="101.422" x2="106.46" xlink:href="#lg1" y1="658.882"
                    y2="663.92"></linearGradient>
    <linearGradient id="Contour-4_1_" gradientTransform="matrix(2.522 0 0 -2.522 3.335 1677.175)"
                    gradientUnits="userSpaceOnUse" x1="234.358" x2="239.396" xlink:href="#lg1" y1="501.467"
                    y2="506.505"></linearGradient>
    <linearGradient id="Contour-5_1_" gradientTransform="matrix(2.522 0 0 -2.522 3.335 1677.175)"
                    gradientUnits="userSpaceOnUse" x1="15.4" x2="17.722" xlink:href="#lg1" y1="592.261"
                    y2="594.596"></linearGradient>
    <linearGradient id="Contour-6_1_" gradientTransform="matrix(2.522 0 0 -2.522 3.335 1677.175)"
                    gradientUnits="userSpaceOnUse" x1="17.969" x2="20.244" xlink:href="#lg1" y1="594.837"
                    y2="597.124"></linearGradient>
    <linearGradient id="Contour-7_1_" gradientTransform="matrix(2.522 0 0 -2.522 3.335 1677.175)"
                    gradientUnits="userSpaceOnUse" x1="20.581" x2="22.868" xlink:href="#lg1" y1="592.309"
                    y2="594.596"></linearGradient>
    <linearGradient id="Contour-8_1_" gradientTransform="matrix(2.522 0 0 -2.522 3.335 1677.175)"
                    gradientUnits="userSpaceOnUse" x1="18.02" x2="20.295" xlink:href="#lg1" y1="589.748"
                    y2="592.023"></linearGradient>
    <linearGradient id="Contour-9_1_" gradientTransform="matrix(2.522 0 0 -2.522 3.335 1677.175)"
                    gradientUnits="userSpaceOnUse" x1="211.5" x2="213.823" xlink:href="#lg1" y1="618.562"
                    y2="620.897"></linearGradient>
    <linearGradient id="Contour-10_1_" gradientTransform="matrix(2.522 0 0 -2.522 3.335 1677.175)"
                    gradientUnits="userSpaceOnUse" x1="214.049" x2="216.336" xlink:href="#lg1" y1="621.147"
                    y2="623.422"></linearGradient>
    <linearGradient id="Contour-11_1_" gradientTransform="matrix(2.522 0 0 -2.522 3.335 1677.175)"
                    gradientUnits="userSpaceOnUse" x1="216.687" x2="218.962" xlink:href="#lg1" y1="618.604"
                    y2="620.891"></linearGradient>
    <linearGradient id="Contour-12_1_" gradientTransform="matrix(2.522 0 0 -2.522 3.335 1677.175)"
                    gradientUnits="userSpaceOnUse" x1="214.1" x2="216.387" xlink:href="#lg1" y1="616.046"
                    y2="618.333"></linearGradient>
    <linearGradient id="Contour-13_1_" gradientTransform="matrix(2.522 0 0 -2.522 3.335 1677.175)"
                    gradientUnits="userSpaceOnUse" x1="141.06" x2="143.382" xlink:href="#lg1" y1="426.332"
                    y2="428.655"></linearGradient>
    <linearGradient id="Contour-14_1_" gradientTransform="matrix(2.522 0 0 -2.522 3.335 1677.175)"
                    gradientUnits="userSpaceOnUse" x1="143.644" x2="145.918" xlink:href="#lg1" y1="428.894"
                    y2="431.169"></linearGradient>
    <linearGradient id="Contour-15_1_" gradientTransform="matrix(2.522 0 0 -2.522 3.335 1677.175)"
                    gradientUnits="userSpaceOnUse" x1="146.235" x2="148.522" xlink:href="#lg1" y1="426.386"
                    y2="428.673"></linearGradient>
    <linearGradient id="Contour-16_1_" gradientTransform="matrix(2.522 0 0 -2.522 3.335 1677.175)"
                    gradientUnits="userSpaceOnUse" x1="143.648" x2="145.923" xlink:href="#lg1" y1="423.839"
                    y2="426.126"></linearGradient>
    <linearGradient id="lg2">
        <stop offset="0" stop-color="#964b00"></stop>
        <stop offset="1" stop-color="#bd732a"></stop>
    </linearGradient>
    <linearGradient id="Contour-18_1_" gradientTransform="matrix(2.522 0 0 -2.522 3.335 1677.175)"
                    gradientUnits="userSpaceOnUse" x1="40.522" x2="119.261" xlink:href="#lg2" y1="469.153"
                    y2="547.892"></linearGradient>
    <linearGradient id="Contour-19_1_" gradientTransform="matrix(2.522 0 0 -2.522 3.335 1677.175)"
                    gradientUnits="userSpaceOnUse" x1="62.958" x2="79.346" xlink:href="#lg2" y1="585.984"
                    y2="602.373"></linearGradient>
    <linearGradient id="Contour-21_1_" gradientTransform="matrix(2.522 0 0 -2.522 3.335 1677.175)"
                    gradientUnits="userSpaceOnUse" x1="137.389" x2="215.216" xlink:href="#lg2" y1="498.411"
                    y2="576.239"></linearGradient>
    <linearGradient id="Contour-23_1_" gradientTransform="matrix(2.522 0 0 -2.522 3.335 1677.175)"
                    gradientUnits="userSpaceOnUse" x1="136.029" x2="144.602" xlink:href="#lg2" y1="530.614"
                    y2="539.188"></linearGradient>
    <linearGradient id="Contour-24_1_" gradientTransform="matrix(2.522 0 0 -2.522 3.335 1677.175)"
                    gradientUnits="userSpaceOnUse" x1="136.029" x2="144.602" xlink:href="#lg2" y1="512.332"
                    y2="520.905"></linearGradient>
    <linearGradient id="Contour-25_1_" gradientTransform="matrix(2.522 0 0 -2.522 3.335 1677.175)"
                    gradientUnits="userSpaceOnUse" x1="136.029" x2="144.602" xlink:href="#lg2" y1="495.8"
                    y2="504.374"></linearGradient>
    <linearGradient id="Contour-35_1_" gradientTransform="matrix(2.522 0 0 -2.522 3.335 1677.175)"
                    gradientUnits="userSpaceOnUse" x1="136.367" x2="144.287" xlink:href="#lg2" y1="548.128"
                    y2="556.059"></linearGradient>
    <linearGradient id="Contour-41_1_" gradientTransform="matrix(2.522 0 0 -2.522 3.335 1677.175)"
                    gradientUnits="userSpaceOnUse" x1="62.849" x2="79.964" xlink:href="#lg1" y1="585.74"
                    y2="602.843"></linearGradient>
    <linearGradient id="Contour-42_1_" gradientTransform="matrix(2.522 0 0 -2.522 3.335 1677.175)"
                    gradientUnits="userSpaceOnUse" x1="39.224" x2="181.714" xlink:href="#lg1" y1="469.16"
                    y2="611.638"></linearGradient>
    <linearGradient id="Contour-43_2_" gradientTransform="matrix(2.522 0 0 -2.522 3.335 1677.175)"
                    gradientUnits="userSpaceOnUse" x1="145.427" x2="185.811" xlink:href="#lg1" y1="553.96"
                    y2="594.344"></linearGradient>
    <linearGradient id="Contour-44_2_" gradientTransform="matrix(2.522 0 0 -2.522 3.335 1677.175)"
                    gradientUnits="userSpaceOnUse" x1="135.539" x2="145.151" xlink:href="#lg1" y1="547.276"
                    y2="556.888"></linearGradient>
    <linearGradient id="Contour-45_2_" gradientTransform="matrix(2.522 0 0 -2.522 3.335 1677.175)"
                    gradientUnits="userSpaceOnUse" x1="186.099" x2="195.71" xlink:href="#lg1" y1="547.288"
                    y2="556.899"></linearGradient>
    <linearGradient id="Contour-46_2_" gradientTransform="matrix(2.522 0 0 -2.522 3.335 1677.175)"
                    gradientUnits="userSpaceOnUse" x1="152.125" x2="161.737" xlink:href="#lg1" y1="547.412"
                    y2="557.024"></linearGradient>
    <linearGradient id="Contour-47_2_" gradientTransform="matrix(2.522 0 0 -2.522 3.335 1677.175)"
                    gradientUnits="userSpaceOnUse" x1="169.174" x2="178.786" xlink:href="#lg1" y1="547.288"
                    y2="556.899"></linearGradient>
    <linearGradient id="Contour-48_2_" gradientTransform="matrix(2.522 0 0 -2.522 3.335 1677.175)"
                    gradientUnits="userSpaceOnUse" x1="135.21" x2="145.465" xlink:href="#lg1" y1="529.379"
                    y2="539.633"></linearGradient>
    <linearGradient id="Contour-49_2_" gradientTransform="matrix(2.522 0 0 -2.522 3.335 1677.175)"
                    gradientUnits="userSpaceOnUse" x1="185.782" x2="196.036" xlink:href="#lg1" y1="529.379"
                    y2="539.633"></linearGradient>
    <linearGradient id="Contour-50_1_" gradientTransform="matrix(2.522 0 0 -2.522 3.335 1677.175)"
                    gradientUnits="userSpaceOnUse" x1="151.94" x2="162.198" xlink:href="#lg1" y1="529.363"
                    y2="539.621"></linearGradient>
    <linearGradient id="Contour-51_1_" gradientTransform="matrix(2.522 0 0 -2.522 3.335 1677.175)"
                    gradientUnits="userSpaceOnUse" x1="168.857" x2="179.115" xlink:href="#lg1" y1="529.379"
                    y2="539.637"></linearGradient>
    <linearGradient id="Contour-52_1_" gradientTransform="matrix(2.522 0 0 -2.522 3.335 1677.175)"
                    gradientUnits="userSpaceOnUse" x1="181.482" x2="200.193" xlink:href="#lg1" y1="498.952"
                    y2="517.674"></linearGradient>
    <linearGradient id="Contour-53_1_" gradientTransform="matrix(2.522 0 0 -2.522 3.335 1677.175)"
                    gradientUnits="userSpaceOnUse" x1="168.853" x2="179.107" xlink:href="#lg1" y1="511.581"
                    y2="521.835"></linearGradient>
    <linearGradient id="Contour-54_1_" gradientTransform="matrix(2.522 0 0 -2.522 3.335 1677.175)"
                    gradientUnits="userSpaceOnUse" x1="168.853" x2="179.107" xlink:href="#lg1" y1="494.656"
                    y2="504.911"></linearGradient>
    <linearGradient id="Contour-55_1_" gradientTransform="matrix(2.522 0 0 -2.522 3.335 1677.175)"
                    gradientUnits="userSpaceOnUse" x1="135.206" x2="145.461" xlink:href="#lg1" y1="511.581"
                    y2="521.835"></linearGradient>
    <linearGradient id="Contour-56_1_" gradientTransform="matrix(2.522 0 0 -2.522 3.335 1677.175)"
                    gradientUnits="userSpaceOnUse" x1="151.936" x2="162.191" xlink:href="#lg1" y1="511.565"
                    y2="521.819"></linearGradient>
    <linearGradient id="Contour-57_1_" gradientTransform="matrix(2.522 0 0 -2.522 3.335 1677.175)"
                    gradientUnits="userSpaceOnUse" x1="135.206" x2="145.461" xlink:href="#lg1" y1="494.656"
                    y2="504.911"></linearGradient>
    <linearGradient id="Contour-58_1_" gradientTransform="matrix(2.522 0 0 -2.522 3.335 1677.175)"
                    gradientUnits="userSpaceOnUse" x1="151.936" x2="162.191" xlink:href="#lg1" y1="494.64"
                    y2="504.895"></linearGradient>
    <linearGradient id="Contour-59_1_" gradientTransform="matrix(2.522 0 0 -2.522 3.335 1677.175)"
                    gradientUnits="userSpaceOnUse" x1="65.826" x2="85.054" xlink:href="#lg1" y1="489.353"
                    y2="508.582"></linearGradient>
    <linearGradient id="Contour-60_1_" gradientTransform="matrix(2.522 0 0 -2.522 3.335 1677.175)"
                    gradientUnits="userSpaceOnUse" x1="65.826" x2="85.054" xlink:href="#lg1" y1="479.825"
                    y2="499.053"></linearGradient>
    <linearGradient id="Contour-61_1_" gradientTransform="matrix(2.522 0 0 -2.522 3.335 1677.175)"
                    gradientUnits="userSpaceOnUse" x1="118.422" x2="137.65" xlink:href="#lg1" y1="600.179"
                    y2="619.407"></linearGradient>
    <linearGradient id="Contour-62_1_" gradientTransform="matrix(2.522 0 0 -2.522 3.335 1677.175)"
                    gradientUnits="userSpaceOnUse" x1="118.422" x2="137.65" xlink:href="#lg1" y1="590.651"
                    y2="609.879"></linearGradient>
    <linearGradient id="Contour-63_1_" gradientTransform="matrix(2.522 0 0 -2.522 3.335 1677.175)"
                    gradientUnits="userSpaceOnUse" x1="184.749" x2="187.762" xlink:href="#lg1" y1="579.424"
                    y2="582.449"></linearGradient>
    <linearGradient id="Contour-64_1_" gradientTransform="matrix(2.522 0 0 -2.522 3.335 1677.175)"
                    gradientUnits="userSpaceOnUse" x1="188.079" x2="191.091" xlink:href="#lg1" y1="575.715"
                    y2="578.727"></linearGradient>
    <linearGradient id="Contour-65_1_" gradientTransform="matrix(2.522 0 0 -2.522 3.335 1677.175)"
                    gradientUnits="userSpaceOnUse" x1="181.421" x2="184.433" xlink:href="#lg1" y1="575.715"
                    y2="578.727"></linearGradient>
    <linearGradient id="Contour-66_1_" gradientTransform="matrix(2.522 0 0 -2.522 3.335 1677.175)"
                    gradientUnits="userSpaceOnUse" x1="188.076" x2="191.089" xlink:href="#lg1" y1="569.798"
                    y2="572.812"></linearGradient>
    <linearGradient id="Contour-67_1_" gradientTransform="matrix(2.522 0 0 -2.522 3.335 1677.175)"
                    gradientUnits="userSpaceOnUse" x1="181.418" x2="184.431" xlink:href="#lg1" y1="569.798"
                    y2="572.812"></linearGradient>
    <linearGradient id="Contour-68_1_" gradientTransform="matrix(2.522 0 0 -2.522 3.335 1677.175)"
                    gradientUnits="userSpaceOnUse" x1="184.749" x2="187.762" xlink:href="#lg1" y1="566.108"
                    y2="569.133"></linearGradient>
    <linearGradient id="Contour-69_1_" gradientTransform="matrix(2.522 0 0 -2.522 3.335 1677.175)"
                    gradientUnits="userSpaceOnUse" x1="191.506" x2="193.197" xlink:href="#lg1" y1="566.773"
                    y2="568.464"></linearGradient>
    <linearGradient id="Contour-70_1_" gradientTransform="matrix(2.522 0 0 -2.522 3.335 1677.175)"
                    gradientUnits="userSpaceOnUse" x1="56.128" x2="85.672" xlink:href="#lg1" y1="578.98"
                    y2="608.524"></linearGradient>
    <g>
        <g id="Icon_4">
            <path id="Contour_7_"
                  d="m160.833 398.509c-1.736-3.263-5.37-5.043-9.012-4.416-17.724 3.004-68.761 4.566-72.726-74.889-4.806-96.338 111.988-260.867 283.486-228.153 137.763 26.285 34.906 157.319 119.288 190.393 49.386 19.346 94.025 118.567-15.651 204.752-59.358 46.591-211.57 87.775-305.385-87.687z"
                  fill="url(#Contour_1_)"></path>
            <path id="Contour-2_7_"
                  d="m9.012 493.435c-4.977 0-9.012-4.035-9.012-9.012s4.035-9.012 9.012-9.012 9.012 4.035 9.012 9.012-4.035 9.012-9.012 9.012zm0-12.016c-1.659 0-3.004 1.345-3.004 3.004s1.345 3.004 3.004 3.004 3.004-1.345 3.004-3.004-1.345-3.004-3.004-3.004z"
                  fill="url(#Contour-2_1_)"></path>
            <path id="Contour-3_7_"
                  d="m265.492 18.024c-4.977 0-9.012-4.035-9.012-9.012s4.035-9.012 9.012-9.012 9.012 4.035 9.012 9.012-4.035 9.012-9.012 9.012zm0-12.016c-1.659 0-3.004 1.345-3.004 3.004s1.345 3.004 3.004 3.004 3.004-1.345 3.004-3.004-1.345-3.004-3.004-3.004z"
                  fill="url(#Contour-3_1_)"></path>
            <path id="Contour-4_7_"
                  d="m600.797 415.031c-4.977 0-9.012-4.035-9.012-9.012s4.035-9.012 9.012-9.012 9.012 4.035 9.012 9.012-4.035 9.012-9.012 9.012zm0-12.016c-1.659 0-3.004 1.345-3.004 3.004s1.345 3.004 3.004 3.004 3.004-1.345 3.004-3.004-1.345-3.004-3.004-3.004z"
                  fill="url(#Contour-4_1_)"></path>
            <g id="Group_7_">
                <path id="Contour-5_7_"
                      d="m49.716 180.449c0-1.659-1.345-3.004-3.004-3.004h-3.214c-1.659 0-3.004 1.345-3.004 3.004s1.345 3.004 3.004 3.004h3.214c1.659 0 3.004-1.345 3.004-3.004z"
                      fill="url(#Contour-5_1_)"></path>
                <path id="Contour-6_7_"
                      d="m51.578 178.587c1.659 0 3.004-1.345 3.004-3.004v-3.244c0-1.659-1.345-3.004-3.004-3.004s-3.004 1.345-3.004 3.004v3.244c0 1.659 1.345 3.004 3.004 3.004z"
                      fill="url(#Contour-6_1_)"></path>
                <path id="Contour-7_7_"
                      d="m59.689 177.445h-3.244c-1.659 0-3.004 1.345-3.004 3.004s1.345 3.004 3.004 3.004h3.244c1.659 0 3.004-1.345 3.004-3.004s-1.345-3.004-3.004-3.004z"
                      fill="url(#Contour-7_1_)"></path>
                <path id="Contour-8_7_"
                      d="m51.578 182.312c-1.659 0-3.004 1.345-3.004 3.004v3.244c0 1.659 1.345 3.004 3.004 3.004s3.004-1.345 3.004-3.004v-3.244c0-1.659-1.345-3.004-3.004-3.004z"
                      fill="url(#Contour-8_1_)"></path>
            </g>
            <g id="Group-2_7_">
                <path id="Contour-9_7_"
                      d="m544.292 114.151c0-1.659-1.345-3.004-3.004-3.004h-3.244c-1.659 0-3.004 1.345-3.004 3.004s1.345 3.004 3.004 3.004h3.244c1.659 0 3.004-1.345 3.004-3.004z"
                      fill="url(#Contour-9_1_)"></path>
                <path id="Contour-10_7_"
                      d="m546.155 112.229c1.659 0 3.004-1.345 3.004-3.004v-3.244c0-1.659-1.345-3.004-3.004-3.004s-3.004 1.345-3.004 3.004v3.244c0 1.659 1.344 3.004 3.004 3.004z"
                      fill="url(#Contour-10_1_)"></path>
                <path id="Contour-11_7_"
                      d="m554.265 111.147h-3.244c-1.659 0-3.004 1.345-3.004 3.004s1.345 3.004 3.004 3.004h3.244c1.659 0 3.004-1.345 3.004-3.004s-1.345-3.004-3.004-3.004z"
                      fill="url(#Contour-11_1_)"></path>
                <path id="Contour-12_7_"
                      d="m546.155 115.954c-1.659 0-3.004 1.345-3.004 3.004v3.244c0 1.659 1.345 3.004 3.004 3.004s3.004-1.345 3.004-3.004v-3.244c0-1.659-1.345-3.004-3.004-3.004z"
                      fill="url(#Contour-12_1_)"></path>
            </g>
            <g id="Group-3_7_">
                <path id="Contour-13_7_"
                      d="m366.666 598.935c0-1.659-1.345-3.004-3.004-3.004h-3.184c-1.659 0-3.004 1.345-3.004 3.004s1.345 3.004 3.004 3.004h3.244c1.636-.033 2.945-1.369 2.944-3.004z"
                      fill="url(#Contour-13_1_)"></path>
                <path id="Contour-14_7_"
                      d="m368.499 597.072c1.659 0 3.004-1.345 3.004-3.004v-3.214c-.111-1.576-1.424-2.798-3.004-2.794-1.58-.004-2.893 1.217-3.004 2.794v3.214c0 1.659 1.345 3.004 3.004 3.004z"
                      fill="url(#Contour-14_1_)"></path>
                <path id="Contour-15_7_"
                      d="m376.61 595.931h-3.244c-1.659 0-3.004 1.345-3.004 3.004s1.345 3.004 3.004 3.004h3.244c1.659 0 3.004-1.345 3.004-3.004s-1.345-3.004-3.004-3.004z"
                      fill="url(#Contour-15_1_)"></path>
                <path id="Contour-16_7_"
                      d="m368.499 600.797c-1.659 0-3.004 1.345-3.004 3.004v3.244c.126 1.565 1.434 2.769 3.004 2.764 1.57.005 2.878-1.199 3.004-2.764v-3.244c0-1.659-1.345-3.004-3.004-3.004z"
                      fill="url(#Contour-16_1_)"></path>
            </g>
            <path id="Contour-17_7_"
                  d="m333.623 112.469h63.354c.863 0 1.562.699 1.562 1.562v.03 389.046h-283.757c-.879 0-1.592-.713-1.592-1.592v-387.364c0-.879.713-1.592 1.592-1.592h218.84v-.09z"
                  fill="#fff"></path>
            <path id="Contour-18_7_"
                  d="m116.254 180.96s4.296 277.358 149.178 290.455c0 0 107.272 9.012 133.107-81.708v113.4l-285.379-1.592z"
                  fill="url(#Contour-18_1_)"></path>
            <path id="Contour-19_7_"
                  d="m178.587 142.119v9.312s-15.35 6.939-10.063 20.637 19.736 12.016 19.736 12.016 3.304 12.947-5.648 12.316-7.54-7.149-7.54-7.149h-9.402s3.004 12.406 11.535 15.35l.751 10.244 9.493-.3 1.502-10.244s10.664-5.377 10.394-14.629c-.397-8.273-5.858-15.443-13.728-18.024-6.939-2.463-10.484-8.802-2.013-10.904 0 0 5.017 1.502 5.527 5.017l9.433-.36s-.871-10.544-6.609-12.497-4.236-10.965-4.236-10.965z"
                  fill="url(#Contour-19_1_)"></path>
            <path id="Contour-20_7_"
                  d="m339.781 186.067h162.786c8.378 0 15.17 6.792 15.17 15.17v241.52c0 8.378-6.792 15.17-15.17 15.17h-162.786c-8.378 0-15.17-6.792-15.17-15.17v-241.52c0-8.378 6.792-15.17 15.17-15.17z"
                  fill="#fff"></path>
            <path id="Contour-21_7_"
                  d="m391.059 187.899h113.881c7.068 0 12.797 5.729 12.797 12.797v242.512c0 7.068-5.729 12.797-12.797 12.797h-113.881c-7.068 0-12.797-5.729-12.797-12.797v-242.512c0-7.067 5.729-12.797 12.797-12.797z"
                  fill="url(#Contour-21_1_)"></path>
            <path id="Contour-22_7_"
                  d="m356.633 202.589h128.811c8.942 0 16.191 7.249 16.191 16.191v20.577c0 8.942-7.249 16.191-16.191 16.191h-128.811c-8.942 0-16.191-7.249-16.191-16.191v-20.577c0-8.942 7.249-16.191 16.191-16.191z"
                  fill="#fff"></path>
            <circle id="Contour-23_7_" cx="357.234" cy="328.065" fill="url(#Contour-23_1_)" r="15.29"></circle>
            <circle id="Contour-24_7_" cx="357.234" cy="374.176" fill="url(#Contour-24_1_)" r="15.29"></circle>
            <circle id="Contour-25_7_" cx="357.234" cy="415.872" fill="url(#Contour-25_1_)" r="15.29"></circle>
            <g fill="#fff">
                <circle id="Contour-26_7_" cx="442.127" cy="330.258" r="15.29"></circle>
                <circle id="Contour-27_7_" cx="398.929" cy="330.258" r="15.29"></circle>
                <circle id="Contour-28_6_" cx="442.127" cy="374.176" r="15.29"></circle>
                <circle id="Contour-29_6_" cx="398.929" cy="374.176" r="15.29"></circle>
                <circle id="Contour-30_6_" cx="442.127" cy="415.872" r="15.29"></circle>
                <circle id="Contour-31_5_" cx="398.929" cy="415.872" r="15.29"></circle>
                <path id="Contour-32_5_"
                      d="m475.681 277.688h18.264c4.247 0 7.69 3.436 7.69 7.675 0 4.239-3.443 7.675-7.69 7.675h-18.264c-4.247 0-7.69-3.436-7.69-7.675 0-4.238 3.443-7.675 7.69-7.675z"></path>
                <path id="Contour-33_5_"
                      d="m390.308 277.688h18.264c4.247 0 7.69 3.436 7.69 7.675 0 4.239-3.443 7.675-7.69 7.675h-18.264c-4.247 0-7.69-3.436-7.69-7.675 0-4.238 3.443-7.675 7.69-7.675z"></path>
                <path id="Contour-34_3_"
                      d="m432.994 277.688h18.264c4.247 0 7.69 3.436 7.69 7.675 0 4.239-3.443 7.675-7.69 7.675h-18.264c-4.247 0-7.69-3.436-7.69-7.675 0-4.238 3.443-7.675 7.69-7.675z"></path>
            </g>
            <path id="Contour-35_3_"
                  d="m348.132 277.027h18.264c4.247 0 7.69 3.436 7.69 7.675 0 4.239-3.443 7.675-7.69 7.675h-18.264c-4.247 0-7.69-3.436-7.69-7.675 0-4.238 3.443-7.675 7.69-7.675z"
                  fill="url(#Contour-35_1_)"></path>
            <path id="Contour-36_3_"
                  d="m373.455 324.43c.236 6.997-5.245 12.861-12.242 13.097-.285.01-.57.01-.856 0-7.222-.017-13.067-5.876-13.067-13.097-.185-7.032 5.366-12.882 12.398-13.067.223-.006.447-.006.67 0 2.103.03 12.647 8.591 13.097 13.067z"
                  fill="#fff"></path>
            <path id="Contour-37_3_"
                  d="m373.455 369.19c.236 6.997-5.245 12.861-12.242 13.097-.285.01-.57.01-.856 0-7.222-.017-13.067-5.876-13.067-13.097-.185-7.032 5.366-12.882 12.398-13.067.223-.006.447-.006.67 0 2.103.15 12.647 8.711 13.097 13.067z"
                  fill="#fff"></path>
            <path id="Contour-38_3_"
                  d="m373.455 411.546c.236 6.997-5.245 12.861-12.242 13.097-.285.01-.57.01-.856 0-7.222-.017-13.067-5.876-13.067-13.097-.185-7.032 5.366-12.882 12.398-13.067.223-.006.447-.006.67 0 2.103.15 12.647 8.711 13.097 13.067z"
                  fill="#fff"></path>
            <circle id="Contour-39_3_" cx="484.813" cy="329.057" fill="#fff" r="15.29"></circle>
            <path id="Contour-40_3_"
                  d="m500.134 416.653c-.375 8.453-7.531 15.002-15.983 14.627-7.928-.351-14.276-6.699-14.627-14.627v-42.717c.375-8.453 7.531-15.002 15.983-14.627 7.928.351 14.276 6.699 14.627 14.627z"
                  fill="#fff"></path>
            <g id="Group-4_5_">
                <path id="Contour-41_3_"
                      d="m191.083 212.021v-6.398c2.142-.859 4.093-2.136 5.738-3.755 3.675-3.531 5.683-8.454 5.527-13.548.19-4.239-1.189-8.4-3.875-11.686-3.26-3.315-7.346-5.7-11.836-6.909-1.72-.408-3.35-1.131-4.806-2.133-.15 0-.481-.391-.481-1.382-.042-.513.145-1.019.511-1.382.445-.392 1.031-.587 1.622-.541.466-.056.934.086 1.292.391.264.254.451.576.541.931.593 1.788 2.262 2.997 4.146 3.004h6.819c1.255-.012 2.446-.559 3.274-1.502.815-.919 1.189-2.148 1.021-3.364-.448-3.856-2.259-7.425-5.107-10.063-1.284-1.24-2.766-2.255-4.386-3.004v-6.128c0-2.389-1.937-4.326-4.326-4.326h-6.699c-2.487.089-4.431 2.176-4.343 4.663.003.088.009.176.017.263v5.617c-1.916.845-3.666 2.025-5.167 3.485-3.33 3.326-5.135 7.882-4.987 12.587-.158 4.015 1.204 7.941 3.815 10.995 3.194 3.138 7.148 5.395 11.475 6.549 1.822.456 3.557 1.207 5.137 2.223.416.368.62.922.541 1.472.07 1.028-.289 2.04-.991 2.794-.698.695-1.661 1.056-2.644.991-.987.087-1.966-.239-2.704-.901-.505-.487-.824-1.135-.901-1.832-.284-2.091-2.065-3.654-4.176-3.665h-7.18c-2.406.017-4.342 1.98-4.326 4.386.001.161.011.321.03.481.557 4.265 2.365 8.268 5.197 11.505 1.977 1.849 4.321 3.262 6.879 4.145v6.008c.033 2.37 1.955 4.28 4.326 4.296h6.699c2.369-.001 4.296-1.901 4.328-4.267zm-6.007-1.682h-3.334v-5.587c-.019-1.944-1.315-3.643-3.184-4.176-2.085-.518-4.006-1.551-5.587-3.004-1.48-1.725-2.512-3.789-3.004-6.008h3.665c.502 1.409 1.337 2.677 2.433 3.695 3.97 3.489 9.942 3.385 13.788-.24 1.809-1.872 2.784-4.397 2.704-6.999.061-2.297-.909-4.501-2.644-6.008-2.181-1.554-4.623-2.703-7.21-3.395-3.359-.838-6.457-2.5-9.012-4.836-1.602-1.956-2.407-4.445-2.253-6.969-.144-3.087 1.01-6.094 3.184-8.291 1.182-1.132 2.582-2.012 4.115-2.583 1.774-.559 2.986-2.196 3.004-4.055v-5.647h3.334v6.008c.036 1.853 1.242 3.48 3.004 4.055 1.272.448 2.438 1.153 3.425 2.073 1.325 1.236 2.299 2.801 2.824 4.536h-3.695c-.427-.969-1.051-1.839-1.832-2.553-1.467-1.288-3.366-1.974-5.317-1.923-2.139-.043-4.21.755-5.768 2.223-1.548 1.491-2.408 3.558-2.373 5.708-.114 2.288.827 4.502 2.553 6.008 2.059 1.54 4.394 2.672 6.879 3.334 3.446.877 6.604 2.637 9.162 5.107 1.723 2.202 2.578 4.96 2.403 7.75.156 3.463-1.191 6.825-3.695 9.222-1.293 1.278-2.867 2.235-4.596 2.794-1.773.579-2.98 2.221-3.004 4.085z"
                      fill="url(#Contour-41_1_)"></path>
                <path id="Contour-42_3_"
                      d="m502.597 183.063h-98.05v-68.911c.017-4.164-3.346-7.553-7.51-7.57-.01 0-.02 0-.03 0h-279.371c-4.134.066-7.45 3.436-7.45 7.57v384.51c0 4.181 3.389 7.57 7.57 7.57h279.371c4.169-.017 7.54-3.401 7.54-7.57v-37.73h98.05c9.954 0 18.024-8.069 18.025-18.023 0-.05 0-.101-.001-.151v-241.49c.1-9.954-7.888-18.104-17.842-18.204-.101-.002-.202-.002-.302-.001zm-104.058 315.599c0 .851-.681 1.546-1.532 1.562h-279.371c-.863 0-1.562-.699-1.562-1.562v-384.51c0-.863.699-1.562 1.562-1.562h279.371c.851.016 1.532.711 1.532 1.562v69.092h-58.758c-9.92.082-17.942 8.104-18.024 18.024v55.754h-128.751c-1.659 0-3.004 1.345-3.004 3.004s1.345 3.004 3.004 3.004h128.601v26.796h-172.249c-1.659 0-3.004 1.345-3.004 3.004s1.345 3.004 3.004 3.004h172.249v25.384h-172.249c-1.659 0-3.004 1.345-3.004 3.004s1.345 3.004 3.004 3.004h172.249v25.384h-172.249c-1.659 0-3.004 1.345-3.004 3.004s1.345 3.004 3.004 3.004h172.249v84.112c0 9.979 8.045 18.092 18.024 18.174h58.758zm116.194-55.784c.083 6.636-5.229 12.082-11.865 12.165-.05.001-.101.001-.151.001h-162.816c-6.66-.082-12.016-5.505-12.016-12.166v-241.611c.097-6.596 5.42-11.919 12.016-12.016h162.816c6.602.081 11.935 5.414 12.016 12.016z"
                      fill="url(#Contour-42_1_)"></path>
                <path id="Contour-43_1_"
                      d="m485.474 199.585h-128.841c-10.59 0-19.179 8.576-19.195 19.165v20.637c.017 10.59 8.606 19.165 19.195 19.165h128.841c10.59 0 19.179-8.576 19.195-19.165v-20.637c-.016-10.589-8.605-19.165-19.195-19.165zm13.188 39.803c-.017 7.272-5.916 13.157-13.188 13.157h-128.841c-7.272 0-13.171-5.886-13.188-13.157v-20.638c.017-7.272 5.916-13.157 13.188-13.157h128.841c7.272 0 13.171 5.886 13.188 13.157z"
                      fill="url(#Contour-43_2_)"></path>
                <path id="Contour-44_1_"
                      d="m366.486 274.024h-18.294c-5.898-.313-10.933 4.215-11.246 10.113s4.215 10.933 10.113 11.246c.377.02.756.02 1.133 0h18.294c5.898.313 10.933-4.215 11.246-10.113s-4.215-10.933-10.113-11.246c-.377-.021-.755-.021-1.133 0zm0 15.35h-18.294c-2.58.207-4.839-1.716-5.046-4.296s1.716-4.839 4.296-5.046c.25-.02.5-.02.75 0h18.294c2.58-.207 4.839 1.716 5.046 4.296s-1.716 4.839-4.296 5.046c-.25.02-.5.02-.75 0z"
                      fill="url(#Contour-44_2_)"></path>
                <path id="Contour-45_1_"
                      d="m493.975 274.024h-18.294c-5.898-.313-10.933 4.215-11.246 10.113s4.215 10.933 10.113 11.246c.377.02.756.02 1.133 0h18.294c5.898.313 10.933-4.215 11.246-10.113s-4.215-10.933-10.113-11.246c-.377-.021-.755-.021-1.133 0zm0 15.35h-18.294c-2.58.207-4.839-1.716-5.046-4.296s1.716-4.839 4.296-5.046c.25-.02.5-.02.75 0h18.294c2.58-.207 4.839 1.716 5.046 4.296s-1.716 4.839-4.296 5.046c-.249.02-.5.02-.75 0z"
                      fill="url(#Contour-45_2_)"></path>
                <path id="Contour-46_1_"
                      d="m408.542 274.024h-18.294c-5.898-.313-10.933 4.215-11.246 10.113s4.215 10.933 10.113 11.246c.377.02.756.02 1.133 0h18.294c5.898-.313 10.426-5.348 10.113-11.246-.29-5.461-4.652-9.824-10.113-10.113zm0 15.35h-18.294c-2.58.207-4.839-1.716-5.046-4.296s1.716-4.839 4.296-5.046c.25-.02.5-.02.75 0h18.294c2.58.207 4.503 2.466 4.296 5.046-.184 2.292-2.004 4.112-4.296 4.296z"
                      fill="url(#Contour-46_2_)"></path>
                <path id="Contour-47_1_"
                      d="m451.289 274.024h-18.294c-5.898-.313-10.933 4.215-11.246 10.113s4.215 10.933 10.113 11.246c.377.02.756.02 1.133 0h18.294c5.898.313 10.933-4.215 11.246-10.113s-4.215-10.933-10.113-11.246c-.378-.021-.756-.021-1.133 0zm0 15.35h-18.294c-2.58.207-4.839-1.716-5.046-4.296s1.716-4.839 4.296-5.046c.25-.02.5-.02.75 0h18.294c2.58-.207 4.839 1.716 5.046 4.296s-1.716 4.839-4.296 5.046c-.25.02-.501.02-.75 0z"
                      fill="url(#Contour-47_2_)"></path>
                <path id="Contour-48_1_"
                      d="m357.294 310.762c-10.104 0-18.294 8.191-18.294 18.294s8.191 18.294 18.294 18.294 18.294-8.191 18.294-18.294c-.016-10.096-8.197-18.277-18.294-18.294zm0 30.581c-6.786 0-12.286-5.501-12.286-12.286 0-6.786 5.501-12.286 12.286-12.286s12.286 5.501 12.286 12.286c-.016 6.778-5.507 12.269-12.286 12.286z"
                      fill="url(#Contour-48_2_)"></path>
                <path id="Contour-49_1_"
                      d="m484.813 310.762c-10.104.017-18.281 8.221-18.264 18.324.017 10.104 8.221 18.281 18.324 18.264 10.092-.017 18.264-8.202 18.264-18.294-.016-10.108-8.215-18.294-18.324-18.294zm0 30.581c-6.786-.017-12.273-5.531-12.256-12.316.017-6.786 5.531-12.273 12.316-12.256 6.774.017 12.256 5.512 12.256 12.286 0 6.786-5.501 12.286-12.286 12.286-.01 0-.02 0-.03 0z"
                      fill="url(#Contour-49_2_)"></path>
                <path id="Contour-50"
                      d="m399.53 310.762c-10.104 0-18.294 8.191-18.294 18.294s8.191 18.294 18.294 18.294c10.104 0 18.294-8.191 18.294-18.294 0-10.103-8.19-18.294-18.294-18.294zm0 30.581c-6.786 0-12.286-5.501-12.286-12.286 0-6.786 5.501-12.286 12.286-12.286 6.786 0 12.286 5.501 12.286 12.286 0 6.785-5.5 12.286-12.286 12.286z"
                      fill="url(#Contour-50_1_)"></path>
                <path id="Contour-51"
                      d="m442.127 310.762c-10.104.017-18.281 8.221-18.264 18.324.017 10.104 8.221 18.281 18.324 18.264 10.092-.017 18.264-8.202 18.264-18.294 0-10.104-8.191-18.294-18.294-18.294-.01 0-.02 0-.03 0zm0 30.581c-6.786-.017-12.273-5.531-12.256-12.316.017-6.786 5.531-12.273 12.316-12.256 6.774.017 12.256 5.512 12.256 12.286 0 6.786-5.501 12.286-12.286 12.286-.01 0-.02 0-.03 0z"
                      fill="url(#Contour-51_1_)"></path>
                <path id="Contour-52"
                      d="m484.813 355.642c-10.09.033-18.261 8.204-18.294 18.294v42.717c.41 10.112 8.939 17.977 19.051 17.568 9.538-.386 17.181-8.03 17.568-17.568v-42.717c-.034-10.102-8.223-18.278-18.325-18.294zm12.317 61.011c-.336 6.794-6.116 12.029-12.909 11.693-6.324-.313-11.381-5.369-11.693-11.693v-42.717c.336-6.794 6.115-12.029 12.909-11.693 6.324.313 11.381 5.369 11.693 11.693z"
                      fill="url(#Contour-52_1_)"></path>
                <path id="Contour-53"
                      d="m442.127 355.642c-10.12 0-18.324 8.204-18.324 18.324s8.204 18.324 18.324 18.324 18.324-8.204 18.324-18.324c0-.01 0-.02 0-.03-.017-10.108-8.216-18.294-18.324-18.294zm0 30.61c-6.802 0-12.316-5.514-12.316-12.316s5.514-12.316 12.316-12.316 12.316 5.514 12.316 12.316-5.514 12.316-12.316 12.316z"
                      fill="url(#Contour-53_1_)"></path>
                <path id="Contour-54"
                      d="m442.127 398.328c-10.12 0-18.324 8.204-18.324 18.324s8.204 18.324 18.324 18.324 18.324-8.204 18.324-18.324c0-10.119-8.204-18.324-18.324-18.324zm0 30.611c-6.802 0-12.316-5.514-12.316-12.316s5.514-12.316 12.316-12.316 12.316 5.514 12.316 12.316v.03c-.017 6.79-5.526 12.286-12.316 12.286z"
                      fill="url(#Contour-54_1_)"></path>
                <path id="Contour-55"
                      d="m357.294 355.642c-10.12-.017-18.338 8.174-18.354 18.294-.017 10.12 8.174 18.338 18.294 18.354 10.12.017 18.338-8.174 18.354-18.294 0-.02 0-.04 0-.06-.033-10.09-8.204-18.261-18.294-18.294zm0 30.61c-6.802.017-12.33-5.484-12.346-12.286-.017-6.802 5.484-12.33 12.286-12.346 6.802-.017 12.33 5.484 12.346 12.286v.03c-.016 6.784-5.502 12.283-12.286 12.316z"
                      fill="url(#Contour-55_1_)"></path>
                <path id="Contour-56"
                      d="m399.53 355.642c-10.12-.017-18.338 8.174-18.354 18.294-.017 10.12 8.174 18.338 18.294 18.354 10.12.017 18.338-8.174 18.354-18.294 0-.02 0-.04 0-.06-.016-10.097-8.197-18.278-18.294-18.294zm0 30.61c-6.802.017-12.33-5.484-12.346-12.286s5.484-12.33 12.286-12.346 12.33 5.484 12.346 12.286v.03c0 6.791-5.496 12.3-12.286 12.316z"
                      fill="url(#Contour-56_1_)"></path>
                <path id="Contour-57"
                      d="m357.294 398.328c-10.12-.017-18.338 8.174-18.354 18.294-.017 10.12 8.174 18.338 18.294 18.354 10.12.017 18.338-8.174 18.354-18.294 0-.01 0-.02 0-.03-.016-10.101-8.192-18.291-18.294-18.324zm0 30.611c-6.802.066-12.37-5.394-12.436-12.196s5.394-12.37 12.196-12.436 12.37 5.394 12.436 12.196c0 .05.001.1.001.15-.017 6.743-5.454 12.22-12.197 12.286z"
                      fill="url(#Contour-57_1_)"></path>
                <path id="Contour-58"
                      d="m399.53 398.328c-10.12-.017-18.338 8.174-18.354 18.294-.017 10.12 8.174 18.338 18.294 18.354 10.12.017 18.338-8.174 18.354-18.294 0-.01 0-.02 0-.03 0-10.108-8.185-18.307-18.294-18.324zm0 30.611c-6.802.017-12.33-5.484-12.346-12.286-.017-6.802 5.484-12.33 12.286-12.346 6.802-.017 12.33 5.484 12.346 12.286v.06c0 6.785-5.5 12.286-12.286 12.286z"
                      fill="url(#Contour-58_1_)"></path>
                <path id="Contour-59"
                      d="m237.856 415.691h-88.497c-1.659 0-3.004 1.345-3.004 3.004s1.345 3.004 3.004 3.004h88.497c1.659 0 3.004-1.345 3.004-3.004s-1.345-3.004-3.004-3.004z"
                      fill="url(#Contour-59_1_)"></path>
                <path id="Contour-60"
                      d="m237.856 439.723h-88.497c-1.659 0-3.004 1.345-3.004 3.004s1.345 3.004 3.004 3.004h88.497c1.659 0 3.004-1.345 3.004-3.004s-1.345-3.004-3.004-3.004z"
                      fill="url(#Contour-60_1_)"></path>
                <path id="Contour-61"
                      d="m282.014 142.179h88.497c1.659 0 3.004-1.345 3.004-3.004s-1.345-3.004-3.004-3.004h-88.497c-1.659 0-3.004 1.345-3.004 3.004s1.345 3.004 3.004 3.004z"
                      fill="url(#Contour-61_1_)"></path>
                <path id="Contour-62"
                      d="m282.014 166.21h88.497c1.659 0 3.004-1.345 3.004-3.004s-1.345-3.004-3.004-3.004h-88.497c-1.659 0-3.004 1.345-3.004 3.004s1.345 3.004 3.004 3.004z"
                      fill="url(#Contour-62_1_)"></path>
                <path id="Contour-63"
                      d="m469.733 214.965h6.729c1.659 0 3.004-1.345 3.004-3.004s-1.345-3.004-3.004-3.004h-6.729c-1.659 0-3.004 1.345-3.004 3.004s1.345 3.004 3.004 3.004z"
                      fill="url(#Contour-63_1_)"></path>
                <path id="Contour-64"
                      d="m481.509 214.965c-1.659 0-3.004 1.345-3.004 3.004v6.699c0 1.659 1.345 3.004 3.004 3.004s3.004-1.345 3.004-3.004v-6.699c0-1.659-1.345-3.004-3.004-3.004z"
                      fill="url(#Contour-64_1_)"></path>
                <path id="Contour-65"
                      d="m464.716 227.672c1.659 0 3.004-1.345 3.004-3.004v-6.699c0-1.659-1.345-3.004-3.004-3.004s-3.004 1.345-3.004 3.004v6.699c0 1.659 1.345 3.004 3.004 3.004z"
                      fill="url(#Contour-65_1_)"></path>
                <path id="Contour-66"
                      d="m484.513 232.869c0-1.659-1.345-3.004-3.004-3.004s-3.004 1.345-3.004 3.004v6.729c0 1.659 1.345 3.004 3.004 3.004s3.004-1.345 3.004-3.004z"
                      fill="url(#Contour-66_1_)"></path>
                <path id="Contour-67"
                      d="m467.72 239.598v-6.729c0-1.659-1.345-3.004-3.004-3.004s-3.004 1.345-3.004 3.004v6.729c0 1.659 1.345 3.004 3.004 3.004s3.004-1.345 3.004-3.004z"
                      fill="url(#Contour-67_1_)"></path>
                <path id="Contour-68"
                      d="m476.462 242.542h-6.729c-1.659 0-3.004 1.345-3.004 3.004s1.345 3.004 3.004 3.004h6.729c1.659 0 3.004-1.345 3.004-3.004s-1.345-3.004-3.004-3.004z"
                      fill="url(#Contour-68_1_)"></path>
                <circle id="Contour-69" cx="488.478" cy="245.546" fill="url(#Contour-69_1_)" r="3.004"></circle>
                <path id="Contour-70"
                      d="m234.852 179.638c0-29.1-23.59-52.69-52.69-52.69s-52.69 23.59-52.69 52.69 23.59 52.69 52.69 52.69c29.093-.016 52.673-23.597 52.69-52.69zm-99.372 0c0-25.782 20.9-46.682 46.682-46.682s46.682 20.9 46.682 46.682-20.9 46.682-46.682 46.682c-25.775-.016-46.666-20.907-46.682-46.682z"
                      fill="url(#Contour-70_1_)"></path>
            </g>
        </g>
    </g>
</svg>
