<svg id="Layer_1" viewBox="0 0 512 512" xmlns="http://www.w3.org/2000/svg" data-name="Layer 1">
    <path d="m420 36h-328a56 56 0 0 0 -56 56v328a56 56 0 0 0 56 56h328a56 56 0 0 0 56-56v-328a56 56 0 0 0 -56-56zm-56.395 233.366c1.412 14.654 53.494 45.855 49.589 69.719-1.716 10.916-19.8 8.888-35.707 9.349-14.659.627-29-.461-35.568-3.111-10.76-4.21-39.29-41.8-46.622-40.4-16.693 3.438-10.61 38.056-15.437 40.4-7.333 3.422-30.108 2.5-39 1.555-46.79-7.793-73.775-38.989-99.189-79.223-31.352-48.978-49.91-85.468-41.95-90.151 8.415-4.677 32.735-3.588 57.232-3.116 7.488.311 28.691 53.493 34.307 62.376 22.147 35.407 29.013 9.21 29.48 6.083 6.082-63.787-9.516-60.971-18.715-62.221 6.7-20.586 54.433-16.992 54.433-16.992s15.9 3.888 21.675 7.949c2.339 1.394 4.988 6.7 4.838 23.08-.778 25.1-3.433 58.943 7.638 58.943 8.427.322 21.675-19.636 32.6-40.234 9.51-18.242 16.842-36.023 20.108-37.268 3.589-1.405 18.876-1.405 34.163-1.716 14.971 0 30.1 0 34.307 3.116 7.96 6.866-6.088 28.7-18.87 46.789-10.281 14.976-30.562 34.468-29.312 45.073z" fill="#000000" style="fill: #c17701;"></path>
</svg>
